<?xml version="1.0" encoding="UTF-8" standalone="no"?>
<svg width="32px" height="19px" viewBox="0 0 32 19" version="1.1" xmlns="http://www.w3.org/2000/svg" xmlns:xlink="http://www.w3.org/1999/xlink">
    <!-- Generator: Sketch 3.6 (26304) - http://www.bohemiancoding.com/sketch -->
    <title>Shape</title>
    <desc>Created with Sketch.</desc>
    <defs></defs>
    <g id="Page-1" stroke="none" stroke-width="1" fill="none" fill-rule="evenodd">
        <path d="M0,9.33133333 C0,10.0673333 0.597333333,10.6646667 1.33333333,10.6646667 L27.448,10.6646667 L21.7253333,16.3873333 C21.2053333,16.9073333 21.2053333,17.7526667 21.7253333,18.2726667 C22.2453333,18.7926667 23.0906667,18.7926667 23.6106667,18.2726667 L31.6106667,10.2726667 C31.7333333,10.15 31.832,10.0033333 31.8986667,9.84066667 C31.9626667,9.678 32,9.50733333 32,9.33666667 L32,9.33133333 L32,9.33133333 C32,9.158 31.9653333,8.98466667 31.896,8.822 C31.8293333,8.65933333 31.7306667,8.51266667 31.608,8.39 L23.608,0.39 C23.088,-0.13 22.2426667,-0.13 21.7226667,0.39 C21.2026667,0.91 21.2026667,1.75533333 21.7226667,2.27533333 L27.448,7.998 L1.33333333,7.998 C0.597333333,7.998 0,8.59533333 0,9.33133333 L0,9.33133333 Z" id="Shape" fill="#B2B2B5"></path>
    </g>
</svg>