<?xml version="1.0" encoding="utf-8"?>
<!-- Generator: Adobe Illustrator 24.1.0, SVG Export Plug-In . SVG Version: 6.00 Build 0)  -->
<svg version="1.1" id="Layer_1" xmlns="http://www.w3.org/2000/svg" xmlns:xlink="http://www.w3.org/1999/xlink" x="0px" y="0px"
	 viewBox="0 0 32 21" style="enable-background:new 0 0 32 21;" xml:space="preserve">
<style type="text/css">
	.st0{fill-rule:evenodd;clip-rule:evenodd;fill:#5789C7;}
</style>
<g id="Page-1">
	<path id="Shape" class="st0" d="M13.4,20.7c0.1,0,0.2,0,0.2,0c0.2-0.1,0.4-0.3,0.4-0.6v-2.5c0.6,0,1.2,0.1,1.8,0.1
		c2.5,0,4.8-0.4,6.2-0.8c3-0.7,3-1,3-1.4V9.2l6.5-2.5C31.8,6.6,32,6.4,32,6.1c0-0.2-0.2-0.5-0.4-0.6L16.1,0.2c-0.1,0-0.3,0-0.4,0
		L0.4,5.6C0.2,5.7,0,5.9,0,6.2c0,0.2,0.2,0.5,0.4,0.6l6.2,2.4v6.2c0,0.4,0.4,0.6,0.6,0.7c0.4,0.2,1,0.4,2.1,0.6V20
		c0,0.2,0.2,0.5,0.4,0.6L13.4,20.7z M7.8,15V9.6l1.5,0.6v5.2C8.6,15.2,8.2,15.1,7.8,15L7.8,15z M10.6,19.5v-8.9l2.2,0.8v8L10.6,19.5
		z M23.8,15c-1,0.4-4.3,1.3-8,1.3c-0.6,0-1.2,0-1.8-0.1V12l1.7,0.7c0.1,0,0.2,0,0.2,0s0.2,0,0.2,0l7.6-2.9L23.8,15L23.8,15L23.8,15z
		 M15.9,11.4l-2.3-0.9l0,0l-0.2,0l-11-4.3l13.5-4.7l13.7,4.7L15.9,11.4L15.9,11.4z"/>
</g>
</svg>
