<?xml version="1.0" encoding="UTF-8" standalone="no"?>
<svg width="32px" height="43px" viewBox="0 0 32 43" version="1.1" xmlns="http://www.w3.org/2000/svg" xmlns:xlink="http://www.w3.org/1999/xlink">
    <!-- Generator: Sketch 3.6 (26304) - http://www.bohemiancoding.com/sketch -->
    <title>Shape</title>
    <desc>Created with Sketch.</desc>
    <defs></defs>
    <g id="Page-1" stroke="none" stroke-width="1" fill="none" fill-rule="evenodd">
        <path d="M29.3333333,42.6666667 C30.8053333,42.6666667 32,41.472 32,40 L32,2.66666667 C32,1.19466667 30.8053333,0 29.3333333,0 L2.66666667,0 C1.19466667,0 0,1.19466667 0,2.66666667 L0,40 C0,41.472 1.19466667,42.6666667 2.66666667,42.6666667 L29.3333333,42.6666667 L29.3333333,42.6666667 Z M16,41.4986667 C15.1706667,41.4986667 14.5013333,40.8266667 14.5013333,40 C14.5013333,39.1733333 15.1706667,38.5013333 16,38.5013333 C16.8293333,38.5013333 17.4986667,39.1706667 17.4986667,40 C17.4986667,40.8293333 16.8293333,41.4986667 16,41.4986667 L16,41.4986667 Z M5.33333333,5.33333333 L26.6666667,5.33333333 L26.6666667,37.3333333 L5.33333333,37.3333333 L5.33333333,5.33333333 L5.33333333,5.33333333 Z" id="Shape" fill="#595959"></path>
    </g>
</svg>