<?xml version="1.0" encoding="UTF-8" standalone="no"?>
<svg width="33px" height="33px" viewBox="0 0 33 33" version="1.1" xmlns="http://www.w3.org/2000/svg" xmlns:xlink="http://www.w3.org/1999/xlink" xmlns:sketch="http://www.bohemiancoding.com/sketch/ns">
    <!-- Generator: Sketch 3.5.2 (25235) - http://www.bohemiancoding.com/sketch -->
    <title>Shape</title>
    <desc>Created with Sketch.</desc>
    <defs></defs>
    <g id="Page-1" stroke="none" stroke-width="1" fill="none" fill-rule="evenodd" sketch:type="MSPage">
        <path d="M20,0 C12.82,0 7,5.82 7,13 C7,16.09 8.084,18.926 9.884,21.158 L1.292,29.75 C0.752,30.29 0.752,31.168 1.292,31.708 C1.832,32.248 2.71,32.248 3.25,31.708 L11.842,23.116 C14.074,24.916 16.91,26 20,26 C27.18,26 33,20.18 33,13 C33,5.82 27.18,0 20,0 L20,0 Z M20,24 C13.934,24 9,19.066 9,13 C9,6.934 13.934,2 20,2 C26.066,2 31,6.934 31,13 C31,19.066 26.066,24 20,24 L20,24 Z" id="Shape" fill="#FFFFFF" sketch:type="MSShapeGroup" transform="translate(16.943500, 16.056500) scale(-1, 1) translate(-16.943500, -16.056500) "></path>
    </g>
</svg>