<?xml version="1.0" encoding="UTF-8" standalone="no"?>
<svg width="32px" height="27px" viewBox="0 0 32 27" version="1.1" xmlns="http://www.w3.org/2000/svg" xmlns:xlink="http://www.w3.org/1999/xlink">
    <!-- Generator: Sketch 3.6 (26304) - http://www.bohemiancoding.com/sketch -->
    <title>Shape</title>
    <desc>Created with Sketch.</desc>
    <defs></defs>
    <g id="Page-1" stroke="none" stroke-width="1" fill="none" fill-rule="evenodd">
        <path d="M8.32013486,26.6406504 C8.27932369,26.6307611 8.23897053,26.6174625 8.19762494,26.6114767 C7.67756245,26.5363178 7.15485398,26.4769817 6.63776826,26.3844906 C5.78935912,26.2327153 4.95769164,26.0088517 4.13968729,25.7308572 C2.70842136,25.2444319 1.35620798,24.5881182 0.0784164672,23.7699576 C0.057273033,23.756451 0.0402259655,23.7362299 0,23.6999255 C1.16960629,23.8313237 2.30644154,23.8111026 3.43994371,23.6407458 C4.57828009,23.4696602 5.67850234,23.1559859 6.73368978,22.6871013 C7.82711859,22.2012744 9.52620142,21.144885 9.64545453,20.8785495 C8.73073998,20.8497143 7.86072938,20.646072 7.03580432,20.2529968 C6.20584171,19.8575274 5.48617591,19.3100743 4.8794024,18.6083478 C4.27774301,17.9125809 3.83197516,17.1266388 3.54253136,16.216039 C4.54311736,16.4038063 5.5057673,16.3695058 6.47750055,16.1005939 C6.40435088,16.0547647 6.37954356,16.0486748 6.35481249,16.0430536 C5.92293672,15.945045 5.50449513,15.8044864 5.10327861,15.6142988 C3.53466937,14.8706987 2.40760439,13.6853312 1.72928413,12.059316 C1.39946172,11.2686113 1.23927025,10.4385836 1.22705743,9.57899185 C1.22637046,9.5307423 1.23553008,9.48236271 1.24217079,9.41225251 C1.71162643,9.67541302 2.18253232,9.86999866 2.67473434,10.0060551 C3.16156778,10.1406022 3.65565259,10.2309856 4.16548687,10.2181555 C2.76890024,9.19242286 1.83306765,7.8501535 1.44948338,6.13404106 C1.0669423,4.42258707 1.31460807,2.79933024 2.16047293,1.24025008 C3.01244418,2.29528629 3.93357053,3.23732382 4.9547911,4.07536715 C5.97362004,4.91145865 7.06374125,5.63470752 8.2284624,6.23954469 C9.39669475,6.84622956 10.6159156,7.31641556 11.8805529,7.66652416 C13.4314282,8.09585156 15.4040781,8.31627963 15.7384549,8.24991694 C15.7386076,8.16593562 15.7316106,8.11875303 15.722222,8.07211707 C15.5831994,7.38236183 15.5600714,6.68615239 15.633501,5.98832952 C15.7299822,5.07140562 15.9990459,4.20712947 16.4523449,3.40887785 C17.2887194,1.93601706 18.491453,0.910128367 20.0691457,0.35632544 C21.0608262,0.00827280225 22.0788665,-0.0798984597 23.1169305,0.0703674296 C24.138431,0.218213032 25.0721009,0.595933698 25.9223166,1.19134992 C26.2767681,1.43959832 26.6035375,1.72235531 26.9000036,2.04034959 C26.962976,2.10790936 27.0239636,2.1307069 27.1133462,2.10616573 C27.2564144,2.06681657 27.4029681,2.04092211 27.5470793,2.00529447 C28.7664783,1.70374775 29.9198517,1.23228656 31.008879,0.595595378 C31.0476801,0.572927965 31.0877025,0.552498682 31.1271651,0.531028399 C30.6270757,2.10770118 29.6742978,3.31399221 28.3194638,4.20379839 C29.5964919,4.06053313 30.816985,3.71726902 32,3.21176769 C31.9680686,3.28609387 31.9291911,3.34714747 31.888151,3.4066397 C31.064778,4.59950213 30.0861243,5.63887145 28.9382721,6.50793609 C28.8104446,6.60469543 28.7647227,6.70369292 28.7699387,6.86314554 C28.7931431,7.57405879 28.7834999,8.28447752 28.7254637,8.99434995 C28.6735083,9.63000003 28.5942775,10.2615644 28.4804439,10.888158 C28.1769808,12.5589877 27.6762301,14.1659532 26.9741709,15.706764 C25.8412032,18.1932298 24.2876056,20.3592031 22.2680889,22.1704615 C21.2433063,23.0895974 20.1283523,23.8756956 18.9247282,24.528522 C17.4627266,25.3214908 15.9193318,25.8889825 14.3024055,26.2470807 C13.6061477,26.4012763 12.9036054,26.5165912 12.1943205,26.5881848 C12.072803,26.6004425 11.9523033,26.6229016 11.83132,26.6406504 L8.32013486,26.6406504 L8.32013486,26.6406504 L8.32013486,26.6406504 L8.32013486,26.6406504 Z" id="Shape" fill="#FFFFFF"></path>
    </g>
</svg>