<?xml version="1.0" encoding="UTF-8" standalone="no"?>
<svg width="34px" height="25px" viewBox="0 0 34 25" version="1.1" xmlns="http://www.w3.org/2000/svg" xmlns:xlink="http://www.w3.org/1999/xlink">
    <!-- Generator: Sketch 3.6 (26304) - http://www.bohemiancoding.com/sketch -->
    <title>icon_groups_blue</title>
    <desc>Created with Sketch.</desc>
    <defs></defs>
    <g id="Page-1" stroke="none" stroke-width="1" fill="none" fill-rule="evenodd">
        <g id="icon_groups_blue" transform="translate(1.000000, 1.000000)" stroke="#5789C7" fill="#5789C7">
            <path d="M25.0610526,17.3305263 L22.9557895,17.3305263 C22.4673684,17.3305263 22.1305263,17.0947368 21.9789474,16.7073684 C21.76,16.1010526 22.2147368,15.4778947 22.8715789,15.4610526 C23.8989474,15.4610526 24.9431579,15.4610526 25.9705263,15.4442105 C26.7957895,15.4273684 27.6378947,15.3936842 28.4463158,15.1578947 C29.4568421,14.8715789 29.9115789,14.2989474 29.9957895,13.2547368 C30.0968421,11.9242105 29.7768421,10.7115789 29.0357895,9.6 C28.8673684,9.34736842 28.7157895,9.07789474 28.7831579,8.75789474 C28.8673684,8.35368421 29.1031579,8.08421053 29.5073684,8 C29.8947368,7.91578947 30.2147368,8.05052632 30.4505263,8.35368421 C31.4273684,9.71789474 31.8989474,11.2336842 31.8821053,12.9178947 C31.8652632,13.6252632 31.7642105,14.3157895 31.4610526,14.9557895 C30.9726316,15.9831579 30.1305263,16.5894737 29.0694737,16.9094737 C28.0926316,17.2126316 27.0989474,17.28 26.0884211,17.2968421 C25.7515789,17.3136842 25.3978947,17.3136842 25.0610526,17.3305263 C25.0610526,17.3136842 25.0610526,17.3136842 25.0610526,17.3305263" id="Shape"></path>
            <path d="M27.4189474,4.63157895 C27.4021053,7.22526316 25.3305263,9.26315789 22.7031579,9.26315789 C20.2105263,9.24631579 18.1557895,7.14105263 18.1557895,4.61473684 C18.1557895,2.08842105 20.2610526,0.0168421053 22.7705263,0.0168421053 C25.3473684,-2.49800181e-16 27.4357895,2.08842105 27.4189474,4.63157895 M25.5494737,4.61473684 C25.5494737,3.09894737 24.3031579,1.85263158 22.8042105,1.85263158 C21.2715789,1.85263158 20.0252632,3.09894737 20.0252632,4.59789474 C20.0252632,6.14736842 21.2547368,7.37684211 22.8210526,7.37684211 C24.32,7.39368421 25.5494737,6.14736842 25.5494737,4.61473684" id="Shape"></path>
            <path d="M10.0042105,21.44 C11.2673684,21.4063158 12.5136842,21.3894737 13.7768421,21.3221053 C14.6021053,21.2884211 15.3936842,21.1536842 16.1852632,20.8842105 C17.28,20.4968421 17.8863158,19.7052632 18.0547368,18.56 C18.3410526,16.5389474 17.8694737,14.7031579 16.7242105,13.0357895 C16.5726316,12.8168421 16.4547368,12.5810526 16.4715789,12.2947368 C16.5221053,11.8905263 16.7747368,11.5705263 17.1452632,11.4694737 C17.5326316,11.3684211 17.9368421,11.5031579 18.1726316,11.8231579 C19.0315789,13.0189474 19.5873684,14.3326316 19.8568421,15.7810526 C20.0589474,16.8757895 20.0926316,17.9536842 19.8736842,19.0484211 C19.5031579,20.9347368 18.3747368,22.1136842 16.5726316,22.7031579 C15.5284211,23.04 14.4336842,23.1915789 13.3389474,23.2084211 C11.3178947,23.2421053 9.31368421,23.2589474 7.29263158,23.2421053 C6.02947368,23.2252632 4.78315789,23.1242105 3.57052632,22.7536842 C1.51578947,22.1305263 0.336842105,20.7663158 0.0842105263,18.6610526 C-0.235789474,16.0842105 0.437894737,13.7431579 1.97052632,11.6547368 C2.29052632,11.2168421 2.86315789,11.1326316 3.28421053,11.4357895 C3.68842105,11.7389474 3.78947368,12.2947368 3.46947368,12.7326316 C2.84631579,13.5915789 2.37473684,14.5010526 2.10526316,15.5284211 C1.85263158,16.5052632 1.78526316,17.4821053 1.90315789,18.4757895 C2.08842105,19.8063158 2.82947368,20.6315789 4.12631579,20.9852632 C5.12,21.2547368 6.14736842,21.3389474 7.17473684,21.3726316 C8.11789474,21.3894737 9.04421053,21.3726316 9.98736842,21.3726316 C10.0042105,21.4063158 10.0042105,21.4231579 10.0042105,21.44" id="Shape"></path>
            <path d="M4.12631579,6.65263158 C4.14315789,3.41894737 6.78736842,0.757894737 9.97052632,0.791578947 C13.2378947,0.825263158 15.8821053,3.43578947 15.8484211,6.65263158 C15.8315789,10.0210526 13.0694737,12.6147368 9.80210526,12.5136842 C6.72,12.4294737 4.14315789,9.92 4.12631579,6.65263158 M13.9789474,6.66947368 C13.9789474,4.44631579 12.2105263,2.66105263 9.98736842,2.66105263 C7.81473684,2.64421053 5.99578947,4.46315789 5.99578947,6.60210526 C5.99578947,8.84210526 7.76421053,10.6610526 9.97052632,10.6610526 C12.1768421,10.6610526 13.9789474,8.87578947 13.9789474,6.66947368" id="Shape"></path>
        </g>
    </g>
</svg>