<?xml version="1.0" encoding="UTF-8" standalone="no"?>
<svg width="32px" height="22px" viewBox="0 0 32 22" version="1.1" xmlns="http://www.w3.org/2000/svg" xmlns:xlink="http://www.w3.org/1999/xlink">
    <!-- Generator: Sketch 3.6 (26304) - http://www.bohemiancoding.com/sketch -->
    <title>icon_hands_blue</title>
    <desc>Created with Sketch.</desc>
    <defs></defs>
    <g id="Page-1" stroke="none" stroke-width="1" fill="none" fill-rule="evenodd">
        <g id="icon_hands_blue" fill="#5789C7">
            <path d="M24.6299609,21.8199997 L23.7430181,18.509884 C23.5275497,17.7057449 23.684885,16.5110556 24.1011654,15.7900813 L26.9665946,10.8273189 C27.2954797,10.2577084 27.9578285,9.9985723 28.5660492,10.152852 L27.3267188,5.527608 C27.2637734,5.29269256 27.263319,5.05554783 27.3146612,4.833656 C27.3567045,4.65041695 27.5142182,4.32079239 27.6861923,4.15233219 C27.8608126,3.9724706 28.0843825,3.83587866 28.3436036,3.76642057 C29.1094755,3.56120581 29.8995689,4.01729823 30.1048327,4.78316386 L31.8455651,11.3027749 C31.9250347,11.6003063 31.9273792,12.049647 31.8470534,12.3626401 L29.5309386,20.0835232 C29.4874991,20.2612239 29.4898712,20.5763684 29.5364109,20.7500572 L29.8231011,21.8199997 L29.0617776,21.8199997 L28.8260864,20.9403881 C28.7463674,20.6428727 28.7437826,20.1933934 28.8241432,19.8803403 L31.1402105,12.1594699 C31.1836374,11.9817218 31.1814514,11.6663244 31.1350283,11.4925029 L29.394372,4.97317597 C29.2941745,4.59923377 28.9081106,4.37639346 28.5338643,4.47667246 C28.159618,4.57695146 27.9367096,4.96301614 28.0369833,5.33724245 C28.0369833,5.33724245 29.6047152,11.1907496 29.606342,11.1990938 C29.6932654,11.5481208 29.6509357,11.9298017 29.4572863,12.2651917 L27.1284538,16.2985295 C27.0269617,16.4743774 26.802073,16.5346361 26.626207,16.4331061 C26.450341,16.3315761 26.3900981,16.1067468 26.4916375,15.9308862 L28.8204701,11.8975483 C29.0141761,11.561991 28.8988037,11.1314153 28.5632833,10.9377144 C28.2277156,10.7440263 27.7971169,10.8594049 27.6033981,11.1949149 L24.737969,16.1576773 C24.418132,16.711617 24.2877636,17.7016038 24.4533173,18.3194584 L25.3912845,21.8199997 L24.6299609,21.8199997 Z" id="Combined-Shape"></path>
            <path d="M7.44720372,21.8199997 L8.33414655,18.509884 C8.54961496,17.7057449 8.39227963,16.5110556 7.97599923,15.7900813 L5.1105701,10.8273189 C4.78168501,10.2577084 4.11933613,9.9985723 3.51111549,10.152852 L4.75044589,5.527608 C4.81339129,5.29269256 4.81384568,5.05554783 4.76250347,4.833656 C4.72046013,4.65041695 4.56294645,4.32079239 4.39097235,4.15233219 C4.21635209,3.9724706 3.99278216,3.83587866 3.73356105,3.76642057 C2.96768913,3.56120581 2.17759576,4.01729823 1.97233193,4.78316386 L0.231599526,11.3027749 C0.152129988,11.6003063 0.14978542,12.049647 0.230111291,12.3626401 L2.54622603,20.0835232 C2.58966555,20.2612239 2.58729351,20.5763684 2.54075375,20.7500572 L2.25406352,21.8199997 L3.01538707,21.8199997 L3.25107829,20.9403881 C3.33079729,20.6428727 3.33338203,20.1933934 3.2530215,19.8803403 L0.936954115,12.1594699 C0.893527278,11.9817218 0.8957133,11.6663244 0.942136369,11.4925029 L2.68279264,4.97317597 C2.78299015,4.59923377 3.16905406,4.37639346 3.54330039,4.47667246 C3.91754671,4.57695146 4.14045502,4.96301614 4.04018138,5.33724245 C4.04018138,5.33724245 2.47244945,11.1907496 2.47082268,11.1990938 C2.38389931,11.5481208 2.42622894,11.9298017 2.61987837,12.2651917 L4.94871089,16.2985295 C5.05020295,16.4743774 5.2750917,16.5346361 5.4509577,16.4331061 C5.62682369,16.3315761 5.68706654,16.1067468 5.58552713,15.9308862 L3.2566946,11.8975483 C3.06298853,11.561991 3.17836094,11.1314153 3.51388132,10.9377144 C3.84944905,10.7440263 4.28004779,10.8594049 4.47376655,11.1949149 L7.33919568,16.1576773 C7.65903271,16.711617 7.78940102,17.7016038 7.62384738,18.3194584 L6.68588017,21.8199997 L7.44720372,21.8199997 Z" id="Combined-Shape"></path>
            <path d="M23.7023967,5.13394387 L19.1104981,5.13394387 L19.1104981,0.54211759 C19.1104981,0.242722941 18.867773,-2.12643437e-06 18.5683784,-2.12643437e-06 L13.4342878,-2.12643437e-06 C13.1348932,-2.12643437e-06 12.8921681,0.242722941 12.8921681,0.54211759 L12.8921681,5.13394387 L8.30034183,5.13394387 C8.00094718,5.13394387 7.75822211,5.37666893 7.75822211,5.67606358 L7.75822211,10.8104433 C7.75822211,11.1098379 8.00094718,11.352563 8.30034183,11.352563 L12.8921681,11.352563 L12.8921681,15.9440279 C12.8921681,16.2434225 13.1348932,16.4861476 13.4342878,16.4861476 L18.5683061,16.4861476 C18.8677007,16.4861476 19.1104258,16.2434225 19.1104258,15.9440279 L19.1104258,11.352563 L23.7023244,11.352563 C24.001719,11.352563 24.2444441,11.1098379 24.2444441,10.8104433 L24.2444441,5.67606358 C24.2445164,5.37666893 24.0017913,5.13394387 23.7023967,5.13394387 L23.7023967,5.13394387 Z M23.4580322,10.3532471 L18.6735845,10.3532471 C18.3616355,10.3532471 18.1087324,10.6061502 18.1087324,10.9180992 L18.1087324,15.702095 L13.8890614,15.702095 L13.8890614,10.9180992 C13.8890614,10.6061502 13.6361583,10.3532471 13.3242093,10.3532471 L8.53983692,10.3532471 L8.53983692,6.1332749 L13.3242093,6.1332749 C13.6361583,6.1332749 13.8890614,5.88037179 13.8890614,5.56842282 L13.8890614,0.784050404 L18.1086571,0.784050404 L18.1086571,5.56842282 C18.1086571,5.88037179 18.3615602,6.1332749 18.6735091,6.1332749 L23.4579569,6.1332749 L23.4579569,10.3532471 L23.4580322,10.3532471 Z" id="Shape"></path>
        </g>
    </g>
</svg>