<?xml version="1.0" encoding="UTF-8" standalone="no"?>
<svg width="32px" height="22px" viewBox="0 0 32 22" version="1.1" xmlns="http://www.w3.org/2000/svg" xmlns:xlink="http://www.w3.org/1999/xlink">
    <!-- Generator: Sketch 3.6 (26304) - http://www.bohemiancoding.com/sketch -->
    <title>Group</title>
    <desc>Created with Sketch.</desc>
    <defs></defs>
    <g id="Page-1" stroke="none" stroke-width="1" fill="none" fill-rule="evenodd">
        <g id="Group" fill="#5789C7">
            <path d="M30.1018947,0.202105263 L12.2677895,0.212210526 C11.2454737,0.210526316 10.4134737,1.04252632 10.4151579,2.06652632 L10.4151579,2.91705263 C10.0362105,2.75368421 9.56631579,2.63915789 8.96673684,2.63915789 C8.21726316,2.63915789 7.59578947,2.80757895 7.52673684,2.82947368 C7.38189474,2.86989474 7.25052632,2.94063158 7.13768421,3.04 L0.340210526,8.99536842 C0.117894737,9.19242105 -0.00673684211,9.47705263 6.54478641e-16,9.77347368 L0.0589473684,19.5772632 C0.0724210526,20.0993684 0.672,20.5254737 1.19578947,20.5490526 C1.22273684,20.5490526 3.75747368,20.6551579 5.99747368,20.6551579 C7.36336842,20.6551579 8.32673684,20.6197895 8.94147368,20.5423158 C10.7334737,20.3166316 11.5166316,19.7877895 11.8416842,19.4509474 C12.1785263,19.2050526 12.4783158,18.9625263 12.7915789,18.72 C12.5305263,19.6766316 12.9667368,20.7191579 13.8829474,21.1823158 C14.1793684,21.3338947 14.5128421,21.4147368 14.8429474,21.4147368 C15.4307368,21.4147368 15.9696842,21.1705263 16.3637895,20.7663158 C16.5574737,21.0290526 16.8033684,21.2581053 17.1132632,21.4181053 C17.4113684,21.5646316 17.7431579,21.6454737 18.0749474,21.6454737 C18.88,21.6454737 19.6075789,21.1957895 19.9713684,20.4783158 L21.3810526,17.7027368 C21.6387368,17.1941053 21.6926316,16.6164211 21.5141053,16.0774737 C21.4568421,15.9023158 21.3658947,15.7389474 21.2648421,15.5873684 L30.0884211,15.5924211 C31.1107368,15.5924211 31.9444211,14.7604211 31.9461053,13.7397895 L31.9528421,2.07831579 C31.9545263,1.05263158 31.1242105,0.202105263 30.1018947,0.202105263 L30.1018947,0.202105263 Z M16.9633684,16.8623158 L15.5570526,19.6412632 C15.3667368,20.0252632 14.8715789,20.1886316 14.4858947,19.9949474 C14.0934737,19.7945263 13.9368421,19.3128421 14.1338947,18.9221053 L15.2909474,16.6433684 C15.2909474,16.6433684 15.6698947,15.7187368 16.2745263,15.7086316 C16.3924211,15.712 16.5069474,15.7372632 16.6147368,15.7928421 C16.8033684,15.8905263 16.9448421,16.0505263 17.0105263,16.2543158 C17.0778947,16.4581053 17.0644211,16.672 16.9633684,16.8623158 L16.9633684,16.8623158 Z M14.7469474,14.4185263 L13.4753684,15.584 L13.4871579,15.584 C12.6905263,16.2745263 11.7423158,17.0408421 10.5751579,17.9031579 C10.4875789,17.9671579 10.4808421,17.9604211 10.4185263,18.048 C10.4151579,18.0513684 10.0294737,18.3949474 8.69894737,18.56 C8.33515789,18.6054737 7.57389474,18.5987368 5.99915789,18.5987368 C4.62989474,18.5987368 2.92547368,18.6189474 1.99410526,18.5869474 L2.00926316,10.1894737 L8.26442105,4.70736842 C8.43284211,4.67536842 8.68884211,4.63831579 8.96673684,4.63831579 C9.37431579,4.63831579 9.65557895,4.71073684 9.80715789,4.86063158 L9.80715789,11.7928421 C9.80715789,12.1448421 9.99242105,12.4682105 10.2955789,12.6501053 C10.3309474,12.6703158 10.3713684,12.6669474 10.4084211,12.6837895 L10.4084211,12.7578947 L10.5010526,12.7107368 C10.7587368,12.7966316 11.0366316,12.8084211 11.2825263,12.672 C12.8370526,11.8298947 15.7827368,10.4909474 17.0661053,10.4909474 C17.1233684,10.4909474 17.1722105,10.4909474 17.2058947,10.4976842 C17.2109474,10.5094737 17.216,10.5162105 17.2227368,10.5263158 C17.2496842,10.6593684 17.3776842,11.8147368 14.7469474,14.4185263 L14.7469474,14.4185263 Z M20.192,17.0947368 L18.7856842,19.8736842 C18.5936842,20.2576842 18.0968421,20.4193684 17.7128421,20.2256842 C17.3221053,20.0286316 17.1671579,19.5452632 17.3642105,19.1545263 L18.7722105,16.3755789 C18.9086316,16.1061053 19.1797895,15.936 19.4829474,15.936 C19.6092632,15.936 19.7305263,15.968 19.8450526,16.0252632 C20.0370526,16.1229474 20.1768421,16.2863158 20.2408421,16.4850526 C20.3082105,16.6905263 20.2930526,16.9044211 20.192,17.0947368 L20.192,17.0947368 Z M30.7132632,13.7347368 C30.7115789,14.08 30.4353684,14.3528421 30.0951579,14.3528421 L17.504,14.3494737 C18.5330526,13.0795789 19.1242105,11.9410526 19.2218947,10.9541053 C19.2943158,10.1726316 19.0635789,9.67410526 18.8934737,9.42652632 C18.6829474,9.02905263 18.1877895,8.48842105 17.0661053,8.48842105 C15.5991579,8.48842105 13.312,9.44842105 11.8046316,10.1658947 L11.8046316,7.39873684 L30.7149474,7.39368421 L30.7132632,13.7347368 L30.7132632,13.7347368 Z M30.7149474,3.72884211 L11.6496842,3.72042105 L11.6496842,2.06315789 C11.6496842,1.72126316 11.9258947,1.44505263 12.2661053,1.44505263 L30.1018947,1.43157895 C30.4387368,1.43157895 30.72,1.73136842 30.72,2.07157895 L30.7149474,3.72884211 L30.7149474,3.72884211 Z" id="Shape"></path>
            <path d="M29.3103158,13.2075789 L29.2968421,11.5317895 L24.4143158,11.5284211 L24.4294737,13.2075789 L29.3103158,13.2075789 Z" id="Shape"></path>
        </g>
    </g>
</svg>