<?xml version="1.0" encoding="UTF-8" standalone="no"?>
<svg width="31px" height="31px" viewBox="0 0 31 31" version="1.1" xmlns="http://www.w3.org/2000/svg" xmlns:xlink="http://www.w3.org/1999/xlink">
    <!-- Generator: Sketch 3.6 (26304) - http://www.bohemiancoding.com/sketch -->
    <title>Shape</title>
    <desc>Created with Sketch.</desc>
    <defs></defs>
    <g id="Page-1" stroke="none" stroke-width="1" fill="none" fill-rule="evenodd">
        <path d="M2,30 L20,30 C21.104,30 22,29.104 22,28 L22,25.3 C22.426,25.096 22.824,24.852 23.198,24.57 L29.336,30.708 C29.532,30.904 29.788,31 30.044,31 C30.3,31 30.556,30.902 30.752,30.708 C31.142,30.318 31.142,29.684 30.752,29.294 L24.61,23.152 C25.472,21.988 26,20.56 26,19 C26,16.212 24.358,13.826 22,12.7 L22,2 C22,0.896 21.104,0 20,0 L2,0 C0.896,0 0,0.896 0,2 L0,28 C0,29.104 0.896,30 2,30 L2,30 Z M19,24 C16.244,24 14,21.756 14,19 C14,16.244 16.244,14 19,14 C21.756,14 24,16.244 24,19 C24,21.756 21.756,24 19,24 L19,24 Z M2,2 L20,2 L20,12 L5.286,12 C4.576,12 4,12.448 4,13 C4,13.552 4.576,14 5.286,14 L14.112,14 C13.038,15.048 12.326,16.444 12.1,18 L5,18 C4.448,18 4,18.448 4,19 C4,19.552 4.448,20 5,20 L12.1,20 C12.59,23.388 15.476,26 19,26 C19.342,26 19.67,25.946 20,25.9 L20,28 L2,28 L2,2 L2,2 Z M5,8 L17,8 C17.552,8 18,7.552 18,7 C18,6.448 17.552,6 17,6 L5,6 C4.448,6 4,6.448 4,7 C4,7.552 4.448,8 5,8 L5,8 Z" id="Shape" fill="#595959"></path>
    </g>
</svg>