<?xml version="1.0" encoding="UTF-8" standalone="no"?>
<svg width="32px" height="38px" viewBox="0 0 32 38" version="1.1" xmlns="http://www.w3.org/2000/svg" xmlns:xlink="http://www.w3.org/1999/xlink">
    <!-- Generator: Sketch 3.6 (26304) - http://www.bohemiancoding.com/sketch -->
    <title>Shape</title>
    <desc>Created with Sketch.</desc>
    <defs></defs>
    <g id="Page-1" stroke="none" stroke-width="1" fill="none" fill-rule="evenodd">
        <path d="M15.4422098,4.15478563 C15.1717683,4.31704372 14.9554151,4.47930181 14.6849736,4.61451689 C13.5220751,5.1824202 12.1428235,4.74973196 11.520808,3.61392534 C10.9258367,2.53220474 11.2503665,1.15301098 12.2780442,0.449892595 C13.3327661,-0.280268806 14.7390619,-0.0368816725 15.5774306,0.990752893 C15.9830928,1.47752716 16.4428434,1.9102154 16.9566822,2.28881761 C18.525243,3.45166725 19.4717882,4.96607608 19.4717882,6.96725918 C19.4988324,11.1048405 19.4717882,15.2965078 19.4717882,19.4881751 C19.4717882,20.9214549 18.7415962,22.0302185 17.7950509,23.003767 C16.1183136,24.761563 14.035914,25.8973696 11.6560288,26.4382299 C11.0881016,26.573445 10.8987926,26.7627461 10.8717484,27.3576924 C10.6824394,31.8197899 13.846605,35.3624248 18.1466249,35.4976399 C22.3384681,35.632855 25.6919428,32.2254351 25.6919428,27.7633376 C25.6919428,24.73452 25.6919428,21.7057023 25.7189869,18.6768846 C25.7189869,18.0819383 25.6108103,17.7574221 24.9617507,17.486992 C22.5277772,16.5134434 21.3107904,14.1607011 21.8246293,11.6457008 C22.2843798,9.32000148 24.3667794,7.61629154 26.7737088,7.58924852 C29.2888148,7.56220551 31.3441702,9.21182942 31.8850532,11.6997868 C32.3988921,14.0254861 31.1548611,16.4323144 28.8561084,17.4058629 C28.1800046,17.6762931 28.071828,18.0278523 28.071828,18.6768846 C28.0988722,21.8138743 28.1529605,24.9508641 28.071828,28.0878538 C27.9366073,32.2795211 25.9353401,35.4165108 22.0409825,37.0120487 C18.2277573,38.5805436 14.6579295,37.8774252 11.6289846,35.0649516 C9.49249675,33.1178546 8.51890734,30.6028542 8.62708395,27.7092516 C8.6541281,26.8979611 8.46481904,26.546402 7.59940623,26.3300578 C5.05725611,25.7621545 2.89372408,24.4640898 1.24403091,22.4629067 C0.405662254,21.4352721 0,20.2994655 0,18.9743578 C0.0270441503,15.1072067 0,11.2670985 0,7.39994742 C0,5.04720512 0.973589411,3.23532313 3.00190068,1.99134444 C3.32643049,1.80204334 3.56982784,1.47752716 3.78618104,1.180054 C4.5704614,0.0172043573 5.97675722,-0.334354836 7.08556738,0.341720536 C8.16733339,0.990752893 8.57299564,2.4510757 7.95098019,3.55983931 C7.30192058,4.77677498 5.86858061,5.20946321 4.6245497,4.47930181 C4.05662254,4.12774262 3.62391614,4.20887166 3.35347464,4.66860292 C2.97485653,5.39876432 2.43397353,6.21005476 2.40692938,6.9943022 C2.32579693,11.1048405 2.35284108,15.2153787 2.40692938,19.298874 C2.40692938,19.8667773 2.67737088,20.5428526 3.05598898,20.9484979 C7.00443493,25.3835523 12.413265,25.4376383 16.4428434,20.9755409 C16.8485056,20.5158096 17.091903,19.7586052 17.091903,19.1095729 C17.1459913,15.1342497 17.1189471,11.1859695 17.1189471,7.21064631 C17.1189471,5.9125816 16.6051083,4.85790402 15.4422098,4.15478563 M29.6403887,12.7544644 C29.6674329,11.1859695 28.4504461,9.9149478 26.8818854,9.88790479 C25.367413,9.86086177 24.0422496,11.1318835 24.0152055,12.6462923 C23.9881613,14.1877442 25.2321922,15.4587659 26.8007529,15.4858089 C28.3693137,15.5128519 29.6133446,14.3229592 29.6403887,12.7544644" id="Shape" fill="#FFFFFF"></path>
    </g>
</svg>