<?xml version="1.0" encoding="UTF-8" standalone="no"?>
<svg width="32px" height="22px" viewBox="0 0 32 22" version="1.1" xmlns="http://www.w3.org/2000/svg" xmlns:xlink="http://www.w3.org/1999/xlink">
    <!-- Generator: Sketch 3.6 (26304) - http://www.bohemiancoding.com/sketch -->
    <title>Shape</title>
    <desc>Created with Sketch.</desc>
    <defs></defs>
    <g id="Page-1" stroke="none" stroke-width="1" fill="none" fill-rule="evenodd">
        <path d="M31.4459289,3.67377461 C31.0542966,2.05461255 29.6620731,0.861321907 27.9868805,0.683107899 C24.0190065,0.261133669 20.0032913,-0.00211304839 16.0046356,1.27789297e-05 C12.0059801,-0.00211304839 7.98989388,0.261133669 4.02164914,0.683107899 C2.34645648,0.861321907 0.954974783,2.05461255 0.563713265,3.67377461 C0.00704640603,5.97886633 0,8.49476781 0,10.8685941 C0,13.242066 0,15.7579675 0.557037706,18.0634136 C0.948670086,19.6811585 2.3401518,20.8758661 4.01534446,21.0530174 C7.98321839,21.4749916 11.9989337,21.7382383 15.9979601,21.7364667 C19.9966156,21.7382383 24.0127018,21.475346 27.9802048,21.0530174 C29.6557684,20.875512 31.0476209,19.6811585 31.4392534,18.0634136 C31.9959202,15.7579675 31.9999997,13.242066 31.9999997,10.8685941 C31.9999997,8.49512215 32.0029665,5.97886633 31.4459289,3.67377461 M21.4559655,11.572593 L13.9125919,15.4688569 C13.1627049,15.8564637 12.548925,15.5067672 12.548925,14.6925802 L12.548925,7.04425363 C12.548925,6.22971245 13.1623339,5.88001587 13.9125919,6.26762278 L21.4559655,10.1642409 C22.2062233,10.5511391 22.2062233,11.1853404 21.4559655,11.572593" id="Shape" fill="#FFFFFF"></path>
    </g>
</svg>