<?xml version="1.0" encoding="UTF-8" standalone="no"?>
<svg width="32px" height="37px" viewBox="0 0 32 37" version="1.1" xmlns="http://www.w3.org/2000/svg" xmlns:xlink="http://www.w3.org/1999/xlink">
    <!-- Generator: Sketch 3.6 (26304) - http://www.bohemiancoding.com/sketch -->
    <title>Shape</title>
    <desc>Created with Sketch.</desc>
    <defs></defs>
    <g id="Page-1" stroke="none" stroke-width="1" fill="none" fill-rule="evenodd">
        <path d="M2.28571429,32 L4.57142857,32 L4.57142857,34.2857143 C4.57142857,35.5474286 5.59542857,36.5714286 6.85714286,36.5714286 L29.7142857,36.5714286 C30.976,36.5714286 32,35.5474286 32,34.2857143 L32,6.85714286 C32,5.59542857 30.976,4.57142857 29.7142857,4.57142857 L27.4285714,4.57142857 L27.4285714,2.28571429 C27.4285714,1.024 26.4045714,0 25.1428571,0 L2.28571429,0 C1.024,0 0,1.024 0,2.28571429 L0,29.7142857 C0,30.976 1.024,32 2.28571429,32 L2.28571429,32 Z M25.1428571,29.7142857 L2.28571429,29.7142857 L2.28571429,2.28571429 L25.1428571,2.28571429 L25.1428571,29.7142857 L25.1428571,29.7142857 Z M29.7142857,6.85714286 L29.7142857,34.2857143 L6.85714286,34.2857143 L6.85714286,32 L25.1428571,32 C26.4045714,32 27.4285714,30.976 27.4285714,29.7142857 L27.4285714,6.85714286 L29.7142857,6.85714286 L29.7142857,6.85714286 Z M9.14285714,8 C9.14285714,8.63085714 9.65485714,9.14285714 10.2857143,9.14285714 L21.7142857,9.14285714 C22.3451429,9.14285714 22.8571429,8.63085714 22.8571429,8 C22.8571429,7.36914286 22.3451429,6.85714286 21.7142857,6.85714286 L10.2857143,6.85714286 C9.65485714,6.85714286 9.14285714,7.36914286 9.14285714,8 L9.14285714,8 Z M5.71428571,16 L21.7142857,16 C22.3451429,16 22.8571429,15.488 22.8571429,14.8571429 C22.8571429,14.2262857 22.3451429,13.7142857 21.7142857,13.7142857 L5.71428571,13.7142857 C5.08342857,13.7142857 4.57142857,14.2262857 4.57142857,14.8571429 C4.57142857,15.488 5.08342857,16 5.71428571,16 L5.71428571,16 Z M5.71428571,20.5714286 L21.7142857,20.5714286 C22.3451429,20.5714286 22.8571429,20.0594286 22.8571429,19.4285714 C22.8571429,18.7977143 22.3451429,18.2857143 21.7142857,18.2857143 L5.71428571,18.2857143 C5.08342857,18.2857143 4.57142857,18.7977143 4.57142857,19.4285714 C4.57142857,20.0594286 5.08342857,20.5714286 5.71428571,20.5714286 L5.71428571,20.5714286 Z M5.71428571,25.1428571 L21.7142857,25.1428571 C22.3451429,25.1428571 22.8571429,24.6308571 22.8571429,24 C22.8571429,23.3691429 22.3451429,22.8571429 21.7142857,22.8571429 L5.71428571,22.8571429 C5.08342857,22.8571429 4.57142857,23.3691429 4.57142857,24 C4.57142857,24.6308571 5.08342857,25.1428571 5.71428571,25.1428571 L5.71428571,25.1428571 Z" id="Shape" fill="#5789C7"></path>
    </g>
</svg>