<?xml version="1.0" encoding="UTF-8" standalone="no"?>
<svg width="32px" height="34px" viewBox="0 0 32 34" version="1.1" xmlns="http://www.w3.org/2000/svg" xmlns:xlink="http://www.w3.org/1999/xlink">
    <!-- Generator: Sketch 3.6 (26304) - http://www.bohemiancoding.com/sketch -->
    <title>Group</title>
    <desc>Created with Sketch.</desc>
    <defs></defs>
    <g id="Page-1" stroke="none" stroke-width="1" fill="none" fill-rule="evenodd">
        <g id="Group" fill="#FFFFFF">
            <path d="M7.95294118,3.08235294 L7.95294118,1.45882353 C7.95294118,0.635294118 8.54117647,0 9.31764706,0 C10.0941176,0 10.6823529,0.611764706 10.7058824,1.43529412 L10.7058824,3.05882353 L20.7764706,3.05882353 L20.7764706,2.18823529 C20.7764706,1.88235294 20.7764706,1.57647059 20.8,1.29411765 C20.8705882,0.541176471 21.4588235,2.08983158e-16 22.1882353,2.08983158e-16 C22.9411765,0.0235294118 23.5058824,0.588235294 23.5529412,1.34117647 C23.5764706,1.62352941 23.5529412,1.90588235 23.5529412,2.18823529 L23.5529412,3.05882353 C23.6941176,3.05882353 23.8117647,3.08235294 23.9294118,3.08235294 C25.3176471,3.08235294 26.7294118,3.03529412 28.1176471,3.12941176 C30.1411765,3.24705882 31.7647059,4.96470588 31.8588235,6.98823529 L31.8588235,7.36470588 L31.8588235,29.1529412 C31.8588235,31.0588235 30.8235294,32.6117647 29.1058824,33.2 C28.6117647,33.3647059 28.0941176,33.4588235 27.5764706,33.4588235 C19.8352941,33.4823529 12.0941176,33.4823529 4.32941176,33.4588235 C2.18823529,33.4588235 0.564705882,32.1882353 0.0941176471,30.1882353 C0.0235294118,29.9058824 -1.77635684e-15,29.6 -1.77635684e-15,29.2941176 L-1.77635684e-15,7.15294118 C0.0235294118,4.94117647 1.88235294,3.08235294 4.07058824,3.08235294 L7.52941176,3.08235294 L7.95294118,3.08235294 L7.95294118,3.08235294 Z M2.77647059,14.4235294 L2.77647059,14.7529412 L2.77647059,29.0588235 C2.77647059,29.2 2.77647059,29.3411765 2.8,29.4588235 C2.89411765,30.1882353 3.43529412,30.6588235 4.16470588,30.6588235 L27.7411765,30.6588235 C27.9529412,30.6588235 28.2117647,30.5882353 28.4,30.4941176 C28.9647059,30.2117647 29.1058824,29.6941176 29.1058824,29.1058824 L29.1058824,14.7764706 C29.1058824,14.6588235 29.1058824,14.5647059 29.0823529,14.4235294 L2.77647059,14.4235294 L2.77647059,14.4235294 Z M23.5058824,5.85882353 C23.5058824,6.49411765 23.5764706,7.08235294 23.4823529,7.64705882 C23.3647059,8.61176471 22.2352941,9.08235294 21.4117647,8.56470588 C20.9176471,8.25882353 20.7529412,7.78823529 20.7529412,7.24705882 L20.7529412,5.88235294 L10.7058824,5.88235294 L10.7058824,7.29411765 C10.7058824,8.16470588 10.1176471,8.77647059 9.31764706,8.77647059 C8.51764706,8.77647059 7.95294118,8.16470588 7.95294118,7.31764706 L7.95294118,5.88235294 C7.83529412,5.88235294 7.76470588,5.85882353 7.69411765,5.85882353 L4.25882353,5.85882353 C3.34117647,5.85882353 2.8,6.42352941 2.8,7.31764706 L2.8,11.3176471 C2.8,11.4117647 2.8,11.5058824 2.82352941,11.6235294 L29.0823529,11.6235294 L29.0823529,11.2705882 L29.0823529,7.29411765 C29.0823529,6.37647059 28.5411765,5.83529412 27.6235294,5.83529412 L23.9058824,5.83529412 C23.7882353,5.85882353 23.6941176,5.85882353 23.5058824,5.85882353 L23.5058824,5.85882353 Z" id="Shape"></path>
            <path d="M9.74117638,27.4823529 L7.31764703,27.4823529 C6.49411763,27.4823529 5.88235294,26.8941176 5.88235294,26.1176471 C5.88235294,25.3176471 6.47058822,24.7058824 7.31764703,24.7058824 L12.2823528,24.7058824 C13.1058822,24.7058824 13.7176469,25.3176471 13.7176469,26.1176471 C13.7176469,26.8941176 13.1058822,27.4588235 12.2823528,27.4823529 L9.74117638,27.4823529" id="Shape"></path>
            <path d="M14.5828054,20.8941176 L7.31221719,20.8941176 C6.7239819,20.8941176 6.25339367,20.6352941 6.01809955,20.0705882 C5.78280543,19.5294118 5.85339367,19.0352941 6.22986425,18.5882353 C6.53574661,18.2352941 6.93574661,18.1176471 7.40633484,18.1176471 L15.9239819,18.1176471 L21.8063348,18.1176471 C22.8886878,18.1176471 23.5475113,19.1058824 23.1475113,20.0470588 C22.8886878,20.6117647 22.4180995,20.8941176 21.8063348,20.8941176 L14.5828054,20.8941176" id="Shape"></path>
        </g>
    </g>
</svg>