<?xml version="1.0" encoding="utf-8"?>
<!-- Generator: Adobe Illustrator 24.1.0, SVG Export Plug-In . SVG Version: 6.00 Build 0)  -->
<svg version="1.1" id="Layer_1" xmlns="http://www.w3.org/2000/svg" xmlns:xlink="http://www.w3.org/1999/xlink" x="0px" y="0px"
	 viewBox="0 0 32 21" style="enable-background:new 0 0 32 21;" xml:space="preserve">
<style type="text/css">
	.st0{fill:#5789C7;enable-background:new    ;}
	.st1{fill:#5789C7;}
</style>
<g>
	<g>
		<path class="st0" d="M17.4,9c0.6-0.1,1.1-0.4,1.5-0.8c0.4-0.4,0.7-0.9,0.8-1.5c-0.6,0.1-1.1,0.4-1.5,0.8C17.8,8,17.5,8.5,17.4,9"
			/>
		<path class="st0" d="M17.4,12c0.6,0.1,1.1,0.4,1.5,0.8c0.4,0.4,0.7,0.9,0.8,1.5c-0.6-0.1-1.1-0.4-1.5-0.8
			C17.8,13,17.5,12.5,17.4,12"/>
		<path class="st0" d="M16,12.5c0.3,0.4,0.5,1,0.5,1.6c0,0.6-0.2,1.2-0.5,1.6c-0.3-0.4-0.5-1-0.5-1.6C15.4,13.6,15.6,13,16,12.5"/>
		<path class="st0" d="M16,8.5c0.3-0.4,0.5-1,0.5-1.6S16.3,5.7,16,5.3c-0.3,0.4-0.5,1-0.5,1.6C15.4,7.4,15.6,8,16,8.5"/>
		<path class="st0" d="M18,10.5c0.4-0.3,1-0.5,1.6-0.5s1.2,0.2,1.6,0.5c-0.4,0.3-1,0.5-1.6,0.5S18.5,10.8,18,10.5"/>
		<path class="st0" d="M16.7,12.4c0.5,0.3,0.9,0.7,1.1,1.3c0.2,0.6,0.2,1.2,0.1,1.7c-0.5-0.3-0.9-0.7-1.1-1.3
			C16.7,13.5,16.6,13,16.7,12.4"/>
		<path class="st0" d="M16.7,8.6c0.5-0.3,0.9-0.7,1.1-1.3c0.2-0.6,0.2-1.2,0.1-1.7c-0.5,0.3-0.9,0.7-1.1,1.3
			C16.7,7.5,16.6,8,16.7,8.6"/>
		<path class="st0" d="M17.9,9.7c0.6,0.1,1.1,0.1,1.7-0.1c0.6-0.2,1-0.6,1.3-1.1c-0.6-0.1-1.1-0.1-1.7,0.1
			C18.7,8.8,18.2,9.3,17.9,9.7"/>
		<path class="st0" d="M17.9,11.3c0.6-0.1,1.1-0.1,1.7,0.1c0.6,0.2,1,0.6,1.3,1.1c-0.6,0.1-1.1,0.1-1.7-0.1
			C18.7,12.2,18.2,11.7,17.9,11.3"/>
		<path class="st1" d="M10.5,4.6c-0.2-0.2-0.4-0.5-0.4-0.8s0.1-0.6,0.4-0.8c0.2,0.2,0.4,0.5,0.4,0.8S10.7,4.4,10.5,4.6"/>
		<path class="st1" d="M10.1,5C9.9,4.8,9.6,4.6,9.3,4.6S8.7,4.8,8.5,5C8.7,5.3,9,5.4,9.3,5.4C9.6,5.3,9.9,5.2,10.1,5"/>
		<path class="st0" d="M14.6,9c-0.6-0.1-1.1-0.4-1.5-0.8c-0.4-0.4-0.7-0.9-0.8-1.5c0.6,0.1,1.1,0.4,1.5,0.8C14.2,8,14.5,8.5,14.6,9"
			/>
		<path class="st0" d="M14.6,12c-0.6,0.1-1.1,0.4-1.5,0.8c-0.4,0.4-0.7,0.9-0.8,1.5c0.6-0.1,1.1-0.4,1.5-0.8
			C14.2,13,14.5,12.5,14.6,12"/>
		<path class="st0" d="M14,10.5c-0.4-0.3-1-0.5-1.6-0.5s-1.2,0.2-1.6,0.5c0.4,0.3,1,0.5,1.6,0.5S13.5,10.8,14,10.5"/>
		<path class="st0" d="M15.3,12.4c-0.5,0.3-0.9,0.7-1.1,1.3c-0.2,0.6-0.2,1.2-0.1,1.7c0.5-0.3,0.9-0.7,1.1-1.3
			C15.3,13.5,15.4,13,15.3,12.4"/>
		<path class="st0" d="M15.3,8.6c-0.5-0.3-0.9-0.7-1.1-1.3c-0.2-0.6-0.2-1.2-0.1-1.7c0.5,0.3,0.9,0.7,1.1,1.3
			C15.3,7.5,15.4,8,15.3,8.6"/>
		<path class="st0" d="M14.1,9.7c-0.6,0.1-1.1,0.1-1.7-0.1c-0.6-0.2-1-0.6-1.3-1.1c0.6-0.1,1.1-0.1,1.7,0.1
			C13.4,8.8,13.8,9.3,14.1,9.7"/>
		<path class="st1" d="M10.5,4.6c-0.2-0.2-0.4-0.5-0.4-0.8s0.1-0.6,0.4-0.8c0.2,0.2,0.4,0.5,0.4,0.8S10.7,4.4,10.5,4.6"/>
		<path class="st1" d="M10.1,5C9.9,4.8,9.6,4.6,9.3,4.6S8.7,4.8,8.5,5C8.7,5.3,9,5.4,9.3,5.4C9.6,5.3,9.9,5.2,10.1,5"/>
		<path class="st1" d="M21.5,4.6c0.2-0.2,0.4-0.5,0.4-0.8S21.7,3.2,21.5,3c-0.2,0.2-0.4,0.5-0.4,0.8S21.3,4.4,21.5,4.6"/>
		<path class="st1" d="M21.9,5c0.2-0.2,0.5-0.4,0.8-0.4c0.3,0,0.6,0.1,0.8,0.4c-0.2,0.2-0.5,0.4-0.8,0.4C22.4,5.3,22.1,5.2,21.9,5"
			/>
		<path class="st1" d="M22.8,3c-0.2,0.2-0.4,0.6-0.4,1c0.4,0,0.7-0.1,1-0.4c-0.1-0.1-0.2-0.2-0.3-0.4C23.1,3.2,23,3.1,22.8,3"/>
		<path class="st1" d="M21.5,16.4c0.2,0.2,0.4,0.5,0.4,0.8c0,0.3-0.1,0.6-0.4,0.8c-0.2-0.2-0.4-0.5-0.4-0.8
			C21.1,16.9,21.3,16.6,21.5,16.4"/>
		<path class="st1" d="M21.9,16c0.2,0.2,0.5,0.4,0.8,0.4c0.3,0,0.6-0.1,0.8-0.4c-0.2-0.2-0.5-0.4-0.8-0.4
			C22.4,15.7,22.1,15.8,21.9,16"/>
		<path class="st1" d="M22.8,18c-0.2-0.2-0.4-0.6-0.4-1c0.4,0,0.7,0.1,1,0.4c-0.1,0.1-0.2,0.2-0.3,0.4C23.1,17.8,23,17.9,22.8,18"/>
		<path class="st1" d="M15.7,18.6c0,0.3-0.1,0.6-0.3,0.8c-0.2,0.2-0.5,0.3-0.8,0.3c0-0.3,0.1-0.6,0.3-0.8
			C15.1,18.7,15.4,18.6,15.7,18.6"/>
		<path class="st1" d="M16.2,18.6c0,0.3,0.1,0.6,0.3,0.8c0.2,0.2,0.5,0.3,0.8,0.3c0-0.3-0.1-0.6-0.3-0.8
			C16.8,18.7,16.6,18.6,16.2,18.6"/>
		<path class="st1" d="M15.6,20.7c0-0.4,0.2-0.7,0.4-0.9c0.2,0.2,0.4,0.6,0.4,0.9c-0.1,0.1-0.3,0.1-0.4,0.1
			C15.9,20.7,15.7,20.7,15.6,20.7"/>
		<path class="st1" d="M15.7,2.4c0-0.3-0.1-0.6-0.3-0.8c-0.2-0.2-0.5-0.3-0.8-0.3c0,0.3,0.1,0.6,0.3,0.8C15.1,2.3,15.4,2.4,15.7,2.4
			"/>
		<path class="st1" d="M16.2,2.4c0-0.3,0.1-0.6,0.3-0.8c0.2-0.2,0.6-0.3,0.8-0.3c0,0.3-0.1,0.6-0.3,0.8S16.6,2.4,16.2,2.4"/>
		<path class="st1" d="M15.6,0.3c0,0.4,0.2,0.7,0.4,0.9c0.2-0.2,0.4-0.5,0.4-0.9c-0.1-0.1-0.3-0.1-0.4-0.1
			C15.9,0.3,15.7,0.3,15.6,0.3"/>
		<path class="st1" d="M21.5,4.6c0.2-0.2,0.4-0.5,0.4-0.8S21.7,3.2,21.5,3c-0.2,0.2-0.4,0.5-0.4,0.8S21.3,4.4,21.5,4.6"/>
		<path class="st1" d="M21.9,5c0.2-0.2,0.5-0.4,0.8-0.4c0.3,0,0.6,0.1,0.8,0.4c-0.2,0.2-0.5,0.4-0.8,0.4C22.4,5.3,22.1,5.2,21.9,5"
			/>
		<path class="st1" d="M22.8,3c-0.2,0.2-0.4,0.6-0.4,1c0.4,0,0.7-0.1,1-0.4c-0.1-0.1-0.2-0.2-0.3-0.4C23.1,3.2,23,3.1,22.8,3"/>
		<path class="st1" d="M24.1,10.8c0.3,0,0.6,0.1,0.8,0.3c0.2,0.2,0.3,0.5,0.3,0.8c-0.3,0-0.6-0.1-0.8-0.3S24,11.1,24.1,10.8"/>
		<path class="st1" d="M24.1,10.2c0.3,0,0.6-0.1,0.8-0.3c0.2-0.2,0.3-0.5,0.3-0.8c-0.3,0-0.6,0.1-0.8,0.3C24.1,9.6,24,9.9,24.1,10.2
			"/>
		<path class="st1" d="M26.1,10.9c-0.4,0-0.7-0.2-0.9-0.4c0.2-0.2,0.6-0.4,0.9-0.4c0.1,0.1,0.1,0.3,0.1,0.4
			C26.2,10.6,26.2,10.8,26.1,10.9"/>
		<path class="st1" d="M18.8,18.1c0.1,0.2,0.1,0.6,0,0.9c-0.1,0.3-0.4,0.5-0.6,0.6c-0.1-0.2-0.1-0.6,0-0.9
			C18.3,18.4,18.5,18.2,18.8,18.1"/>
		<path class="st1" d="M19.3,17.8c0.1,0.2,0.3,0.5,0.6,0.6c0.3,0.1,0.6,0.1,0.9,0c-0.1-0.2-0.3-0.5-0.6-0.6
			C19.9,17.7,19.6,17.7,19.3,17.8"/>
		<path class="st1" d="M19.5,20.1c-0.1-0.4-0.1-0.7,0.1-1c0.3,0.1,0.6,0.4,0.8,0.7c-0.1,0.1-0.2,0.2-0.4,0.2
			C19.8,20,19.6,20,19.5,20.1"/>
		<path class="st1" d="M18.8,2.9C19,2.7,19,2.4,18.8,2s-0.4-0.5-0.6-0.6c-0.1,0.2-0.1,0.6,0,0.9C18.3,2.6,18.5,2.8,18.8,2.9"/>
		<path class="st1" d="M19.3,3.2c0.1-0.2,0.3-0.5,0.6-0.6c0.3-0.1,0.6-0.1,0.9,0c-0.1,0.2-0.3,0.5-0.6,0.6
			C19.9,3.3,19.6,3.3,19.3,3.2"/>
		<path class="st1" d="M19.5,0.9c-0.1,0.4-0.1,0.7,0.1,1c0.3-0.1,0.6-0.4,0.8-0.7c-0.1-0.1-0.2-0.2-0.4-0.2C19.8,1,19.6,1,19.5,0.9"
			/>
		<path class="st1" d="M23.3,7.2C23.6,7,23.8,6.9,24,6.6c0.1-0.3,0.1-0.6,0-0.9c-0.2,0.1-0.5,0.3-0.6,0.6
			C23.2,6.6,23.2,6.9,23.3,7.2"/>
		<path class="st1" d="M23.6,7.7c0.2-0.1,0.6-0.1,0.9,0c0.3,0.1,0.5,0.4,0.6,0.6c-0.2,0.1-0.6,0.1-0.9,0C23.8,8.2,23.7,7.9,23.6,7.7
			"/>
		<path class="st1" d="M25.2,6.2c-0.4,0.2-0.6,0.4-0.7,0.8c0.3,0.1,0.7,0.2,1,0.1c0-0.1-0.1-0.3-0.1-0.4C25.4,6.4,25.3,6.3,25.2,6.2
			"/>
		<path class="st1" d="M23.3,13.8c0.2,0.1,0.5,0.3,0.6,0.6c0.1,0.3,0.1,0.6,0,0.9c-0.2-0.1-0.5-0.3-0.6-0.6
			C23.2,14.4,23.2,14.1,23.3,13.8"/>
		<path class="st1" d="M23.6,13.3c0.2,0.1,0.6,0.1,0.9,0c0.3-0.1,0.5-0.4,0.6-0.6c-0.2-0.1-0.6-0.1-0.9,0
			C23.8,12.8,23.7,13,23.6,13.3"/>
		<path class="st1" d="M25.2,14.8c-0.4-0.2-0.6-0.4-0.7-0.8c0.3-0.1,0.7-0.2,1-0.1c0,0.1-0.1,0.3-0.1,0.4
			C25.4,14.6,25.3,14.7,25.2,14.8"/>
		<path class="st1" d="M9.2,3c0.2,0.2,0.4,0.6,0.4,1c-0.4,0-0.7-0.1-1-0.4c0.1-0.1,0.2-0.2,0.3-0.4C8.9,3.2,9,3.1,9.2,3"/>
		<path class="st1" d="M10.5,16.4c-0.2,0.2-0.4,0.5-0.4,0.8c0,0.3,0.1,0.6,0.4,0.8c0.2-0.2,0.4-0.5,0.4-0.8
			C10.9,16.9,10.7,16.6,10.5,16.4"/>
		<path class="st1" d="M10.1,16c-0.2,0.2-0.5,0.4-0.8,0.4S8.7,16.2,8.5,16c0.2-0.2,0.5-0.4,0.8-0.4C9.6,15.7,9.9,15.8,10.1,16"/>
		<path class="st1" d="M9.2,18c0.2-0.2,0.4-0.6,0.4-1c-0.4,0-0.7,0.1-1,0.4c0.1,0.1,0.2,0.2,0.3,0.4C8.9,17.8,9,17.9,9.2,18"/>
		<path class="st1" d="M9.2,3c0.2,0.2,0.4,0.6,0.4,1c-0.4,0-0.7-0.1-1-0.4c0.1-0.1,0.2-0.2,0.3-0.4C8.9,3.2,9,3.1,9.2,3"/>
		<path class="st1" d="M7.9,10.8c-0.3,0-0.6,0.1-0.8,0.3c-0.2,0.2-0.3,0.5-0.3,0.8c0.3,0,0.6-0.1,0.8-0.3C7.9,11.4,8,11.1,7.9,10.8"
			/>
		<path class="st1" d="M7.9,10.2c-0.3,0-0.6-0.1-0.8-0.3C6.9,9.6,6.8,9.4,6.8,9.1c0.3,0,0.6,0.1,0.8,0.3C7.9,9.6,8,9.9,7.9,10.2"/>
		<path class="st1" d="M5.9,10.9c0.4,0,0.7-0.2,0.9-0.4c-0.2-0.2-0.6-0.4-0.9-0.4c-0.1,0.1-0.1,0.3-0.1,0.4
			C5.8,10.6,5.8,10.8,5.9,10.9"/>
		<path class="st1" d="M13.2,18.1c-0.1,0.2-0.1,0.6,0,0.9c0.1,0.3,0.4,0.5,0.6,0.6c0.1-0.2,0.1-0.6,0-0.9
			C13.7,18.4,13.5,18.2,13.2,18.1"/>
		<path class="st1" d="M12.7,17.8c-0.1,0.2-0.3,0.5-0.6,0.6c-0.3,0.1-0.6,0.1-0.9,0c0.1-0.2,0.3-0.5,0.6-0.6
			C12.1,17.7,12.4,17.7,12.7,17.8"/>
		<path class="st1" d="M12.5,20.1c0.1-0.4,0.1-0.7-0.1-1c-0.3,0.1-0.6,0.4-0.8,0.7c0.1,0.1,0.2,0.2,0.4,0.2
			C12.2,20,12.4,20,12.5,20.1"/>
		<path class="st1" d="M13.2,2.9C13,2.7,13,2.4,13.2,2c0.1-0.3,0.4-0.5,0.6-0.6c0.1,0.2,0.1,0.6,0,0.9C13.7,2.6,13.5,2.8,13.2,2.9"
			/>
		<path class="st1" d="M12.7,3.2c-0.1-0.2-0.3-0.5-0.6-0.6c-0.3-0.1-0.6-0.1-0.9,0c0.1,0.2,0.3,0.5,0.6,0.6
			C12.1,3.3,12.4,3.3,12.7,3.2"/>
		<path class="st1" d="M12.5,0.9c0.1,0.4,0.1,0.7-0.1,1c-0.3-0.1-0.6-0.4-0.8-0.7c0.1-0.1,0.2-0.2,0.4-0.2C12.2,1,12.4,1,12.5,0.9"
			/>
		<path class="st1" d="M8.7,7.2C8.4,7,8.2,6.9,8,6.6C7.9,6.2,7.9,5.9,8,5.7C8.3,5.8,8.5,6,8.7,6.3C8.8,6.6,8.8,6.9,8.7,7.2"/>
		<path class="st1" d="M8.5,7.7c-0.2-0.1-0.6-0.1-0.9,0C7.3,7.8,7.1,8,7,8.3c0.2,0.1,0.6,0.1,0.9,0S8.3,7.9,8.5,7.7"/>
		<path class="st1" d="M6.8,6.2C7.2,6.4,7.4,6.6,7.5,7C7.2,7.1,6.8,7.2,6.4,7c0-0.1,0.1-0.3,0.1-0.4C6.7,6.4,6.7,6.3,6.8,6.2"/>
		<path class="st1" d="M8.7,13.8C8.4,14,8.2,14.1,8,14.4c-0.1,0.3-0.1,0.6,0,0.9c0.2-0.1,0.5-0.3,0.6-0.6
			C8.8,14.4,8.8,14.1,8.7,13.8"/>
		<path class="st1" d="M8.5,13.3c-0.2,0.1-0.6,0.1-0.9,0S7.1,13,7,12.7c0.2-0.1,0.6-0.1,0.9,0S8.3,13,8.5,13.3"/>
		<path class="st1" d="M6.8,14.8c0.4-0.2,0.6-0.4,0.7-0.8c-0.3-0.1-0.7-0.2-1-0.1c0,0.1,0.1,0.3,0.1,0.4C6.7,14.6,6.7,14.7,6.8,14.8
			"/>
		<path class="st0" d="M20.2,6.3c0.3,0.3,0.8,0.3,1,0c0.3-0.3,0.3-0.8,0-1c-0.3-0.3-0.8-0.3-1,0C19.9,5.5,19.9,6,20.2,6.3"/>
		<g>
			<g>
				<path class="st1" d="M20.2,14.7c0.3-0.3,0.8-0.3,1,0c0.3,0.3,0.3,0.8,0,1c-0.3,0.3-0.8,0.3-1,0C19.9,15.5,19.9,15,20.2,14.7"/>
			</g>
		</g>
		<path class="st0" d="M16,16.4c0.4,0,0.7,0.4,0.7,0.7c0,0.4-0.4,0.7-0.7,0.7c-0.4,0-0.7-0.4-0.7-0.7C15.2,16.8,15.6,16.4,16,16.4"
			/>
		<path class="st0" d="M16,4.6c0.4,0,0.7-0.4,0.7-0.7S16.4,3,16,3c-0.4,0-0.8,0.4-0.8,0.7S15.6,4.6,16,4.6"/>
		<path class="st0" d="M21.9,10.5c0-0.4,0.4-0.7,0.7-0.7c0.4,0,0.7,0.4,0.7,0.7c0,0.4-0.4,0.7-0.7,0.7
			C22.2,11.2,21.9,10.9,21.9,10.5"/>
		<path class="st0" d="M18.3,16c0.4-0.2,0.9,0,1,0.4c0.2,0.4,0,0.9-0.4,1c-0.4,0.2-0.9,0-1-0.4C17.7,16.5,17.9,16.1,18.3,16"/>
		<path class="st0" d="M18.3,5c0.4,0.2,0.9,0,1-0.4c0.2-0.4,0-0.9-0.4-1c-0.4-0.2-0.9,0-1,0.4C17.7,4.4,17.9,4.9,18.3,5"/>
		<path class="st0" d="M21.5,8.2c0.2,0.4,0.6,0.6,1,0.4c0.4-0.2,0.6-0.6,0.4-1c-0.2-0.4-0.6-0.6-1-0.4C21.5,7.4,21.3,7.8,21.5,8.2"
			/>
		<path class="st0" d="M21.5,12.8c0.2-0.4,0.6-0.6,1-0.4c0.4,0.2,0.6,0.6,0.4,1c-0.2,0.4-0.6,0.6-1,0.4
			C21.5,13.6,21.3,13.2,21.5,12.8"/>
		<path class="st0" d="M11.8,6.3c-0.3,0.3-0.8,0.3-1,0c-0.3-0.3-0.3-0.8,0-1c0.3-0.3,0.8-0.3,1,0C12.1,5.5,12.1,6,11.8,6.3"/>
		<path class="st0" d="M11.8,14.7c-0.3-0.3-0.8-0.3-1,0c-0.2,0.3-0.3,0.8,0,1c0.3,0.3,0.8,0.3,1,0C12.1,15.5,12.1,15,11.8,14.7"/>
		<path class="st0" d="M10.1,10.5c0-0.4-0.4-0.7-0.7-0.7c-0.4,0-0.7,0.4-0.7,0.7c0,0.4,0.4,0.7,0.7,0.7
			C9.8,11.2,10.1,10.9,10.1,10.5"/>
		<path class="st0" d="M13.8,16c-0.4-0.2-0.9,0-1,0.4c-0.2,0.4,0,0.9,0.4,1c0.4,0.2,0.9,0,1-0.4C14.3,16.6,14.1,16.1,13.8,16"/>
		<path class="st0" d="M13.8,5c-0.4,0.2-0.9,0-1-0.4c-0.2-0.4,0-0.9,0.4-1c0.4-0.2,0.9,0,1,0.4C14.3,4.4,14.1,4.9,13.8,5"/>
		<path class="st0" d="M10.6,8.2c-0.2,0.4-0.6,0.6-1,0.4C9.2,8.5,9,8,9.2,7.7c0.2-0.4,0.6-0.6,1-0.4C10.5,7.4,10.7,7.8,10.6,8.2"/>
		<path class="st0" d="M10.6,12.8c-0.2-0.4-0.6-0.6-1-0.4c-0.4,0.2-0.6,0.6-0.4,1c0.2,0.4,0.6,0.6,1,0.4
			C10.5,13.6,10.7,13.2,10.6,12.8"/>
		<path class="st0" d="M14.1,11.3c-0.6-0.1-1.1-0.1-1.7,0.1c-0.6,0.2-1,0.6-1.3,1.1c0.6,0.1,1.1,0.1,1.7-0.1
			C13.4,12.2,13.8,11.7,14.1,11.3"/>
		<path class="st1" d="M16.1,11.6c0.6,0,1.1-0.5,1.1-1.1s-0.5-1.1-1.1-1.1c-0.6,0-1.1,0.5-1.1,1.1C15,11.1,15.5,11.6,16.1,11.6"/>
	</g>
</g>
</svg>
