<?xml version="1.0" encoding="UTF-8" standalone="no"?>
<svg width="17px" height="32px" viewBox="0 0 17 32" version="1.1" xmlns="http://www.w3.org/2000/svg" xmlns:xlink="http://www.w3.org/1999/xlink">
    <!-- Generator: Sketch 3.6 (26304) - http://www.bohemiancoding.com/sketch -->
    <title>Shape</title>
    <desc>Created with Sketch.</desc>
    <defs></defs>
    <g id="Page-1" stroke="none" stroke-width="1" fill="none" fill-rule="evenodd">
        <path d="M12.616251,0 C12.6458666,0.00260438 12.6752764,0.00661112 12.7050978,0.0076128 C13.1452186,0.02323908 13.585751,0.03085186 14.0256662,0.05529296 C14.518437,0.0827391 15.010591,0.12420882 15.5025392,0.1626735 C15.6637796,0.17509438 15.823992,0.19633008 15.9885232,0.21416006 C15.9443054,1.92163076 15.9000876,3.62168898 15.8558698,5.3241512 L15.770108,5.3241512 C14.6068726,5.3187422 13.4432258,5.3135334 12.2799904,5.3083246 C11.9412618,5.3071226 11.6052068,5.331764 11.2753218,5.4127002 C10.6579186,5.5645554 10.263455,5.9323738 10.112292,6.540997 C10.0240622,6.8959938 10.0043184,7.2574016 10.0039072,7.6200112 C10.0018504,8.9075758 10.0030844,10.1951406 10.0030844,11.482505 C10.040104,11.5530236 10.067663,11.5530236 10.095222,11.5530236 L15.927441,11.5530236 C15.9574678,11.5530236 15.9872892,11.5522222 16.017316,11.5518216 L16.017316,11.689453 C15.9772116,12.3679938 15.946362,12.9984536 15.9159238,13.6289136 C15.8926838,14.1135284 15.8706776,14.5985438 15.847232,15.083359 C15.8180276,15.6929838 15.788412,16.3028092 15.7583852,16.912434 C15.7569454,16.9488954 15.7524208,16.9853566 15.7489246,17.0250234 L10.0020562,17.0250234 L10.0020562,32 L4.0670052,32 L4.0670052,17.0240218 L3.997285,17.0240218 C2.6882338,17.0240218 1.3791826,17.0240218 0.0701314,17.024222 C0.0466858,17.024222 0.02324,17.026626 0,17.0276278 L0,11.5518216 C1.3561484,11.5528232 2.6863828,11.5530236 4.0168232,11.5528232 C4.0330706,11.5528232 4.049318,11.5502188 4.0694732,11.5482154 C4.0694732,9.9637516 4.0686504,8.4634292 4.0698844,6.963307 C4.0702958,6.321428 4.1435122,5.6873618 4.3098944,5.065316 C4.8197354,3.15871058 5.9654894,1.7477384 7.7802682,0.8668574 C8.8776912,0.33416182 10.0542948,0.09816504 11.2699746,0.02404042 C11.4106486,0.01542594 11.5513228,0.00801348 11.691997,0 L12.616251,0 L12.616251,0 L12.616251,0 L12.616251,0 Z" id="Shape" fill="#5789C7"></path>
    </g>
</svg>