<?xml version="1.0" encoding="UTF-8" standalone="no"?>
<svg width="32px" height="32px" viewBox="0 0 32 32" version="1.1" xmlns="http://www.w3.org/2000/svg" xmlns:xlink="http://www.w3.org/1999/xlink">
    <!-- Generator: Sketch 3.6 (26304) - http://www.bohemiancoding.com/sketch -->
    <title>Shape</title>
    <desc>Created with Sketch.</desc>
    <defs></defs>
    <g id="Page-1" stroke="none" stroke-width="1" fill="none" fill-rule="evenodd">
        <path d="M31.882,5.624 C31.63,4.81 30.898,4.208 30,4.208 L28,4.208 L28,6.208 L28,7.312 C28,8.966 26.654,10.312 25,10.312 C23.346,10.312 22,8.966 22,7.312 L22,6.208 L22,4.208 L9.99,4.208 L9.99,6.208 L9.99,7.312 C9.99,8.966 8.644,10.312 6.99,10.312 C5.336,10.312 3.99,8.966 3.99,7.312 L3.99,6.208 L3.99,4.208 L2,4.208 C1.102,4.208 0.37,4.81 0.118,5.624 L0,5.624 L0,6.208 L0,12.438 L0,30 C0,31.104 0.896,32 2,32 L30,32 C31.104,32 32,31.104 32,30 L32,12.438 L32,6.208 L32,5.624 L31.882,5.624 L31.882,5.624 Z M30,30 L2,30 L2,14 L30,14 L30,30 L30,30 Z M6.99,8.312 C7.542,8.312 7.99,7.864 7.99,7.312 L7.99,1 C7.99,0.448 7.542,0 6.99,0 C6.438,0 5.99,0.448 5.99,1 L5.99,7.312 C5.99,7.864 6.438,8.312 6.99,8.312 L6.99,8.312 Z M25,8.312 C25.552,8.312 26,7.864 26,7.312 L26,1 C26,0.448 25.552,0 25,0 C24.448,0 24,0.448 24,1 L24,7.312 C24,7.864 24.448,8.312 25,8.312 L25,8.312 Z" id="Shape" fill="#595959"></path>
    </g>
</svg>