<?xml version="1.0" encoding="utf-8"?>
<!-- Generator: Adobe Illustrator 18.0.0, SVG Export Plug-In . SVG Version: 6.00 Build 0)  -->
<!DOCTYPE svg PUBLIC "-//W3C//DTD SVG 1.1//EN" "http://www.w3.org/Graphics/SVG/1.1/DTD/svg11.dtd">
<svg version="1.1" id="Layer_1" xmlns="http://www.w3.org/2000/svg" xmlns:xlink="http://www.w3.org/1999/xlink" x="0px" y="0px"
	 viewBox="0 0 37.1 31.4" enable-background="new 0 0 37.1 31.4" xml:space="preserve">
<path fill="#F4995A" d="M35.7,7.2c-1-1-2.2-1.5-3.5-1.5h-15V5c0-1.4-0.5-2.5-1.5-3.5c-1-1-2.2-1.5-3.5-1.5H5C3.6,0,2.5,0.5,1.5,1.5
	C0.5,2.5,0,3.6,0,5v21.4C0,27.8,0.5,29,1.5,30c1,1,2.2,1.5,3.5,1.5h27.1c1.4,0,2.5-0.5,3.5-1.5c1-1,1.5-2.2,1.5-3.5V10.7
	C37.1,9.3,36.7,8.2,35.7,7.2z M24.8,19.6c0,0.2-0.1,0.4-0.2,0.6c-0.2,0.2-0.4,0.2-0.6,0.2h-3.7v3.7c0,0.2-0.1,0.4-0.2,0.6
	c-0.2,0.2-0.4,0.2-0.6,0.2h-1.7c-0.2,0-0.4-0.1-0.6-0.2c-0.2-0.2-0.2-0.4-0.2-0.6v-3.7h-3.7c-0.2,0-0.4-0.1-0.6-0.2
	c-0.2-0.2-0.2-0.4-0.2-0.6v-1.7c0-0.2,0.1-0.4,0.2-0.6c0.2-0.2,0.4-0.2,0.6-0.2h3.7v-3.7c0-0.2,0.1-0.4,0.2-0.6
	c0.2-0.2,0.4-0.2,0.6-0.2h1.7c0.2,0,0.4,0.1,0.6,0.2c0.2,0.2,0.2,0.4,0.2,0.6V17H24c0.2,0,0.4,0.1,0.6,0.2c0.2,0.2,0.2,0.4,0.2,0.6
	V19.6z"/>
</svg>
