<?xml version="1.0" encoding="UTF-8" standalone="no"?>
<svg width="32px" height="28px" viewBox="0 0 32 28" version="1.1" xmlns="http://www.w3.org/2000/svg" xmlns:xlink="http://www.w3.org/1999/xlink">
    <!-- Generator: Sketch 3.6 (26304) - http://www.bohemiancoding.com/sketch -->
    <title>Shape</title>
    <desc>Created with Sketch.</desc>
    <defs></defs>
    <g id="Page-1" stroke="none" stroke-width="1" fill="none" fill-rule="evenodd">
        <path d="M6.06199052,26.0171267 C6.06199052,26.7321286 6.44343947,27.3928175 7.06264924,27.7503184 C7.68185901,28.1078194 8.44475691,28.1078194 9.06396668,27.7503184 C9.68317645,27.3928175 10.0646254,26.7321286 10.0646254,26.0171267 C10.0646254,24.9118296 9.16860506,24.0158093 8.06330796,24.0158093 C6.95801086,24.0158093 6.06199052,24.9118296 6.06199052,26.0171267 L6.06199052,26.0171267 Z M24.0738475,26.0171267 C24.0738475,26.7321286 24.4552964,27.3928175 25.0745062,27.7503184 C25.693716,28.1078194 26.4566139,28.1078194 27.0758236,27.7503184 C27.6950334,27.3928175 28.0764823,26.7321286 28.0764823,26.0171267 C28.0764823,24.9118296 27.180462,24.0158093 26.0751649,24.0158093 C24.9698678,24.0158093 24.0738475,24.9118296 24.0738475,26.0171267 L24.0738475,26.0171267 Z M0,1.00065872 C0,1.55302233 0.448295106,2.00131744 1.00065872,2.00131744 L3.08002754,2.00131744 L4.32284567,7.31681656 L6.06199052,16.0105395 C6.06199052,16.0825869 6.09601292,16.1446278 6.10401819,16.2146739 L5.08534761,20.7976908 C5.01930414,21.0938858 5.09135156,21.40409 5.28147672,21.6402455 C5.47160188,21.8784022 5.75779027,22.0144918 6.06199052,22.0144918 L28.7649355,22.0144918 C29.3172992,22.0144918 29.7655943,21.5661967 29.7655943,21.0138331 C29.7655943,20.4614695 29.3172992,20.0131744 28.7649355,20.0131744 L7.3108126,20.0131744 L7.7691143,17.9518174 C7.86918017,17.967828 7.95923945,18.0118569 8.06330796,18.0118569 L26.3053164,18.0118569 C27.4100436,18.0118569 28.0764823,17.7937133 28.6088328,16.5108689 L31.8589723,6.54030539 C32.4233438,4.75312892 31.1845283,4.00263488 30.0777998,4.00263488 L6.06199052,4.00263488 C5.90588776,4.00263488 5.76979818,4.05667045 5.623702,4.09069285 L4.84719084,0.772508531 C4.74112101,0.32021079 4.33885621,0 3.87254924,0 L1.00065872,0 C0.446293789,0 0,0.448295106 0,1.00065872 L0,1.00065872 Z M6.10201687,6.00395232 L29.927701,6.00395232 L26.7335983,15.8084064 C26.6955733,15.8944631 26.6635522,15.9565039 26.6395364,15.9985316 C26.573493,16.0045356 26.4694244,16.0105395 26.3053164,16.0105395 L8.06330796,16.0105395 L8.06330796,15.8124091 L8.02528293,15.6182813 L6.10201687,6.00395232 L6.10201687,6.00395232 Z" id="Shape" fill="#FFFFFF"></path>
    </g>
</svg>