<?xml version="1.0" encoding="UTF-8" standalone="no"?>
<svg width="32px" height="34px" viewBox="0 0 32 34" version="1.1" xmlns="http://www.w3.org/2000/svg" xmlns:xlink="http://www.w3.org/1999/xlink">
    <!-- Generator: Sketch 3.6 (26304) - http://www.bohemiancoding.com/sketch -->
    <title>Group</title>
    <desc>Created with Sketch.</desc>
    <defs></defs>
    <g id="Page-1" stroke="none" stroke-width="1" fill="none" fill-rule="evenodd">
        <g id="Group" fill="#B2B2B5">
            <path d="M7.93984962,6.95338346 C8.32481203,4.93233083 9.21503759,3.2481203 10.7789474,1.92481203 C15.3984962,-1.99699248 22.6165414,0.384962406 23.9879699,6.27969925 C24.1082707,6.80902256 24.3007519,6.97744361 24.8300752,6.95338346 C25.7684211,6.90526316 26.7067669,6.92932331 27.6451128,6.95338346 C29.9789474,6.97744361 31.7593985,8.56541353 31.8315789,10.8992481 C31.9037594,13.112782 31.9037594,15.3263158 31.8315789,17.5157895 C31.7593985,19.7052632 30.2195489,21.3172932 28.0300752,21.4135338 C26.0571429,21.5097744 24.0842105,21.4616541 22.087218,21.4616541 C21.5819549,21.4616541 21.2932331,21.5338346 21.1007519,22.1112782 C20.5954887,23.675188 19.2962406,24.5654135 17.6601504,24.5894737 C16.5774436,24.5894737 15.4706767,24.6135338 14.3879699,24.5894737 C12.7759398,24.5654135 11.4285714,23.6270677 10.9473684,22.087218 C10.8030075,21.606015 10.5864662,21.4616541 10.1052632,21.4616541 C8.08421053,21.4616541 6.03909774,21.5097744 4.01804511,21.4135338 C1.82857143,21.3172932 0.264661654,19.5849624 0.240601504,17.3954887 L0.240601504,11.0917293 C0.264661654,8.73383459 2.04511278,6.97744361 4.42706767,6.95338346 L7.93984962,6.95338346 L7.93984962,6.95338346 Z M21.3654135,18.8150376 C23.4586466,18.8150376 25.5518797,18.8390977 27.6691729,18.8150376 C28.6315789,18.8150376 29.1609023,18.2616541 29.1849624,17.2992481 L29.1849624,11.5007519 C29.1849624,10.081203 28.7518797,9.6481203 27.3323308,9.6481203 L10.0571429,9.6481203 L4.49924812,9.6481203 C3.51278195,9.6481203 2.98345865,10.1533835 2.98345865,11.043609 C2.9593985,13.1609023 2.9593985,15.2541353 2.98345865,17.3714286 C2.98345865,18.2135338 3.51278195,18.7909774 4.33082707,18.7909774 C6.4962406,18.8150376 8.63759398,18.7909774 10.8270677,18.7909774 L21.3654135,18.8150376 Z M21.3413534,6.90526316 C20.8842105,4.40300752 18.406015,2.52631579 15.7593985,2.67067669 C12.8240602,2.81503759 10.875188,5.24511278 10.7789474,6.90526316 L21.3413534,6.90526316 L21.3413534,6.90526316 Z" id="Shape"></path>
            <path d="M16.0481203,31.037594 L26.8992481,31.037594 C27.2601504,31.037594 27.6210526,31.037594 27.9578947,30.9894737 C28.7759398,30.8691729 29.1849624,30.3639098 29.1849624,29.5458647 L29.1849624,18.1413534 C29.1849624,17.1308271 29.7142857,16.5774436 30.556391,16.6015038 C31.3744361,16.6255639 31.8075188,17.1548872 31.8075188,18.1654135 C31.8075188,19.5849624 31.7353383,28.2225564 31.8315789,29.6421053 C31.9518797,31.8075188 30.1714286,33.3473684 28.3909774,33.6120301 C27.8857143,33.6842105 27.3804511,33.7323308 26.875188,33.7323308 L5.17293233,33.7323308 C3.72932331,33.7323308 2.35789474,33.4917293 1.27518797,32.3849624 C0.577443609,31.687218 0.216541353,30.8451128 0.216541353,29.8586466 L0.216541353,17.756391 C0.216541353,16.793985 0.697744361,16.2165414 1.49172932,16.1924812 C2.28571429,16.1443609 2.86315789,16.7699248 2.88721805,17.756391 C2.9112782,19.2481203 2.88721805,27.9819549 2.88721805,29.4736842 C2.88721805,30.5082707 3.2962406,30.9413534 4.33082707,31.0135338 C5.14887218,31.0616541 5.94285714,31.037594 6.76090226,31.037594 L16.0481203,31.037594" id="Shape"></path>
        </g>
    </g>
</svg>