<?xml version="1.0" encoding="utf-8"?>
<!-- Generator: Adobe Illustrator 24.1.0, SVG Export Plug-In . SVG Version: 6.00 Build 0)  -->
<svg version="1.1" id="Layer_1" xmlns="http://www.w3.org/2000/svg" xmlns:xlink="http://www.w3.org/1999/xlink" x="0px" y="0px"
	 viewBox="0 0 32 22" style="enable-background:new 0 0 32 22;" xml:space="preserve">
<style type="text/css">
	.st0{fill:#FFFFFF;}
</style>
<g>
	<path class="st0" d="M18.5,4.2h-5.1c-2.2,0-4.1,1.8-4.1,4.1v5.1c0,2.2,1.8,4.1,4.1,4.1h5.1c2.2,0,4.1-1.8,4.1-4.1V8.3
		C22.6,6.1,20.8,4.2,18.5,4.2z M16.2,15.2c-2.4,0-4.3-1.9-4.3-4.3c0-2.4,1.9-4.3,4.3-4.3c2.4,0,4.3,1.9,4.3,4.3
		C20.5,13.2,18.6,15.2,16.2,15.2z M20.2,7.6c-0.6,0-1.1-0.5-1.1-1.1c0-0.6,0.5-1.1,1.1-1.1c0.6,0,1.1,0.5,1.1,1.1
		C21.3,7.1,20.8,7.6,20.2,7.6z"/>
	<path class="st0" d="M16.2,8.3c-1.4,0-2.6,1.2-2.6,2.6c0,1.4,1.2,2.6,2.6,2.6c1.4,0,2.6-1.2,2.6-2.6C18.8,9.4,17.6,8.3,16.2,8.3z"
		/>
	<path class="st0" d="M22.4,0H9.6C7.2,0,5.2,2,5.2,4.5v12.8c0,2.5,2,4.5,4.5,4.5h12.8c2.5,0,4.5-2,4.5-4.5V4.5C26.8,2,24.8,0,22.4,0
		z M24.2,14c0,2.8-2.3,5-5,5h-6.3c-2.8,0-5-2.3-5-5V7.7c0-2.8,2.3-5,5-5h6.3c2.8,0,5,2.3,5,5V14z"/>
</g>
</svg>
