<?xml version="1.0" encoding="UTF-8" standalone="no"?>
<svg width="32px" height="32px" viewBox="0 0 32 32" version="1.1" xmlns="http://www.w3.org/2000/svg" xmlns:xlink="http://www.w3.org/1999/xlink">
    <!-- Generator: Sketch 3.6 (26304) - http://www.bohemiancoding.com/sketch -->
    <title>Group</title>
    <desc>Created with Sketch.</desc>
    <defs></defs>
    <g id="Page-1" stroke="none" stroke-width="1" fill="none" fill-rule="evenodd">
        <g id="Group" fill="#FFFFFF">
            <path d="M29.7435634,9.95871703 C29.5316329,9.95871703 29.3577371,10.0266079 29.2224319,10.1630247 C29.0860151,10.2986476 29.0181242,10.4724639 29.0181242,10.6841562 L29.0181241,25.3904516 C29.0181241,26.3880099 28.6631861,27.2417667 27.9529132,27.9521985 C27.2426402,28.6624715 26.3885658,29.01733 25.3910074,29.01733 L6.52895285,29.01733 C5.53147395,29.01733 4.67747891,28.6624715 3.96704715,27.9521985 C3.25677419,27.2418462 2.90167742,26.3880893 2.90167742,25.3904516 L2.90167742,6.52863524 C2.90167742,5.53115633 3.25669479,4.67747891 3.96704715,3.96712655 C4.67747891,3.25669479 5.53147395,2.90167742 6.52895285,2.90167742 L21.0784691,2.90167736 C21.2903996,2.90167736 21.4642954,2.83346892 21.6001564,2.69760788 C21.7360175,2.56158803 21.8039083,2.38793046 21.8039083,2.17615875 L21.8039083,0.725042125 C21.8039083,0.513667436 21.7360175,0.33969225 21.6001564,0.203910612 C21.4642954,0.0678907607 21.2903996,-5.81575659e-08 21.0784691,-5.81575659e-08 L6.52895285,2.86949952e-15 C4.7306005,2.86949952e-15 3.19269479,0.63857072 1.91539454,1.91563275 C0.63857072,3.19261538 0,4.73052109 0,6.52887345 L0,25.3907692 C0,27.1890422 0.63857072,28.7271861 1.91547395,30.0037717 C3.19277419,31.2809132 4.7306799,31.9198015 6.52903226,31.9198015 L25.3910074,31.9198015 C27.1892804,31.9198015 28.7273449,31.2809132 30.0044864,30.0037717 C31.2817072,28.7271861 31.9202779,27.1891216 31.9202779,25.3907692 L31.9202781,10.6847121 C31.9202781,10.4727816 31.8523079,10.2988858 31.715891,10.1630247 C31.5798711,10.0266079 31.4059754,9.95871703 31.1946007,9.95871703 L29.7435634,9.95871703 Z" id="Shape"></path>
            <path d="M31.1308353,0 L24.697869,0 C24.4828064,0 24.3759653,0.0785404514 24.2188843,0.235751748 C24.0616731,0.392876115 24.1479526,1.94286594 24.1479526,2.28095527 C24.1479526,2.6190446 24.5253498,2.73692212 24.6978687,2.73692212 L27.3376517,2.73692212 L18.3120513,11.6276378 C18.2292078,11.7103509 18.1879165,11.8055383 18.1879165,11.9128957 C18.1879165,12.0206443 18.2293382,12.1157883 18.3120513,12.1985013 L19.7267356,13.6130118 C19.8094487,13.6957248 19.9046361,13.7369727 20.0121674,13.7369727 C20.1196987,13.7369727 20.2149295,13.6957683 20.2975991,13.6130118 L29.4908884,4.36075594 L29.4908884,7.21625286 C29.4908884,7.47348863 29.733718,7.70617888 30.0186719,7.70617888 L31.5493791,7.70617888 C31.7663141,7.70617888 31.9252806,7.48957828 31.9252804,7.14778958 L31.9252804,0.79414089 C31.9252369,0.578904412 31.8464357,0.392876115 31.6893548,0.235751748 C31.5321435,0.0785404514 31.3457675,0 31.1308353,0 Z" id="Shape"></path>
        </g>
    </g>
</svg>