<?xml version="1.0" encoding="utf-8"?>
<!-- Generator: Adobe Illustrator 24.1.0, SVG Export Plug-In . SVG Version: 6.00 Build 0)  -->
<svg version="1.1" id="Layer_1" xmlns="http://www.w3.org/2000/svg" xmlns:xlink="http://www.w3.org/1999/xlink" x="0px" y="0px"
	 viewBox="0 0 32 21" style="enable-background:new 0 0 32 21;" xml:space="preserve">
<style type="text/css">
	.st0{fill:#FFFFFF;}
</style>
<g>
	<path class="st0" d="M26.2,15H5.4c-0.4,0-0.8-0.3-0.8-0.8V0.9c0-0.4,0.3-0.8,0.8-0.8h20.8c0.4,0,0.8,0.3,0.8,0.8v13.3
		C27,14.6,26.6,15,26.2,15z M6.1,13.5h19.3V1.7H6.1V13.5z"/>
	<path class="st0" d="M30.7,20.6H1.1c-0.3,0-0.6-0.2-0.7-0.4c-0.1-0.3-0.1-0.6,0.1-0.8l4.2-5.2c0.1-0.2,0.4-0.3,0.6-0.3h20.8
		c0.2,0,0.4,0.1,0.6,0.3l4.5,5.2c0.2,0.2,0.2,0.5,0.1,0.8C31.3,20.4,31,20.6,30.7,20.6z M2.7,19.1h26.4l-3.2-3.7H5.7L2.7,19.1z"/>
	<polyline class="st0" points="19.7,10.3 21.4,8.8 15.7,6.1 17.2,12.7 18.8,11.2 	"/>
	<path class="st0" d="M15.9,9.9c-1.8,0-3.3-1.5-3.3-3.4S14.1,3,15.9,3s3.3,1.5,3.3,3.4S17.7,9.9,15.9,9.9z M15.9,4.1
		c-1.2,0-2.2,1.1-2.2,2.4s1,2.4,2.2,2.4s2.2-1.1,2.2-2.4S17.2,4.1,15.9,4.1z"/>
	<path class="st0" d="M15.9,8.1c-0.9,0-1.6-0.7-1.6-1.7s0.7-1.7,1.6-1.7s1.6,0.7,1.6,1.7S16.8,8.1,15.9,8.1z M15.9,5.3
		c-0.6,0-1.1,0.5-1.1,1.2s0.5,1.2,1.1,1.2S17,7.1,17,6.5S16.5,5.3,15.9,5.3z"/>
	<path class="st0" d="M5.8,19.9c-0.2,0-0.3,0-0.4-0.1c-0.3-0.2-0.4-0.7-0.2-1l3.1-4.3c0.2-0.3,0.7-0.4,1-0.2c0.3,0.2,0.4,0.7,0.2,1
		l-3.1,4.3C6.2,19.8,6,19.9,5.8,19.9z"/>
	<path class="st0" d="M10.3,20.1c-0.1,0-0.2,0-0.3-0.1c-0.4-0.2-0.6-0.6-0.4-1l1.8-4.3c0.2-0.4,0.6-0.6,1-0.4c0.4,0.2,0.6,0.6,0.4,1
		L11,19.6C10.9,19.9,10.6,20.1,10.3,20.1z"/>
	<path class="st0" d="M20.9,19.9c-0.3,0-0.6-0.2-0.7-0.4l-1.9-4.2c-0.2-0.4,0-0.8,0.4-1c0.4-0.2,0.8,0,1,0.4l1.9,4.2
		c0.2,0.4,0,0.8-0.4,1C21.1,19.9,21,19.9,20.9,19.9z"/>
	<path class="st0" d="M25.5,20c-0.2,0-0.5-0.1-0.6-0.3l-2.8-4.3c-0.2-0.3-0.1-0.8,0.2-1c0.3-0.2,0.8-0.1,1,0.2l2.8,4.3
		c0.2,0.3,0.1,0.8-0.2,1C25.8,20,25.7,20,25.5,20z"/>
	<path class="st0" d="M28.3,17.8H3.7c-0.4,0-0.7-0.3-0.7-0.7s0.3-0.7,0.7-0.7h24.6c0.4,0,0.7,0.3,0.7,0.7S28.7,17.8,28.3,17.8z"/>
	<path class="st0" d="M15.7,20.4c-0.4,0-0.7-0.3-0.7-0.7v-4.8c0-0.4,0.3-0.7,0.7-0.7s0.7,0.3,0.7,0.7v4.8
		C16.4,20,16.1,20.4,15.7,20.4z"/>
	<path class="st0" d="M20.3,12.4c-0.2,0-0.4-0.1-0.5-0.2l-1.7-1.7c-0.3-0.3-0.3-0.8,0-1.1c0.3-0.3,0.8-0.3,1.1,0l1.7,1.7
		c0.3,0.3,0.3,0.8,0,1.1C20.7,12.3,20.5,12.4,20.3,12.4z"/>
</g>
</svg>
