<?xml version="1.0" encoding="utf-8"?>
<!-- Generator: Adobe Illustrator 24.1.0, SVG Export Plug-In . SVG Version: 6.00 Build 0)  -->
<svg version="1.1" id="Layer_1" xmlns="http://www.w3.org/2000/svg" xmlns:xlink="http://www.w3.org/1999/xlink" x="0px" y="0px"
	 viewBox="0 0 32 21" style="enable-background:new 0 0 32 21;" xml:space="preserve">
<style type="text/css">
	.st0{fill:#5789C7;}
</style>
<path class="st0" d="M26.3,19.7H13c0.1,0,0.1-0.1,0.2-0.1c0,0,0,0,0,0c0,0,0,0,0,0L26,6.7c0,0,0,0,0,0c0.6-0.6,0.9-1.4,0.9-2.2
	c0-0.8-0.3-1.6-0.9-2.2L24.7,1c-1.2-1.2-3.2-1.2-4.4,0c0,0,0,0,0,0L7.4,13.8c0,0,0,0,0,0c0,0,0,0,0,0c-0.1,0.1-0.1,0.2-0.1,0.2
	c0,0,0,0,0,0l-0.9,3.4c0,0,0,0,0,0s0,0,0,0L6,18.9C6,19.1,6,19.4,6,19.7H5c-0.4,0-0.7,0.3-0.7,0.7S4.6,21,5,21h21.3
	c0.4,0,0.7-0.3,0.7-0.7S26.6,19.7,26.3,19.7z M21.3,3L12,12.2c-0.1,0.1-0.2,0.3-0.2,0.5c0,0.2,0.1,0.3,0.2,0.5
	c0.1,0.1,0.3,0.2,0.5,0.2s0.3-0.1,0.5-0.2l9.3-9.3l2.4,2.4l-12,11.9l-0.6-0.6l9.3-9.3c0.1-0.1,0.2-0.3,0.2-0.5s-0.1-0.3-0.2-0.5
	c-0.3-0.3-0.7-0.3-0.9,0l-9.3,9.3l-2.4-2.4l12-11.9L21.3,3z M11.4,18.7l-1.7,0.4c-0.4-0.9-1-1.5-1.9-1.9l0.4-1.7L11.4,18.7z
	 M25.5,5.2L25.3,5l-3.5-3.5c0.7-0.3,1.5-0.1,2,0.4l1.3,1.3C25.6,3.8,25.8,4.6,25.5,5.2z M7.4,18.5c0.5,0.2,0.8,0.5,1,0.9l-0.7,0.2
	c-0.1,0-0.3,0-0.4-0.1c-0.1-0.1-0.1-0.2-0.1-0.3L7.4,18.5z"/>
</svg>
