<?xml version="1.0" encoding="UTF-8" standalone="no"?>
<svg width="32px" height="30px" viewBox="0 0 32 30" version="1.1" xmlns="http://www.w3.org/2000/svg" xmlns:xlink="http://www.w3.org/1999/xlink">
    <!-- Generator: Sketch 3.6 (26304) - http://www.bohemiancoding.com/sketch -->
    <title>Group</title>
    <desc>Created with Sketch.</desc>
    <defs></defs>
    <g id="Page-1" stroke="none" stroke-width="1" fill="none" fill-rule="evenodd">
        <g id="Group" fill="#5789C7">
            <path d="M3.88663968,29.9001134 L26.011336,29.9001134 C28.1554656,29.9001134 29.8979757,28.1575709 29.8979757,26.0134737 L29.8979757,10.8847287 L26.011336,14.7713684 L26.011336,26.0134737 L3.88663968,26.0134737 L3.88663968,3.89201619 L21.6129555,3.89201619 L24.7319838,0.772987854 C25.026753,0.478251012 25.3506397,0.222380567 25.6971984,0.00537651822 L3.88663968,0.00537651822 C1.74251012,0.00537651822 0,1.74788664 0,3.89201619 L0,26.0167126 C0,28.1575709 1.74251012,29.9001134 3.88663968,29.9001134 L3.88663968,29.9001134 Z" id="Shape"></path>
            <path d="M31.0348178,2.18510121 C30.4064777,1.53408907 29.5838057,1.18753036 28.751417,1.13894737 C28.6833684,1.1357085 28.6185911,1.13246964 28.5506073,1.13246964 C27.6663968,1.13246964 26.7821862,1.46931174 26.1052632,2.14623482 L15.2874494,12.9640486 C14.9214575,12.5721134 12.6607287,10.2952227 12.6607287,10.2952227 C11.9870121,9.62153846 11.0995951,9.28145749 10.2153846,9.28145749 C9.33117409,9.28145749 8.44693117,9.6182996 7.77004049,10.2952227 C6.4194332,11.64583 6.4194332,13.8353036 7.77004049,15.1859109 L10.4194332,17.835336 L12.8647773,20.2806802 C13.5125506,20.9284534 14.3935223,21.2944777 15.3101215,21.2944777 C16.2267206,21.2944777 17.1076923,20.9316923 17.7554656,20.2806802 L30.9117409,7.12440486 C32.2591093,5.77379757 32.362753,3.55517409 31.0348178,2.18510121 L31.0348178,2.18510121 Z" id="Shape"></path>
        </g>
    </g>
</svg>