<?xml version="1.0" encoding="utf-8"?>
<!-- Generator: Adobe Illustrator 24.1.0, SVG Export Plug-In . SVG Version: 6.00 Build 0)  -->
<svg version="1.1" id="Layer_1" xmlns="http://www.w3.org/2000/svg" xmlns:xlink="http://www.w3.org/1999/xlink" x="0px" y="0px"
	 viewBox="0 0 32 22" style="enable-background:new 0 0 32 22;" xml:space="preserve">
<style type="text/css">
	.st0{fill:#5789C7;}
	.st1{fill:#FFFFFF;}
</style>
<g>
	<path class="st0" d="M26.8,17.4c0,2.5-2,4.5-4.5,4.5H9.6c-2.5,0-4.5-2-4.5-4.5V4.6c0-2.5,2-4.5,4.5-4.5h12.8c2.5,0,4.5,2,4.5,4.5
		V17.4z"/>
	<g>
		<path class="st1" d="M19.1,2.8h-6.3c-2.8,0-5,2.3-5,5v6.3c0,2.8,2.3,5,5,5h6.3c2.8,0,5-2.3,5-5V7.9C24.2,5.1,21.9,2.8,19.1,2.8z
			 M22.6,13.5c0,2.2-1.8,4.1-4.1,4.1h-5.1c-2.2,0-4.1-1.8-4.1-4.1V8.5c0-2.2,1.8-4.1,4.1-4.1h5.1c2.2,0,4.1,1.8,4.1,4.1V13.5z"/>
		<path class="st1" d="M16.2,6.7c-2.4,0-4.3,1.9-4.3,4.3c0,2.4,1.9,4.3,4.3,4.3c2.4,0,4.3-1.9,4.3-4.3C20.5,8.6,18.6,6.7,16.2,6.7z
			 M16.2,13.6c-1.4,0-2.6-1.2-2.6-2.6c0-1.4,1.2-2.6,2.6-2.6c1.4,0,2.6,1.2,2.6,2.6C18.8,12.5,17.6,13.6,16.2,13.6z"/>
		<path class="st1" d="M21.3,6.7c0,0.6-0.5,1.1-1.1,1.1c-0.6,0-1.1-0.5-1.1-1.1c0-0.6,0.5-1.1,1.1-1.1C20.8,5.6,21.3,6.1,21.3,6.7z"
			/>
	</g>
</g>
</svg>
