<?xml version="1.0" encoding="UTF-8" standalone="no"?>
<svg width="32px" height="32px" viewBox="0 0 32 32" version="1.1" xmlns="http://www.w3.org/2000/svg" xmlns:xlink="http://www.w3.org/1999/xlink">
    <!-- Generator: Sketch 3.6 (26304) - http://www.bohemiancoding.com/sketch -->
    <title>Shape</title>
    <desc>Created with Sketch.</desc>
    <defs></defs>
    <g id="Page-1" stroke="none" stroke-width="1" fill="none" fill-rule="evenodd">
        <path d="M31.9014515,11.9634062 C31.6651773,11.2385651 31.0384501,10.7099517 30.2835742,10.6018262 L21.6535602,9.34837175 L17.795083,1.52729644 C17.4566903,0.842501827 16.7618841,0.409999967 15.9989988,0.409999967 C15.2361136,0.409999967 14.5413074,0.842501827 14.2029147,1.52729644 L10.3444375,9.34636943 L1.7144235,10.5998239 C0.959547565,10.7099517 0.332820332,11.2385651 0.098548491,11.9634062 C-0.137725674,12.6882472 0.0585020225,13.4831696 0.605136318,14.0157877 L6.85038309,20.1028509 L5.37667305,28.6988254 C5.24852435,29.4496967 5.55688216,30.2085772 6.17359777,30.6570977 C6.51999973,30.9113928 6.93247835,31.0395415 7.34896163,31.0395415 C7.66733105,31.0395415 7.9877028,30.9634532 8.28004202,30.8092743 L15.9989988,26.7505647 L23.7179557,30.8092743 C24.0102949,30.9634532 24.3306666,31.0395415 24.6490361,31.0395415 C25.063517,31.0395415 25.4779979,30.9113928 25.8264022,30.6570977 C26.4431178,30.2085772 26.7514757,29.4496967 26.623327,28.6988254 L25.1496169,20.1028509 L31.3948637,14.0157877 C31.941498,13.4831696 32.1377257,12.6882472 31.9014515,11.9634062 L31.9014515,11.9634062 Z" id="Shape" fill="#FFFFFF"></path>
    </g>
</svg>