<?xml version="1.0" encoding="utf-8"?>
<!-- Generator: Adobe Illustrator 24.1.0, SVG Export Plug-In . SVG Version: 6.00 Build 0)  -->
<svg version="1.1" id="Layer_1" xmlns="http://www.w3.org/2000/svg" xmlns:xlink="http://www.w3.org/1999/xlink" x="0px" y="0px"
	 viewBox="0 0 21 21" style="enable-background:new 0 0 21 21;" xml:space="preserve">
<style type="text/css">
	.st0{fill:#FFFFFF;}
	.st1{fill:none;stroke:#FFFFFF;stroke-width:0.5349;stroke-linecap:round;stroke-linejoin:round;stroke-miterlimit:10;}
	.st2{fill:none;stroke:#FFFFFF;stroke-width:0.5063;stroke-linejoin:round;stroke-miterlimit:10;}
	.st3{fill:none;stroke:#FFFFFF;stroke-width:0.6861;stroke-linecap:round;stroke-linejoin:round;stroke-miterlimit:10;}
	.st4{fill:none;stroke:#FFFFFF;stroke-width:0.6082;stroke-linecap:round;stroke-linejoin:round;stroke-miterlimit:10;}
	.st5{fill:none;}
	.st6{fill:#FFFFFF;}
</style>
<g>
	<g>
		<ellipse class="st0" cx="10.5" cy="6.6" rx="4.7" ry="5.4"/>
	</g>
	<g>
		<path class="st5" d="M10.5,0.8c-5.3,0-9.7,4.3-9.7,9.7c0,2,0.6,3.8,1.6,5.3c1.9-1.9,4.8-3,8.1-3s6.2,1.2,8.1,3
			c1-1.5,1.6-3.3,1.6-5.3C20.2,5.1,15.8,0.8,10.5,0.8z"/>
		<path class="st0" d="M0.8,10.5c0-5.3,4.3-9.7,9.7-9.7s9.7,4.3,9.7,9.7c0,2-0.6,3.8-1.6,5.3c0.2,0.2,0.4,0.4,0.6,0.6
			c1.1-1.7,1.8-3.7,1.8-5.9C21,4.7,16.3,0,10.5,0S0,4.7,0,10.5c0,2.2,0.7,4.2,1.8,5.9C2,16.2,2.2,16,2.4,15.8
			C1.4,14.2,0.8,12.4,0.8,10.5z"/>
		<path class="st0" d="M10.5,12.7c-3.3,0-6.2,1.2-8.1,3c1.7,2.6,4.7,4.4,8.1,4.4s6.4-1.7,8.1-4.4C16.7,13.9,13.8,12.7,10.5,12.7z"/>
		<path class="st0" d="M10.5,20.9c3.6,0,6.8-1.8,8.7-4.6c-0.2-0.2-0.4-0.4-0.6-0.6c-1.7,2.6-4.7,4.4-8.1,4.4s-6.4-1.7-8.1-4.4
			C2.2,16,2,16.2,1.8,16.4C3.7,19.1,6.9,20.9,10.5,20.9z"/>
	</g>
</g>
</svg>
