<?xml version="1.0" encoding="UTF-8" standalone="no"?>
<svg width="32px" height="32px" viewBox="0 0 32 32" version="1.1" xmlns="http://www.w3.org/2000/svg" xmlns:xlink="http://www.w3.org/1999/xlink">
    <!-- Generator: Sketch 3.6 (26304) - http://www.bohemiancoding.com/sketch -->
    <title>Combined Shape</title>
    <desc>Created with Sketch.</desc>
    <defs></defs>
    <g id="Page-1" stroke="none" stroke-width="1" fill="none" fill-rule="evenodd">
        <path d="M20.5184058,16 L31.0564567,5.46194904 C32.3183191,4.20008662 32.3090759,2.18637073 31.0613526,0.938647431 C29.8049304,-0.317774767 27.7884782,-0.306883927 26.538051,0.943543272 L16,11.4815942 L5.46194904,0.943543272 C4.20008662,-0.318319149 2.18637073,-0.30907587 0.938647431,0.938647431 C-0.317774767,2.19506963 -0.306883927,4.21152184 0.943543272,5.46194904 L11.4815942,16 L0.943543272,26.538051 C-0.318319149,27.7999134 -0.30907587,29.8136293 0.938647431,31.0613526 C2.19506963,32.3177748 4.21152184,32.3068839 5.46194904,31.0564567 L16,20.5184058 L26.538051,31.0564567 C27.7999134,32.3183191 29.8136293,32.3090759 31.0613526,31.0613526 C32.3177748,29.8049304 32.3068839,27.7884782 31.0564567,26.538051 L20.5184058,16 L20.5184058,16 Z" id="Combined-Shape" fill="#5789C7"></path>
    </g>
</svg>