<?xml version="1.0" encoding="utf-8"?>
<!-- Generator: Adobe Illustrator 18.0.0, SVG Export Plug-In . SVG Version: 6.00 Build 0)  -->
<!DOCTYPE svg PUBLIC "-//W3C//DTD SVG 1.1//EN" "http://www.w3.org/Graphics/SVG/1.1/DTD/svg11.dtd">
<svg version="1.1" id="Layer_1" xmlns="http://www.w3.org/2000/svg" xmlns:xlink="http://www.w3.org/1999/xlink" x="0px" y="0px"
	 viewBox="0 0 37.1 34.3" enable-background="new 0 0 37.1 34.3" xml:space="preserve">
<path fill="#F4995A" d="M21.4,17.1h-5.7c-0.4,0-0.7-0.1-1-0.4c-0.3-0.3-0.4-0.6-0.4-1c0-0.4,0.1-0.7,0.4-1c0.3-0.3,0.6-0.4,1-0.4
	h5.7c0.4,0,0.7,0.1,1,0.4c0.3,0.3,0.4,0.6,0.4,1c0,0.4-0.1,0.7-0.4,1C22.2,17,21.8,17.1,21.4,17.1L21.4,17.1z M35.3,10.4
	c-0.3-0.3-0.6-0.4-1-0.4H2.9c-0.4,0-0.7,0.1-1,0.4c-0.3,0.3-0.4,0.6-0.4,1v21.4c0,0.4,0.1,0.7,0.4,1c0.3,0.3,0.6,0.4,1,0.4h31.4
	c0.4,0,0.7-0.1,1-0.4c0.3-0.3,0.4-0.6,0.4-1V11.4C35.7,11,35.6,10.7,35.3,10.4z M36.7,0.4c-0.3-0.3-0.6-0.4-1-0.4H1.4
	C1,0,0.7,0.1,0.4,0.4C0.1,0.7,0,1,0,1.4v5.7c0,0.4,0.1,0.7,0.4,1c0.3,0.3,0.6,0.4,1,0.4h34.3c0.4,0,0.7-0.1,1-0.4
	c0.3-0.3,0.4-0.6,0.4-1V1.4C37.1,1,37,0.7,36.7,0.4z"/>
</svg>
