<?xml version="1.0" encoding="UTF-8" standalone="no"?>
<svg width="32px" height="43px" viewBox="0 0 32 43" version="1.1" xmlns="http://www.w3.org/2000/svg" xmlns:xlink="http://www.w3.org/1999/xlink">
    <!-- Generator: Sketch 3.6 (26304) - http://www.bohemiancoding.com/sketch -->
    <title>Shape</title>
    <desc>Created with Sketch.</desc>
    <defs></defs>
    <g id="Page-1" stroke="none" stroke-width="1" fill="none" fill-rule="evenodd">
        <path d="M28.4365059,8.80830676 C22.7674919,7.10150684 17.159435,5.39470691 11.5513781,3.65742841 C11.2770709,3.5659927 11.0941995,3.59647127 10.850371,3.74886412 C9.63122816,4.54130695 8.41208535,5.3032712 7.13198541,6.12619259 C7.9549068,6.37002116 8.68639248,6.61384972 9.44835674,6.82719971 C13.2886566,7.98538537 17.1289564,9.17404961 20.9692562,10.3322353 C21.2740419,10.423671 21.6093062,10.4541496 21.9445705,10.5760638 C23.4380204,11.0332424 24.321899,12.3133423 24.321899,14.0201423 L24.321899,27.9793274 L24.321899,39.1040055 C24.321899,40.5974554 23.7428061,41.7251625 22.3712705,42.3652125 C21.6702634,42.7004767 20.9692562,42.7614339 20.207292,42.5480839 C14.5687565,40.8108054 8.96069962,39.134484 3.32216414,37.4276841 C3.10881415,37.366727 2.86498559,37.3362484 2.6516356,37.2752913 C1.06674995,36.9095484 0.0304785701,35.5684913 0.0304785701,33.9226485 C0,29.5032559 0,25.1143418 0,20.7254277 L0,8.53399963 C0,7.13198541 0.640049973,6.12619259 1.85919278,5.39470691 C4.02317126,4.0841284 6.15667116,2.68211417 8.29017107,1.31057852 C8.80830676,0.975314244 9.32644246,0.670528543 9.81409958,0.335264271 C10.3627138,-0.0304785701 10.9418067,-0.12191428 11.6123352,0.0914357104 C16.8851278,1.70679993 22.1274419,3.29168557 27.4002345,4.87657122 C28.0098059,5.05944264 28.6193773,5.24231406 29.2594273,5.39470691 C30.9052701,5.79092832 31.8805843,7.10150684 31.8805843,8.89974248 L31.8805843,23.1941919 L31.8805843,33.9836057 C31.8805843,35.0198771 31.4538844,35.659927 30.6004844,35.9037556 C29.6556487,36.1780627 28.6803345,35.5684913 28.4974631,34.6236557 C28.4669845,34.3798271 28.4365059,34.1359985 28.4365059,33.89217 L28.4365059,9.26548532 L28.4365059,8.80830676 L28.4365059,8.80830676 Z M20.847342,39.1649626 L20.847342,13.898228 L10.6065424,10.7894138 C10.6065424,10.9418067 10.5760638,11.063721 10.5760638,11.1551567 L10.5760638,35.6904056 C10.5760638,35.9647127 10.6674995,36.0561485 10.9113281,36.1475842 C12.9229137,36.7571556 14.9649779,37.366727 16.9765636,37.9762984 C18.2871421,38.3725198 19.5367634,38.7687412 20.847342,39.1649626 L20.847342,39.1649626 Z M7.16246398,34.9893985 L7.16246398,34.4407842 L7.16246398,10.5151067 C7.16246398,9.72266387 7.16246398,9.72266387 6.40049973,9.50931388 C5.42518548,9.20452818 4.44987124,8.93022105 3.44407842,8.62543534 L3.44407842,33.89217 C4.6936998,34.2579128 5.88236403,34.6236557 7.16246398,34.9893985 L7.16246398,34.9893985 Z" id="Shape" fill="#5789C7"></path>
    </g>
</svg>