<?xml version="1.0" encoding="UTF-8" standalone="no"?>
<svg width="32px" height="21px" viewBox="0 0 32 21" version="1.1" xmlns="http://www.w3.org/2000/svg" xmlns:xlink="http://www.w3.org/1999/xlink">
    <!-- Generator: Sketch 3.6 (26304) - http://www.bohemiancoding.com/sketch -->
    <title>Shape</title>
    <desc>Created with Sketch.</desc>
    <defs></defs>
    <g id="Page-1" stroke="none" stroke-width="1" fill="none" fill-rule="evenodd">
        <path d="M13.4,20.47 C13.48,20.47 13.56,20.47 13.64,20.43 C13.88,20.35 14.04,20.11 14.04,19.87 L14.04,17.35 C14.64,17.39 15.28,17.43 15.88,17.43 C18.4,17.43 20.68,17.03 22.12,16.67 C25.12,15.95 25.12,15.67 25.12,15.31 L25.12,9.03 L31.6,6.51 C31.84,6.43 32,6.19 32,5.91 C32,5.67 31.84,5.43 31.6,5.35 L16.12,0.03 C16,-0.01 15.84,-0.01 15.72,0.03 L0.4,5.39 C0.16,5.47 0,5.71 0,5.95 C0,6.19 0.16,6.43 0.4,6.55 L6.64,8.95 L6.64,15.15 C6.64,15.51 7,15.71 7.28,15.87 C7.68,16.03 8.32,16.27 9.36,16.51 L9.36,19.83 C9.36,20.07 9.52,20.31 9.76,20.39 L13.4,20.47 Z M7.84,14.75 L7.84,9.39 L9.32,9.95 L9.32,15.19 C8.64,15.03 8.16,14.87 7.84,14.75 L7.84,14.75 Z M10.56,19.31 L10.56,10.43 L12.76,11.27 L12.76,19.27 L10.56,19.31 Z M23.8,14.83 C22.76,15.19 19.52,16.15 15.8,16.15 C15.2,16.15 14.6,16.11 13.96,16.07 L13.96,11.75 L15.68,12.43 C15.76,12.47 15.84,12.47 15.92,12.47 C16,12.47 16.08,12.47 16.12,12.43 L23.76,9.51 L23.8,14.83 L23.8,14.83 L23.8,14.83 Z M15.92,11.19 L13.6,10.31 L13.6,10.31 L13.44,10.27 L2.4,5.99 L15.92,1.27 L29.6,5.99 L15.92,11.19 L15.92,11.19 Z" id="Shape" fill="#FFFFFF"></path>
    </g>
</svg>