<?xml version="1.0" encoding="UTF-8" standalone="no"?>
<svg width="32px" height="38px" viewBox="0 0 32 38" version="1.1" xmlns="http://www.w3.org/2000/svg" xmlns:xlink="http://www.w3.org/1999/xlink">
    <!-- Generator: Sketch 3.6 (26304) - http://www.bohemiancoding.com/sketch -->
    <title>Combined Shape</title>
    <desc>Created with Sketch.</desc>
    <defs></defs>
    <g id="Page-1" stroke="none" stroke-width="1" fill="none" fill-rule="evenodd">
        <path d="M15.861609,20.2611225 L15.9861969,20.2611225 L16.0329174,20.2611225 L16.1107849,20.2611225 C18.3923026,20.2221887 20.2377622,19.4201535 21.6004434,17.8861639 C24.598342,14.5067145 24.09999,8.71337281 24.0454828,8.16051359 C23.8508141,4.01017605 21.8885532,2.0245549 20.2689092,1.09793169 C19.061963,0.40491098 17.6525614,0.0311469984 16.0796379,0 L16.0251307,0 L15.9939837,0 L15.9472632,0 C15.082934,0 13.3854226,0.140161493 11.7579919,1.0667847 C10.1227745,1.9934079 8.12936659,3.97902905 7.93469785,8.16051359 C7.8801906,8.71337281 7.38183863,14.5067145 10.3797372,17.8861639 C11.7346317,19.4201535 13.5800913,20.2221887 15.861609,20.2611225 L15.861609,20.2611225 Z M10.01376,8.35518233 C10.01376,8.33182208 10.0215467,8.30846183 10.0215467,8.29288833 C10.2785095,2.70978886 14.241965,2.11020914 15.9394764,2.11020914 L15.9706234,2.11020914 L16.0329174,2.11020914 C18.1353398,2.15692964 21.7094579,3.0134721 21.9508471,8.29288833 C21.9508471,8.31624858 21.9508471,8.33960883 21.9586339,8.35518233 C21.9664206,8.40968958 22.5114931,13.7046793 20.0353067,16.4923357 C19.0541763,17.5980541 17.7460024,18.1431266 16.0251307,18.1587001 L15.9861969,18.1587001 L15.9472632,18.1587001 C14.2341783,18.1431266 12.9182176,17.5980541 11.9448739,16.4923357 C9.47647427,13.7202528 10.0059732,8.40190283 10.01376,8.35518233 Z M31.9879674,29.8699715 L31.9879674,29.8466113 C31.9879674,29.7843173 31.9801806,29.7220233 31.9801806,29.6519425 C31.9334601,28.1101661 31.8322324,24.504901 28.4527831,23.3524621 C28.4294228,23.3446753 28.3982758,23.3368886 28.3749156,23.3291018 C24.8630915,22.4336256 21.9430604,20.4090707 21.9119134,20.3857105 C21.4369217,20.0508802 20.7828347,20.1676815 20.4480045,20.6426732 C20.1131742,21.1176649 20.2299755,21.7717519 20.7049672,22.1065821 C20.837342,22.2000231 23.9364683,24.3569528 27.8142696,25.3536567 C29.6285823,25.9999569 29.8310378,27.9388576 29.885545,29.7142365 C29.885545,29.7843173 29.885545,29.8466113 29.8933317,29.9089052 C29.9011185,30.6097127 29.854398,31.6920709 29.72981,32.3150109 C28.4683566,33.0313918 23.5237706,35.5075782 16.0017704,35.5075782 C8.51091732,35.5075782 3.53518432,33.0236051 2.26594414,32.3072241 C2.14135614,31.6842842 2.0868489,30.601926 2.10242239,29.9011185 C2.10242239,29.8388245 2.11020914,29.7765305 2.11020914,29.7064498 C2.16471639,27.9310708 2.36717188,25.9921702 4.18148454,25.34587 C8.05928585,24.349166 11.1584122,22.1844496 11.2907869,22.0987954 C11.7657787,21.7639652 11.8825799,21.1098782 11.5477497,20.6348865 C11.2129194,20.1598947 10.5588325,20.0430935 10.0838407,20.3779237 C10.0526937,20.401284 7.14823614,22.4258389 3.62083857,23.3213151 C3.58969157,23.3291018 3.56633132,23.3368886 3.54297107,23.3446753 C0.163521742,24.504901 0.0622939969,28.1101661 0.0155734992,29.6441558 C0.0155734992,29.7142365 0.0155734992,29.7765305 0.00778674961,29.8388245 L0.00778674961,29.8621847 C6.40980324e-16,30.2670957 -0.00778674961,32.3461579 0.40491098,33.3895823 C0.482778476,33.5920378 0.622939969,33.7633463 0.809821959,33.8801475 C1.04342445,34.0358825 6.64209742,37.6022139 16.0095572,37.6022139 C25.377017,37.6022139 30.9756899,34.0280958 31.2092924,33.8801475 C31.3883877,33.7633463 31.5363359,33.5920378 31.6142034,33.3895823 C32.0035409,32.3539446 31.9957541,30.2748825 31.9879674,29.8699715 Z" id="Combined-Shape" fill="#B2B2B5"></path>
    </g>
</svg>