<?xml version="1.0" encoding="UTF-8" standalone="no"?>
<svg width="32px" height="25px" viewBox="0 0 32 25" version="1.1" xmlns="http://www.w3.org/2000/svg" xmlns:xlink="http://www.w3.org/1999/xlink">
    <!-- Generator: Sketch 40.3 (33839) - http://www.bohemiancoding.com/sketch -->
    <title>Fill 4</title>
    <desc>Created with Sketch.</desc>
    <defs></defs>
    <g id="Page-1" stroke="none" stroke-width="1" fill="none" fill-rule="evenodd">
        <path d="M31.5002315,21.8337603 C31.8335751,22.1671039 32,22.5927961 32,23.1113306 C32,23.6298651 31.8335751,24.0560511 31.5002315,24.3893947 C31.1668879,24.7227384 30.7411957,24.8891632 30.2226612,24.8891632 L1.77783265,24.8891632 C1.25929813,24.8891632 0.833112133,24.7227384 0.499768511,24.3893947 C0.16642489,24.0560511 0,23.6298651 0,23.1113306 C0,22.5927961 0.16642489,22.1671039 0.499768511,21.8337603 C0.833112133,21.5004167 1.25929813,21.3339918 1.77783265,21.3339918 L30.2226612,21.3339918 C30.7411957,21.3339918 31.1668879,21.5004167 31.5002315,21.8337603 M31.5002315,11.1667644 C31.8335751,11.500108 32,11.926294 32,12.4448285 C32,12.9633631 31.8335751,13.3890552 31.5002315,13.7223988 C31.1668879,14.0557425 30.7411957,14.2226612 30.2226612,14.2226612 L1.77783265,14.2226612 C1.25929813,14.2226612 0.833112133,14.0557425 0.499768511,13.7223988 C0.16642489,13.3890552 0,12.9633631 0,12.4448285 C0,11.926294 0.16642489,11.500108 0.499768511,11.1667644 C0.833112133,10.8334208 1.25929813,10.6669959 1.77783265,10.6669959 L30.2226612,10.6669959 C30.7411957,10.6669959 31.1668879,10.8334208 31.5002315,11.1667644 M31.5002315,0.500262354 C31.8335751,0.833605975 32,1.25929813 32,1.77783265 C32,2.29636717 31.8335751,2.72255317 31.5002315,3.05589679 C31.1668879,3.38924041 30.7411957,3.5556653 30.2226612,3.5556653 L1.77783265,3.5556653 C1.25929813,3.5556653 0.833112133,3.38924041 0.499768511,3.05589679 C0.16642489,2.72255317 0,2.29636717 0,1.77783265 C0,1.25929813 0.16642489,0.833605975 0.499768511,0.500262354 C0.833112133,0.166918732 1.25929813,0 1.77783265,0 L30.2226612,0 C30.7411957,0 31.1668879,0.166918732 31.5002315,0.500262354" id="Fill-4" fill="#595959"></path>
    </g>
</svg>