<?xml version="1.0" encoding="UTF-8" standalone="no"?>
<svg width="32px" height="32px" viewBox="0 0 32 32" version="1.1" xmlns="http://www.w3.org/2000/svg" xmlns:xlink="http://www.w3.org/1999/xlink">
    <!-- Generator: Sketch 3.6 (26304) - http://www.bohemiancoding.com/sketch -->
    <title>Shape</title>
    <desc>Created with Sketch.</desc>
    <defs></defs>
    <g id="Page-1" stroke="none" stroke-width="1" fill="none" fill-rule="evenodd">
        <path d="M19.0457447,0 C11.8910099,0 6.09148943,5.79952044 6.09148943,12.9542553 C6.09148943,16.0333821 7.17167502,18.8594027 8.96534114,21.0835487 L0.403574876,29.645315 C-0.134524959,30.1834148 -0.134524959,31.0583253 0.403574876,31.5964251 C0.941674711,32.134525 1.81658518,32.134525 2.35468502,31.5964251 L10.9164513,23.0346589 C13.1405973,24.828325 15.9666179,25.9085106 19.0457447,25.9085106 C26.2004796,25.9085106 32,20.1089901 32,12.9542553 C32,5.79952044 26.2004796,0 19.0457447,0 L19.0457447,0 L19.0457447,0 Z M19.0457447,23.9155482 C13.0010899,23.9155482 8.08445178,18.9989101 8.08445178,12.9542553 C8.08445178,6.90960047 13.0010899,1.99296235 19.0457447,1.99296235 C25.0903995,1.99296235 30.0070376,6.90960047 30.0070376,12.9542553 C30.0070376,18.9989101 25.0903995,23.9155482 19.0457447,23.9155482 L19.0457447,23.9155482 L19.0457447,23.9155482 Z" id="Shape" fill="#5789C7" transform="translate(16.000000, 16.000000) scale(-1, 1) translate(-16.000000, -16.000000) "></path>
    </g>
</svg>