<?xml version="1.0" encoding="UTF-8" standalone="no"?>
<svg width="32px" height="36px" viewBox="0 0 32 36" version="1.1" xmlns="http://www.w3.org/2000/svg" xmlns:xlink="http://www.w3.org/1999/xlink">
    <!-- Generator: Sketch 3.6 (26304) - http://www.bohemiancoding.com/sketch -->
    <title>icon_patients</title>
    <desc>Created with Sketch.</desc>
    <defs></defs>
    <g id="Page-1" stroke="none" stroke-width="1" fill="none" fill-rule="evenodd">
        <g id="icon_patients" fill="#FFFFFF">
            <path d="M15.9479675,35.7723577 C13.9447154,35.7203252 11.9154472,35.6943089 9.91219512,35.5902439 C8.14308943,35.5121951 6.4,35.2520325 4.73495935,34.5495935 C2.21138211,33.5089431 0.702439024,31.6357724 0.234146341,28.9821138 C-0.286178862,26.0682927 0.104065041,23.2325203 1.24878049,20.500813 C1.74308943,19.3560976 2.36747967,18.2894309 3.12195122,17.2747967 C3.64227642,16.5463415 4.55284553,16.3902439 5.22926829,16.8845528 C5.90569106,17.3788618 6.06178862,18.2634146 5.54146341,18.9918699 C4.57886179,20.3186992 3.8504065,21.7235772 3.43414634,23.3105691 C2.99186992,24.9495935 2.86178862,26.6146341 3.12195122,28.3056911 C3.4601626,30.4130081 4.73495935,31.6097561 6.73821138,32.1560976 C8.22113821,32.5463415 9.7300813,32.702439 11.2650407,32.7284553 C14.2569106,32.7544715 17.2747967,32.7804878 20.2666667,32.7544715 C21.9056911,32.7284553 23.5447154,32.6243902 25.1317073,32.1560976 C27.4731707,31.4796748 28.6178862,30.204878 28.8260163,27.499187 C29.0341463,24.5333333 28.2796748,21.8276423 26.5626016,19.3821138 C26.2243902,18.9138211 26.0943089,18.4195122 26.302439,17.8731707 C26.5105691,17.3528455 26.900813,17.0146341 27.4731707,16.9365854 C28.0455285,16.8585366 28.5398374,17.0406504 28.8780488,17.5349593 C29.8406504,18.8878049 30.595122,20.3447154 31.0894309,21.9056911 C31.7138211,23.8829268 31.9479675,25.8861789 31.7658537,27.9674797 C31.4276423,31.6617886 29.4243902,34.0552846 25.8081301,35.0178862 C23.9609756,35.5121951 22.0878049,35.6422764 20.1886179,35.6943089 C18.7837398,35.7203252 17.3528455,35.6943089 15.9479675,35.6943089 L15.9479675,35.7723577" id="Shape"></path>
            <path d="M15.8699187,18.6276423 C10.6926829,18.6276423 6.55609756,14.4390244 6.55609756,9.18373984 C6.58211382,4.16260163 10.8227642,0 15.9479675,0 C21.0211382,0 25.2097561,4.18861789 25.2357724,9.28780488 C25.2357724,14.4390244 21.0471545,18.6276423 15.8699187,18.6276423 M15.895935,15.6617886 C19.2780488,15.7138211 22.1918699,12.8520325 22.2439024,9.44390244 C22.295935,5.8796748 19.4861789,2.99186992 15.9479675,2.9398374 C12.4357724,2.88780488 9.54796748,5.72357724 9.52195122,9.28780488 C9.52195122,12.7739837 12.3577236,15.6097561 15.895935,15.6617886" id="Shape"></path>
        </g>
    </g>
</svg>