<?xml version="1.0" encoding="UTF-8" standalone="no"?>
<svg width="32px" height="24px" viewBox="0 0 32 24" version="1.1" xmlns="http://www.w3.org/2000/svg" xmlns:xlink="http://www.w3.org/1999/xlink">
    <!-- Generator: Sketch 3.6 (26304) - http://www.bohemiancoding.com/sketch -->
    <title>Shape</title>
    <desc>Created with Sketch.</desc>
    <defs></defs>
    <g id="Page-1" stroke="none" stroke-width="1" fill="none" fill-rule="evenodd">
        <path d="M26.166,11.0853721 C28.034,6.79537213 26.882,4.06737213 25.944,2.75337213 C24.52,0.759372133 21.926,-0.334627867 19.648,0.103372133 C15.688,0.859372133 14,3.54337213 14,9.08537213 L14,13.7133721 L11.684,11.3973721 C11.294,11.0073721 10.66,11.0073721 10.27,11.3973721 C9.88,11.7873721 9.88,12.4213721 10.27,12.8113721 L14.294,16.8333721 C14.496,17.0353721 14.762,17.1273721 15.026,17.1213721 C15.29,17.1273721 15.556,17.0353721 15.758,16.8333721 L19.802,12.7913721 C20.192,12.4013721 20.192,11.7673721 19.802,11.3773721 C19.412,10.9873721 18.778,10.9873721 18.388,11.3773721 L16,13.7633721 L16,9.08537213 C16,3.31737213 17.986,2.45737213 20.02,2.06737213 C21.326,1.82737213 23.216,2.37537213 24.314,3.91537213 C25.658,5.79337213 25.4,8.57937213 23.588,11.7553721 C23.396,12.0933721 23.416,12.5113721 23.64,12.8273721 C23.864,13.1433721 24.258,13.3033721 24.632,13.2353721 C24.874,13.1933721 25.596,13.0833721 26.052,13.0833721 C28.23,13.0833721 30,14.8773721 30,17.0853721 C30,19.2913721 28.206,21.0853721 26,21.0853721 L6.146,21.0973721 C3.822,20.7533721 2,18.5513721 2,16.0853721 C2,13.6293721 3.844,11.5153721 6.292,11.1653721 L7.152,11.0413721 C7.644,10.9713721 8.01,10.5493721 8.01,10.0513721 L7.994,8.98737213 C8,5.40537213 10.208,2.46137213 13.25,1.98737213 C13.794,1.90137213 14.168,1.39137213 14.084,0.845372133 C13.998,0.299372133 13.5,-0.0706278668 12.94,0.0113721332 C8.92,0.637372133 6,4.41137213 5.994,8.98337213 C5.994,8.98537213 6.01,9.18537213 6.01,9.18537213 L6.01,9.18537213 C2.584,9.67537213 0,12.6413721 0,16.0853721 C0,19.5773721 2.516,22.5813721 6,23.0853721 L26,23.0853721 C29.308,23.0853721 32,20.3933721 32,17.0853721 C32,13.8133721 29.392,11.1453721 26.166,11.0853721 L26.166,11.0853721 Z" id="Shape" fill="#FFFFFF"></path>
    </g>
</svg>