<?xml version="1.0" encoding="UTF-8" standalone="no"?>
<svg width="32px" height="32px" viewBox="0 0 32 32" version="1.1" xmlns="http://www.w3.org/2000/svg" xmlns:xlink="http://www.w3.org/1999/xlink">
    <!-- Generator: Sketch 3.6 (26304) - http://www.bohemiancoding.com/sketch -->
    <title>Shape</title>
    <desc>Created with Sketch.</desc>
    <defs></defs>
    <g id="Page-1" stroke="none" stroke-width="1" fill="none" fill-rule="evenodd">
        <path d="M29.3355102,17.0840816 L25.92,17.0840816 L25.92,16.0587755 C25.92,15.3208163 25.3257143,14.7265306 24.5877551,14.7265306 C23.8497959,14.7265306 23.2555102,15.3208163 23.2555102,16.0587755 L23.2555102,17.0840816 L8.75102041,17.0840816 L8.75102041,16.0587755 C8.75102041,15.3208163 8.15673469,14.7265306 7.41877551,14.7265306 C6.68081633,14.7265306 6.08653061,15.3208163 6.08653061,16.0587755 L6.08653061,17.0840816 L2.6644898,17.0840816 L2.6644898,8.18285714 L29.3289796,8.18285714 L29.3289796,17.0840816 L29.3355102,17.0840816 L29.3355102,17.0840816 Z M2.6644898,29.3355102 L2.6644898,19.755102 L6.08,19.755102 L6.08,20.7804082 C6.08,21.5183673 6.67428571,22.1126531 7.4122449,22.1126531 C8.15020408,22.1126531 8.7444898,21.5183673 8.7444898,20.7804082 L8.7444898,19.755102 L23.242449,19.755102 L23.242449,20.7804082 C23.242449,21.5183673 23.8367347,22.1126531 24.5746939,22.1126531 C25.3126531,22.1126531 25.9069388,21.5183673 25.9069388,20.7804082 L25.9069388,19.755102 L29.322449,19.755102 L29.322449,29.3355102 L2.6644898,29.3355102 L2.6644898,29.3355102 L2.6644898,29.3355102 Z M11.2065306,2.6644898 L19.8138776,2.6644898 L19.8138776,5.39428571 L11.2065306,5.39428571 L11.2065306,2.6644898 L11.2065306,2.6644898 Z M30.6677551,5.51183673 L22.4783673,5.51183673 L22.4783673,2.10938776 C22.4783673,0.946938776 21.5314286,0 20.3689796,0 L10.6514286,0 C9.48897959,0 8.54204082,0.946938776 8.54204082,2.10938776 L8.54204082,5.51183673 L1.3322449,5.51183673 C0.594285714,5.51183673 0,6.10612245 0,6.84408163 L0,30.6612245 C0,31.3991837 0.594285714,31.9934694 1.3322449,31.9934694 L30.6677551,31.9934694 C31.4057143,31.9934694 32,31.3991837 32,30.6612245 L32,6.84408163 C32,6.11265306 31.4057143,5.51183673 30.6677551,5.51183673 L30.6677551,5.51183673 Z" id="Shape" fill="#FFFFFF"></path>
    </g>
</svg>