<?xml version="1.0" encoding="UTF-8" standalone="no"?>
<svg width="32px" height="32px" viewBox="0 0 32 32" version="1.1" xmlns="http://www.w3.org/2000/svg" xmlns:xlink="http://www.w3.org/1999/xlink">
    <!-- Generator: Sketch 3.6 (26304) - http://www.bohemiancoding.com/sketch -->
    <title>Shape</title>
    <desc>Created with Sketch.</desc>
    <defs></defs>
    <g id="Page-1" stroke="none" stroke-width="1" fill="none" fill-rule="evenodd">
        <path d="M12.964205,7.33836998 C12.5477013,2.5474871 7.54965689,0.196748934 7.33813407,0.100800437 C7.13969513,0.00703258866 6.91726907,-0.0213158308 6.7035656,0.0157551793 C0.933571929,0.973059496 0.0656741658,4.33125687 0.0307838035,4.47081832 C-0.0171904448,4.66707661 -0.00846785417,4.86987684 0.05259028,5.05959319 C6.93471425,26.4124949 21.2375822,30.3703704 25.9390585,31.6722171 C26.301046,31.7725269 26.5997947,31.8532108 26.8265821,31.9273528 C26.9356145,31.9644239 27.0490082,31.9796884 27.1624018,31.9796884 C27.3172278,31.9796884 27.4720538,31.9469787 27.6137959,31.8815592 C27.7577186,31.8161398 31.1551677,30.2155444 31.9859944,24.995074 C32.0230654,24.7682866 31.9859944,24.5327767 31.8813233,24.3277958 C31.8071813,24.1838731 30.0299535,20.8016886 25.1016898,19.6066936 C24.7571475,19.5172871 24.4038826,19.6088743 24.1378435,19.8356616 C22.5830418,21.1636761 20.4351038,22.5789164 19.5083286,22.7250198 C13.2956634,19.6873776 9.82625303,13.8585064 9.69541418,12.7529181 C9.61909151,12.1314335 11.0430544,9.94860521 12.6807208,8.17355803 C12.8878823,7.94895132 12.9925534,7.64366065 12.964205,7.33836998 L12.964205,7.33836998 Z" id="Shape" fill="#595959"></path>
    </g>
</svg>