<?xml version="1.0" encoding="UTF-8" standalone="no"?>
<svg width="32px" height="35px" viewBox="0 0 32 35" version="1.1" xmlns="http://www.w3.org/2000/svg" xmlns:xlink="http://www.w3.org/1999/xlink">
    <!-- Generator: Sketch 3.6 (26304) - http://www.bohemiancoding.com/sketch -->
    <title>Group</title>
    <desc>Created with Sketch.</desc>
    <defs></defs>
    <g id="Page-1" stroke="none" stroke-width="1" fill="none" fill-rule="evenodd">
        <g id="Group" fill="#5789C7">
            <path d="M5.07042501,25.8723293 C4.44367285,25.8472593 3.86706085,25.8723293 3.31551895,25.7469789 C1.43526246,25.4210678 0.0814777814,23.8165822 0.0313376082,21.8861856 C-0.0188025649,20.557471 0.00626752164,19.2287564 0.00626752164,17.9000418 L0.00626752164,4.23684463 C0.00626752164,2.15602745 1.28484194,0.526471818 3.26537878,0.100280346 C3.5912899,0.0250700866 3.94227111,0 4.29325233,0 L27.8089935,0 C30.2157218,0 31.995698,1.80504623 31.995698,4.21177455 C31.995698,10.0029645 31.9706279,15.8192246 31.995698,21.6104146 C31.995698,24.1675635 29.9399509,25.9224695 27.7337833,25.8723293 C24.2991814,25.7971191 20.8645796,25.8472593 17.4299777,25.8472593 C17.1040666,25.8472593 16.9035059,25.9475396 16.7280153,26.2233106 C14.8226887,29.4072116 12.2404698,31.9142202 8.93121834,33.6440562 C8.42981661,33.9198271 7.90334479,34.1454579 7.35180289,34.3460186 C6.12336865,34.7972802 5.04535492,34.0702477 5.04535492,32.7415331 C5.02028484,30.6105757 5.04535492,28.4545483 5.04535492,26.3235909 C5.07042501,26.1731704 5.07042501,26.0227499 5.07042501,25.8723293 L5.07042501,25.8723293 Z M8.35460635,30.2345244 C8.55516704,30.109174 8.65544739,30.0590338 8.78079782,29.9838235 C11.2125962,28.379338 13.1179228,26.2734507 14.4717075,23.6912318 C14.8728289,22.9391292 15.4494409,22.6132181 16.3018238,22.6132181 C20.112477,22.6382882 23.9231301,22.6132181 27.7588534,22.6132181 C28.1098346,22.6132181 28.4357457,22.5630779 28.6112363,22.2371668 C28.7365867,22.011536 28.7867269,21.7357651 28.7867269,21.4599941 L28.7867269,4.38726515 C28.7867269,4.23684463 28.7867269,4.06135403 28.7365867,3.91093351 C28.6363064,3.53488221 28.4106756,3.30925143 28.0346243,3.25911126 C27.8591337,3.23404117 27.658573,3.23404117 27.4830824,3.23404117 L9.30726964,3.23404117 L4.31832241,3.23404117 C3.5912899,3.23404117 3.29044886,3.53488221 3.29044886,4.26191472 L3.29044886,21.5853445 C3.29044886,22.2622369 3.61635999,22.588148 4.26818224,22.588148 L6.49941995,22.588148 C7.7027841,22.588148 8.32953627,23.2149002 8.32953627,24.4182643 L8.32953627,29.7080526 L8.32953627,30.2345244 L8.35460635,30.2345244 Z" id="Shape"></path>
            <path d="M11.5797171,18.21875 C10.5797171,18.21875 9.57971714,18.24375 8.57971714,18.21875 C7.82971714,18.19375 7.25471714,17.71875 7.05471714,17.01875 C6.87971714,16.36875 7.12971714,15.61875 7.72971714,15.26875 C7.97971714,15.11875 8.30471714,15.01875 8.57971714,15.01875 C10.5797171,14.99375 12.5797171,14.99375 14.5797171,15.01875 C15.4297171,15.01875 16.1547171,15.71875 16.1547171,16.56875 C16.1797171,17.46875 15.5297171,18.21875 14.6297171,18.24375 C13.6297171,18.24375 12.6047171,18.21875 11.5797171,18.21875 L11.5797171,18.21875" id="Shape"></path>
            <path d="M16.475,8.025 L24.275,8.025 C25.45,8.025 26.225,9.05 25.875,10.125 C25.675,10.75 25.25,11.125 24.6,11.225 C24.475,11.25 24.325,11.25 24.2,11.25 L8.725,11.25 C7.7,11.25 7,10.575 7,9.625 C7,8.675 7.725,8 8.725,8 C11.3,8.025 13.875,8.025 16.475,8.025" id="Shape"></path>
        </g>
    </g>
</svg>