<?xml version="1.0" encoding="UTF-8" standalone="no"?>
<svg width="32px" height="46px" viewBox="0 0 32 46" version="1.1" xmlns="http://www.w3.org/2000/svg" xmlns:xlink="http://www.w3.org/1999/xlink">
    <!-- Generator: Sketch 3.6 (26304) - http://www.bohemiancoding.com/sketch -->
    <title>Shape</title>
    <desc>Created with Sketch.</desc>
    <defs></defs>
    <g id="Page-1" stroke="none" stroke-width="1" fill="none" fill-rule="evenodd">
        <path d="M14.9611131,44.8919015 C15.2008562,45.1573314 15.4320371,45.3285765 15.6546557,45.4484481 C15.6575098,45.4513022 15.663218,45.4513022 15.6660721,45.4541563 C15.8201927,45.5340706 15.9714592,45.5940064 16.1141634,45.5940064 C16.2568676,45.5940064 16.4081341,45.5340706 16.5622547,45.4541563 C16.5651088,45.4513022 16.570817,45.4513022 16.5736711,45.4484481 C16.7962897,45.3285765 17.0274706,45.1573314 17.2672137,44.8919015 C17.2672137,44.8919015 30.5330004,30.4645023 31.865858,17.9636104 C31.9457724,17.3185872 32,16.6650018 32,16 C32,7.16375312 24.8362469,0 16,0 C7.16375312,0 0,7.16375312 0,16 C0,16.6764181 0.0542276133,17.3357117 0.136996076,17.9892972 C1.50410275,30.4844809 14.9611131,44.8919015 14.9611131,44.8919015 L14.9611131,44.8919015 Z M16,5.70816982 C21.6739208,5.70816982 26.2918302,10.3260792 26.2918302,16 C26.2918302,21.6739208 21.6739208,26.2918302 16,26.2918302 C10.3260792,26.2918302 5.70816982,21.6739208 5.70816982,16 C5.70816982,10.3260792 10.3260792,5.70816982 16,5.70816982 L16,5.70816982 Z" id="Shape" fill="#595959"></path>
    </g>
</svg>