<?xml version="1.0" encoding="UTF-8" standalone="no"?>
<svg width="32px" height="24px" viewBox="0 0 32 24" version="1.1" xmlns="http://www.w3.org/2000/svg" xmlns:xlink="http://www.w3.org/1999/xlink">
    <!-- Generator: Sketch 3.6 (26304) - http://www.bohemiancoding.com/sketch -->
    <title>Group</title>
    <desc>Created with Sketch.</desc>
    <defs></defs>
    <g id="Page-1" stroke="none" stroke-width="1" fill="none" fill-rule="evenodd">
        <g id="Group" fill="#B2B2B5">
            <path d="M30.4,0 C31.426087,0 31.9130435,0.486956522 31.9130435,1.51304348 L31.9130435,13.7913043 C31.9130435,14.8347826 31.426087,15.3217391 30.4,15.3217391 L14.226087,15.3217391 C13.4434783,15.3217391 13.026087,15.026087 12.7652174,14.2782609 C11.3217391,10.1565217 9.87826087,6.03478261 8.43478261,1.91304348 C8.05217391,0.782608696 8.60869565,0 9.82608696,0 L20.1217391,0 L30.4,0 M12.0869565,4.60869565 C12.9913043,7.2 13.9130435,9.79130435 14.8,12.3652174 C14.8869565,12.5913043 14.9391304,12.7652174 15.2695652,12.7652174 C19.8782609,12.7478261 24.4869565,12.7478261 29.0956522,12.7478261 C29.1652174,12.7478261 29.2347826,12.7478261 29.3391304,12.7304348 L29.3391304,2.59130435 L11.3913043,2.59130435 C11.6347826,3.28695652 11.8608696,3.94782609 12.0869565,4.60869565" id="Shape"></path>
            <path d="M20.8869565,19.1478261 L30.4521739,19.1478261 C31.2,19.1478261 31.6695652,18.8347826 31.8434783,18.226087 C32.0347826,17.5652174 31.6869565,16.8695652 31.026087,16.6782609 C30.8,16.6086957 30.5565217,16.5913043 30.3304348,16.5913043 L12.6086957,16.5913043 C12.2086957,16.5913043 12.0173913,16.4869565 11.8956522,16.1043478 C10.1913043,11.1130435 8.45217391,6.10434783 6.71304348,1.09565217 C6.43478261,0.27826087 6.05217391,0 5.1826087,0 L1.46086957,0 C0.591304348,0 0,0.52173913 0,1.26956522 C0,2.03478261 0.573913043,2.55652174 1.44347826,2.55652174 C2.34782609,2.55652174 3.25217391,2.57391304 4.13913043,2.55652174 C4.4173913,2.55652174 4.53913043,2.62608696 4.64347826,2.90434783 C6.34782609,7.84347826 8.05217391,12.7652174 9.75652174,17.7043478 C9.80869565,17.8434783 9.86086957,17.9826087 9.91304348,18.1217391 C10.1913043,18.8869565 10.573913,19.1478261 11.373913,19.1478261 C14.5391304,19.1478261 17.7217391,19.1478261 20.8869565,19.1478261" id="Shape"></path>
            <path d="M30,20.1217391 C28.9391304,20.1217391 28.1043478,20.9913043 28.1043478,22.0521739 C28.1043478,23.0782609 28.973913,23.9304348 30,23.9478261 C31.0434783,23.9478261 31.9304348,23.0782609 31.9304348,22.0347826 C31.9130435,20.973913 31.0608696,20.1217391 30,20.1217391" id="Shape"></path>
            <path d="M12.7826087,20.1217391 C11.7217391,20.1217391 10.8695652,20.9565217 10.8695652,22.0173913 C10.8695652,23.0608696 11.7391304,23.9304348 12.7826087,23.9304348 C13.826087,23.9304348 14.6956522,23.0608696 14.6782609,22 C14.6608696,20.973913 13.826087,20.1217391 12.7826087,20.1217391" id="Shape"></path>
        </g>
    </g>
</svg>