<?xml version="1.0" encoding="UTF-8" standalone="no"?>
<svg width="32px" height="32px" viewBox="0 0 32 32" version="1.1" xmlns="http://www.w3.org/2000/svg" xmlns:xlink="http://www.w3.org/1999/xlink">
    <!-- Generator: Sketch 3.6 (26304) - http://www.bohemiancoding.com/sketch -->
    <title>Shape</title>
    <desc>Created with Sketch.</desc>
    <defs></defs>
    <g id="Page-1" stroke="none" stroke-width="1" fill="none" fill-rule="evenodd">
        <path d="M23.586,9.444 C24.466,10.11 25.558,10.508 26.746,10.508 C29.648,10.508 32,8.156 32,5.254 C32,2.352 29.648,0 26.746,0 C23.846,0 21.492,2.352 21.492,5.254 L21.492,5.258 L8.524,11.528 C7.626,10.812 6.49,10.38 5.254,10.38 C2.352,10.38 0,12.734 0,15.634 C0,18.534 2.352,20.888 5.254,20.888 C6.302,20.888 7.278,20.576 8.098,20.048 L21.494,26.524 L21.494,26.528 C21.494,29.43 23.846,31.782 26.748,31.782 C29.65,31.782 32.002,29.43 32.002,26.528 C32.002,23.626 29.65,21.274 26.748,21.274 C25.56,21.274 24.468,21.672 23.588,22.338 L10.488,16.006 C10.494,15.926 10.498,15.848 10.5,15.768 L23.586,9.444 L23.586,9.444 Z" id="Shape" fill="#5789C7"></path>
    </g>
</svg>