<?xml version="1.0" encoding="UTF-8" standalone="no"?>
<svg width="32px" height="31px" viewBox="0 0 32 31" version="1.1" xmlns="http://www.w3.org/2000/svg" xmlns:xlink="http://www.w3.org/1999/xlink">
    <!-- Generator: Sketch 3.6 (26304) - http://www.bohemiancoding.com/sketch -->
    <title>Shape</title>
    <desc>Created with Sketch.</desc>
    <defs></defs>
    <g id="Page-1" stroke="none" stroke-width="1" fill="none" fill-rule="evenodd">
        <path d="M31.9014515,11.5534062 C31.6651773,10.8285651 31.0384501,10.2999517 30.2835742,10.1918262 L21.6535602,8.93837178 L17.795083,1.11729647 C17.4566903,0.43250186 16.7618841,0 15.9989988,0 C15.2361136,0 14.5413074,0.43250186 14.2029147,1.11729647 L10.3444375,8.93636946 L1.7144235,10.1898239 C0.959547565,10.2999517 0.332820332,10.8285651 0.0985484912,11.5534062 C-0.137725674,12.2782472 0.0585020227,13.0731696 0.605136318,13.6057877 L6.85038309,19.6928509 L5.37667305,28.2888254 C5.24852435,29.0396967 5.55688216,29.7985772 6.17359777,30.2470977 C6.51999973,30.5013928 6.93247835,30.6295415 7.34896163,30.6295415 C7.66733105,30.6295415 7.9877028,30.5534532 8.28004202,30.3992743 L15.9989988,26.3405647 L23.7179557,30.3992743 C24.0102949,30.5534532 24.3306666,30.6295415 24.6490361,30.6295415 C25.063517,30.6295415 25.4779979,30.5013928 25.8264022,30.2470977 C26.4431178,29.7985772 26.7514757,29.0396967 26.623327,28.2888254 L25.1496169,19.6928509 L31.3948637,13.6057877 C31.941498,13.0731696 32.1377257,12.2782472 31.9014515,11.5534062 L31.9014515,11.5534062 L31.9014515,11.5534062 Z" id="Shape" fill="#5789C7"></path>
    </g>
</svg>