<?xml version="1.0" encoding="utf-8"?>
<!-- Generator: Adobe Illustrator 18.0.0, SVG Export Plug-In . SVG Version: 6.00 Build 0)  -->
<!DOCTYPE svg PUBLIC "-//W3C//DTD SVG 1.1//EN" "http://www.w3.org/Graphics/SVG/1.1/DTD/svg11.dtd">
<svg version="1.1" id="Capa_1" xmlns="http://www.w3.org/2000/svg" xmlns:xlink="http://www.w3.org/1999/xlink" x="0px" y="0px"
	 viewBox="0 0 284.5 150.3" enable-background="new 0 0 284.5 150.3" xml:space="preserve">
<g>
	<path fill="#F27621" d="M142.3,45.2c-0.4,0-0.8,0-1.1,0c-1.2,0-2.3-0.1-3.5-0.1c-0.9-0.1-1.9-0.1-2.8-0.2c-1-0.1-2-0.3-3-0.5
		c-1.5-0.2-2.9-0.5-4.4-0.8c-1.9-0.4-3.8-0.9-5.7-1.6c-1.5-0.5-2.9-1-4.3-1.7c-2.2-1-4.2-2.1-6.2-3.5c-1-0.7-1.9-1.3-2.7-2.2
		c-0.4-0.4-0.9-0.8-1.3-1.2c-1.6-1.7-2.9-3.5-3.8-5.6c-0.4-1-0.7-1.9-0.9-3c-0.2-1.2-0.2-2.4-0.1-3.6c0-0.7,0.2-1.4,0.4-2
		c0.2-0.9,0.6-1.8,1-2.6c0.6-1.2,1.3-2.4,2.2-3.4c0.9-1,1.8-2,2.8-2.9c1.2-1.1,2.5-1.9,3.8-2.8c1.5-1,3.1-1.8,4.8-2.6
		c1.9-0.9,4-1.6,6-2.2c1.6-0.5,3.1-0.9,4.7-1.2c0.8-0.1,1.7-0.4,2.5-0.6c0.3-0.1,0.7-0.1,1-0.1c0.8-0.1,1.6-0.3,2.4-0.4
		c0.5-0.1,1.1-0.1,1.7-0.1c0.7-0.1,1.4-0.2,2.2-0.2c0.1,0,0.1,0,0.2,0c1.8,0,3.5-0.2,5.3-0.1c1.1,0,2.3,0,3.4,0.1
		c0.9,0.1,1.8,0.2,2.8,0.2c0.8,0.1,1.6,0.2,2.3,0.3c0.7,0.1,1.3,0.2,2,0.3c0.6,0.1,1.3,0.2,1.9,0.4c0.7,0.2,1.5,0.3,2.2,0.5
		c1.4,0.4,2.8,0.7,4.2,1.2c1.5,0.5,3,1,4.4,1.6c1.6,0.7,3.1,1.4,4.5,2.3c0.6,0.4,1.3,0.7,1.9,1.1c0.7,0.5,1.4,1.1,2.2,1.6
		c1,0.8,1.9,1.6,2.8,2.6c0.9,0.9,1.7,1.9,2.3,3.1c0.7,1.2,1.3,2.5,1.7,3.9c0.1,0.6,0.2,1.2,0.4,1.8c0.2,0.6,0.1,1.3,0.1,2
		c0,0.7-0.1,1.4-0.2,2.1c-0.3,1.3-0.7,2.5-1.3,3.7c-0.6,1.2-1.3,2.3-2.2,3.3c-0.8,0.9-1.7,1.9-2.6,2.7c-1.2,1.1-2.5,2-3.9,2.9
		c-0.8,0.5-1.6,1-2.4,1.4c-0.7,0.4-1.5,0.8-2.3,1.1c-1.6,0.7-3.3,1.4-5,1.9c-1.6,0.5-3.2,1-4.8,1.4c-1.1,0.3-2.1,0.5-3.2,0.6
		c-1.1,0.2-2.2,0.3-3.3,0.5c-0.8,0.1-1.5,0.2-2.3,0.2c-0.6,0-1.2,0.1-1.8,0.2c-0.1,0-0.1,0-0.2,0C145.4,45.2,143.8,45.2,142.3,45.2
		C142.3,45.2,142.3,45.2,142.3,45.2z M110.7,15.7c-0.3,0.2-0.6,0.3-0.9,0.5c-1,0.5-1.9,1.1-2.9,1.6c-0.1,0.1-0.1,0.1-0.1,0.2
		c0.4,0.7,0.9,1.5,1.3,2.2c0.8,1.4,1.6,2.8,2.4,4.2c0.8,1.4,1.7,2.9,2.5,4.3c0.2,0.4,0.5,0.7,0.7,1.1c0.1,0.2,0.2,0.2,0.4,0.1
		c0.1,0,0.1-0.1,0.2-0.1c0.7-0.4,1.4-0.8,2.1-1.2c0.4-0.2,0.7-0.4,1.1-0.7c0.1,0,0.2-0.1,0.1-0.3c-0.6-1-1.2-2-1.7-2.9
		c-0.1-0.1-0.1-0.2,0.1-0.3c0.7-0.4,1.3-0.8,2-1.2c0.7-0.4,1.4-0.8,2.1-1.2c0.7-0.4,1.3-0.8,2-1.1c0.2-0.1,0.3-0.1,0.6,0
		c0.8,0.5,1.6,1,2.4,1.5c1.2,0.8,2.5,1.4,3.8,2c1.4,0.6,2.8,1.1,4.2,1.5c1.4,0.4,2.8,0.8,4.2,0.9c0.3,0,0.7,0.1,1,0.2
		c0.2,0,0.4,0.1,0.4,0.4c0,2.2,0,4.4,0,6.5c0,0.4,0,0.4-0.4,0.4c-0.9,0-1.9,0-2.8,0c-0.5,0-0.5,0-0.5,0.5c0,1.1,0,2.2,0,3.2
		c0,0.8-0.1,0.7,0.7,0.7c4.3,0,8.6,0,12.8,0c0.1,0,0.2,0,0.4,0c0.2,0,0.3-0.1,0.3-0.3c0-1.3,0-2.6,0-3.8c0-0.3-0.1-0.3-0.3-0.3
		c-0.5,0-1,0-1.4,0c-0.6,0-1.2,0-1.7,0c-0.3,0-0.4-0.1-0.3-0.3c0-0.1,0-0.2,0-0.2c0-2.1,0-4.1,0-6.2c0-0.1,0-0.2,0-0.3
		c0-0.2,0.1-0.2,0.2-0.3c0.9-0.1,1.8-0.2,2.6-0.4c1-0.2,2-0.4,3-0.7c1.1-0.3,2.1-0.7,3.2-1.1c1-0.4,2-0.9,3-1.4
		c0.9-0.5,1.8-1,2.7-1.7c0.4-0.3,0.8-0.6,1.2-0.8c0.1-0.1,0.3-0.2,0.5,0c0.3,0.2,0.6,0.4,0.9,0.5c1.2,0.7,2.5,1.4,3.7,2.2
		c0.4,0.3,0.9,0.5,1.3,0.8c0.1,0.1,0.2,0.1,0.1,0.3c-0.6,1-1.2,2-1.8,3c-0.1,0.1-0.1,0.2,0.1,0.3c0.5,0.3,1,0.6,1.6,0.9
		c0.6,0.3,1.2,0.7,1.8,1c0.2,0.1,0.4,0.1,0.5-0.1c0.4-0.7,0.8-1.3,1.1-1.9c0.5-0.9,1.1-1.8,1.6-2.7c0.6-1.1,1.3-2.2,1.9-3.3
		c0.3-0.6,0.7-1.2,1-1.8c0.3-0.6,0.7-1.2,1-1.8c0.2-0.4,0.2-0.4-0.2-0.7c-0.4-0.2-0.7-0.4-1.1-0.6c-0.8-0.5-1.6-0.9-2.4-1.4
		c-0.3,0.5-0.6,1-0.9,1.5c-0.3,0.5-0.6,1.1-0.9,1.6c-0.1,0.1-0.2,0.1-0.3,0.1c-0.3-0.2-0.7-0.4-1-0.5c-1-0.6-2-1.2-2.9-1.7
		c-0.9-0.5-1.8-1-2.7-1.5c-1-0.6-2-1.2-2.9-1.7c-0.5-0.3-0.5-0.2-1,0.1c-0.7,0.6-1.4,1.1-2.1,1.7c-0.8,0.6-1.6,1.1-2.4,1.6
		c-1,0.6-2,1-3,1.5c-1.6,0.8-3.2,1.3-4.9,1.7c-0.9,0.2-1.9,0.4-2.8,0.5c-1,0.1-2,0.2-3.1,0.2c-0.7,0-1.5,0.1-2.2-0.1
		c-0.4-0.1-0.9,0-1.4-0.1c-1-0.1-1.9-0.3-2.8-0.5c-1.4-0.3-2.7-0.7-4-1.3c-1.2-0.5-2.4-1.1-3.5-1.7c-1.6-0.8-3-1.8-4.4-3
		c-0.3-0.3-0.6-0.5-0.9-0.7c-0.1-0.1-0.2-0.1-0.3,0c-0.5,0.2-0.9,0.5-1.4,0.7c-1.5,0.9-3,1.7-4.5,2.6c-1.3,0.7-2.6,1.5-3.9,2.2
		c-0.2,0.1-0.3,0.2-0.4-0.1C111.9,17.7,111.3,16.7,110.7,15.7z M152.6,16.7c0.3,0,0.6,0.1,0.9,0c0.9-0.3,1.7-0.6,2.3-1.3
		c1-1,1.3-2.2,1.2-3.6c-0.1-0.7-0.2-1.3-0.6-1.9c-0.3-0.5-0.7-1-1.2-1.3c-1.2-0.8-2.4-1.1-3.8-0.7c-0.8,0.2-1.6,0.6-2.2,1.2
		c-0.8,0.9-1.3,2-1.3,3.3c0,1.2,0.4,2.2,1.3,3.1C150.3,16.2,151.3,16.7,152.6,16.7z M131.5,16.7c2.6,0,4.5-2,4.6-4.4
		c0-2.6-2-4.5-4.4-4.6c-2.7-0.1-4.7,2-4.7,4.5C127,14.6,128.9,16.7,131.5,16.7z M142,18.8c1.5,0.1,2.5-0.5,3.4-1.3
		c0.9-0.9,1.3-2,1.3-3.2c0-1.2-0.4-2.4-1.3-3.2c-0.8-0.8-1.8-1.2-3-1.3c-2.7,0-4.6,2-4.6,4.5C137.7,16.8,139.5,18.8,142,18.8z"/>
	<g>
		<path fill="#5789C7" d="M244.9,63.8c-0.8,0-1.5,0-2.3,0c-2.3,0-4.6,0-6.8,0c-0.4,0-0.6,0.1-0.8,0.5c-0.6,1-1.3,2.1-1.9,3.1
			c-0.6,1-1.2,2-1.9,3c-0.5,0.8-1,1.6-1.5,2.4c-0.6,1-1.2,2-1.8,2.9c-0.6,1-1.2,2-1.9,3c-0.2,0.3-0.3,0.6-0.3,1c0,6.9,0,13.8,0,20.6
			c0,0.8,0.1,0.7-0.7,0.7c-5.4,0-10.8,0-16.2,0c-0.1,0-0.2,0-0.4,0c-0.3,0-0.4-0.1-0.3-0.3c0-0.2,0-0.3,0-0.5c0-6.9,0-13.8,0-20.6
			c0-0.5-0.2-1-0.5-1.4c-0.7-0.9-1.3-1.8-2-2.7c-1-1.4-1.9-2.7-2.9-4.1c-0.8-1.1-1.6-2.2-2.3-3.3c-0.9-1.3-1.9-2.5-2.7-3.8
			c-0.4-0.6-0.8-0.7-1.5-0.7c-9.3,0-18.5,0-27.8,0c-0.8,0-0.7-0.1-0.7,0.7c0,2.1,0,4.3,0,6.4c0,0.1,0,0.3,0,0.4
			c0,0.2,0.1,0.2,0.3,0.2c0.2,0,0.3,0,0.5,0c5,0,10,0,15.1,0c0.2,0,0.3,0,0.5,0c0.2,0,0.3,0.1,0.3,0.3c0,0.1,0,0.2,0,0.4
			c0,3.2,0,6.4,0,9.7c0,0.1,0,0.2,0,0.4c0,0.2-0.1,0.3-0.2,0.3c-0.2,0-0.3,0-0.5,0c-5.1,0-10.1,0-15.2,0c-0.8,0-0.7-0.1-0.7,0.7
			c0,5.7,0,11.4,0,17.2c0,0.1,0,0.3,0,0.4c0,0.2-0.1,0.4-0.3,0.3c-0.1,0-0.2,0-0.4,0c-5.2,0-10.4,0-15.7,0c-0.8,0-0.7,0.1-0.7-0.7
			c0-15.5,0-31,0-46.5c0-0.8-0.1-0.7,0.7-0.7c19.4,0,38.7,0,58.1,0c0.1,0,0.2,0,0.4,0c0.1,0,0.2,0,0.3,0.2c0.8,1.3,1.7,2.6,2.6,3.9
			c1.3,1.9,2.5,3.8,3.8,5.7c0.7,1,1.3,2,2,3.1c0.2,0.3,0.3,0.3,0.5,0c0.3-0.5,0.6-0.9,0.9-1.4c0.8-1.3,1.6-2.6,2.4-3.9
			c0.7-1.2,1.4-2.3,2.1-3.5c0.6-1,1.3-2,1.9-3c0.2-0.3,0.4-0.5,0.5-0.8c0.1-0.2,0.3-0.3,0.5-0.3c0.1,0,0.3,0,0.4,0
			c11,0,21.9,0,32.9,0c0.3,0,0.5-0.1,0.8-0.1c0.7-0.1,1.3-0.2,2-0.3c0.6-0.1,1.3-0.2,1.9-0.2c0.4,0,0.8,0,1.1,0c0.4,0,0.8,0,1.2,0
			c0.9,0,1.8,0.1,2.7,0.2c0.5,0.1,1,0.1,1.5,0.1c0.4,0,0.9,0.1,1.3,0.2c0.5,0.1,1.1,0.2,1.6,0.3c1,0.2,1.9,0.4,2.9,0.7
			c1.2,0.4,2.4,0.8,3.5,1.3c0.8,0.3,1.5,0.8,2.4,1.1c0.6,0.2,0.7,0.6,0.7,1.2c0,4.2,0,8.5,0,12.7c0,0.1,0,0.2,0,0.4
			c-0.5-0.3-1.1-0.5-1.5-0.8c-1.5-0.9-3.1-1.7-4.7-2.4c-0.8-0.3-1.6-0.7-2.4-0.9c-0.8-0.3-1.7-0.4-2.6-0.6c-1.2-0.2-2.4-0.1-3.6-0.1
			c-0.7,0-1.5,0.2-2.2,0.4c-0.9,0.2-1.8,0.6-2.7,1c-0.6,0.3-1.1,0.8-1.7,1.2c-0.3,0.2-0.6,0.5-0.9,0.7c-0.9,0.8-1.5,1.8-2,2.9
			c-0.5,1.1-0.9,2.3-1.1,3.5c-0.1,0.7-0.2,1.5-0.2,2.2c0,1.8,0.3,3.5,1,5.1c0.6,1.5,1.5,2.7,2.7,3.7c1.2,1.1,2.7,1.8,4.3,2.3
			c0.9,0.3,1.9,0.5,2.9,0.6c1.4,0.2,2.8,0.3,4.2,0.2c0.8,0,1.6-0.2,2.4-0.4c1.8-0.4,3.6-1.1,5.3-1.8c1-0.4,2.1-0.8,3.1-1.2
			c0.1-0.1,0.2,0,0.2,0.1c0,0.1,0,0.3,0,0.4c0,3.9,0,7.8,0,11.8c0,0,0,0.1,0,0.1c0,0.4,0,0.4-0.4,0.6c-1.3,0.5-2.5,1-3.8,1.4
			c-1.1,0.4-2.3,0.7-3.5,0.9c-0.7,0.1-1.4,0.2-2.1,0.3c0,0,0,0-0.1,0c-0.7,0-1.4,0.1-2.1,0.1c-1.4,0.1-2.8,0.1-4.2,0.1
			c-0.3,0-0.7,0.2-1,0.1c-0.9-0.2-1.8,0-2.7-0.2c-0.5-0.1-1-0.1-1.5-0.1c-0.4-0.1-0.9-0.1-1.3-0.2c-1.2-0.3-2.4-0.5-3.5-0.9
			c-1.4-0.5-2.8-1.1-4.2-1.8c-1.2-0.7-2.4-1.4-3.6-2.3c-0.9-0.7-1.8-1.5-2.7-2.3c-0.6-0.6-1.1-1.2-1.6-1.9c-0.5-0.7-1.1-1.3-1.5-2
			c-0.6-0.8-1.1-1.7-1.5-2.6c-0.6-1.1-1.1-2.2-1.5-3.3c-0.3-1-0.5-2-0.8-3c-0.2-0.7-0.2-1.4-0.4-2.1c0-0.1,0-0.2,0-0.4
			c0-0.4,0-0.8,0-1.2c0-0.4,0-0.8,0-1.2c0-1.2,0.2-2.3,0.3-3.5c0.2-1.4,0.6-2.8,1.1-4.2c0.4-1,0.7-2.1,1.3-3
			C244,65.5,244.4,64.7,244.9,63.8z"/>
		<path fill="#5789C7" d="M92.5,69.2c0.5-0.7,1.1-1.2,1.5-1.8c1-1.2,2.2-2.1,3.5-2.8c0.9-0.5,1.8-0.9,2.7-1.4
			c0.7-0.3,1.4-0.4,2.1-0.4c0.4,0,0.9,0,1.3,0c0.7,0.1,1.3,0.2,2,0.2c0.6,0,1.1,0.1,1.7,0.3c1.7,0.4,3.2,1.1,4.5,2.2
			c1.1,1,2.1,2,2.7,3.4c0,0.1,0.1,0.2,0.1,0.3c0.1,0.2,0.2,0.2,0.3,0c0.4-0.4,0.8-0.8,1.2-1.2c1-1,2.1-2,3.3-2.7
			c1.4-0.9,2.9-1.6,4.6-1.9c0.8-0.1,1.6-0.2,2.5-0.2c0.3,0,0.7-0.1,1-0.1c0.8,0,1.6,0,2.4,0.1c1.4,0.2,2.9,0.4,4.2,1
			c0.9,0.4,1.7,0.8,2.5,1.4c1.1,0.9,2,2,2.7,3.3c0.7,1.3,1.1,2.8,1.4,4.3c0.2,1.1,0.3,2.2,0.4,3.3c0.2,2.3,0.1,4.7,0.1,7
			c0,2.3,0,4.7,0,7c0,3.3,0,6.6,0,9.8c0,0.7,0.1,0.6-0.6,0.6c-4.6,0-9.2,0-13.9,0c-0.1,0-0.2,0-0.4,0c-0.2,0-0.3-0.1-0.3-0.3
			c0-0.2,0-0.3,0-0.5c0-7.2,0-14.5,0-21.7c0-1-0.4-1.8-1-2.5c-0.5-0.6-1.1-1-1.9-1.2c-0.2,0-0.3-0.1-0.5-0.1c-0.4,0-0.7,0-1.1,0
			c-1.5-0.1-2.5,0.6-3.4,1.7c-0.5,0.5-0.9,1.1-1.3,1.7c-0.1,0.2-0.2,0.3-0.2,0.5c0,0.2,0,0.5,0,0.7c0,7,0,14,0,21
			c0,0.8,0.1,0.7-0.7,0.7c-4.4,0-8.8,0-13.2,0c-0.7,0-0.6,0.1-0.6-0.6c0-7.2,0-14.4,0-21.7c0-1.5-0.7-2.6-2-3.3
			c-0.3-0.2-0.6-0.3-0.9-0.5c-0.3-0.2-0.7-0.3-1-0.2c-0.6,0-1.1-0.1-1.7,0.1c-0.7,0.2-1.2,0.5-1.8,0.9c-0.8,0.6-1.4,1.4-2,2.2
			c-0.1,0.2-0.2,0.4-0.2,0.6c0,0.5,0,0.9,0,1.4c0,5.5,0,11,0,16.6c0,1.4-0.1,2.9-0.1,4.3c0,0.2-0.1,0.3-0.3,0.3c-0.4,0-0.8,0-1.1,0
			c-2.6,0-5.3,0.1-7.9,0c-1.6-0.1-3.2-0.1-4.8-0.1c-0.2,0-0.3-0.1-0.3-0.3c0-0.1,0-0.3,0-0.4c0-11.8,0-23.6,0-35.4
			c0-0.8-0.1-0.7,0.7-0.7c4.4,0,8.9,0,13.3,0c0.7,0,0.6-0.1,0.6,0.6C92.5,66.1,92.5,67.6,92.5,69.2z"/>
		<path fill="#5789C7" d="M65.7,84.6c-1.7,0-3.4,0.1-5.2,0c-1.9-0.1-3.9-0.1-5.8-0.1c-1.9,0-3.8,0-5.8,0c-0.2,0-0.5,0-0.7,0
			c0,0.2,0,0.4,0.1,0.6c0.1,0.8,0.4,1.6,0.6,2.4c0.3,0.9,0.9,1.8,1.6,2.5c0.6,0.6,1.4,1,2.2,1.3c0.7,0.3,1.4,0.4,2.2,0.5
			c1.7,0.3,3.4,0.2,5.1,0.2c0.7,0,1.4-0.2,2.1-0.3c1.3-0.2,2.6-0.7,3.9-1.1c1.1-0.4,2.2-0.9,3.3-1.3c0.6-0.2,1.1-0.4,1.7-0.7
			c0.2-0.1,0.2,0,0.2,0.2c0,0.1,0,0.2,0,0.3c0,2.8,0,5.6,0,8.4c0,0.4-0.1,0.7-0.5,0.9c-0.4,0.2-0.9,0.5-1.3,0.7
			c-1.4,0.7-2.9,1.3-4.4,1.6c-0.4,0.1-0.9,0.3-1.3,0.4c-0.6,0.1-1.2,0.3-1.8,0.4c-0.9,0.1-1.7,0.1-2.6,0.3c-1,0.2-2,0.1-3,0.1
			c-0.6,0-1.2,0-1.7,0c-1,0-1.9-0.1-2.9-0.2c-1.2-0.1-2.3-0.3-3.4-0.6c-0.9-0.3-1.9-0.6-2.8-1c-1-0.4-1.9-0.9-2.8-1.4
			c-0.8-0.5-1.5-1.1-2.2-1.6c-0.3-0.2-0.5-0.4-0.8-0.6c-0.9-0.8-1.7-1.8-2.4-2.8c-0.5-0.7-1.1-1.5-1.4-2.4c-0.3-0.7-0.6-1.4-0.9-2.1
			c-0.4-1.1-0.6-2.2-0.7-3.3c-0.1-1.1-0.2-2.1-0.2-3.2c0-0.8,0.1-1.6,0.2-2.5c0.1-0.7,0.2-1.4,0.4-2.1c0.2-0.9,0.5-1.8,0.8-2.7
			c0.2-0.7,0.6-1.3,0.9-1.9c0.7-1.3,1.4-2.5,2.5-3.5c0.2-0.2,0.4-0.5,0.7-0.8c1.1-1,2.3-2,3.6-2.7c1.3-0.8,2.7-1.3,4.2-1.7
			c0.8-0.2,1.6-0.3,2.4-0.4c0.6-0.1,1.1-0.1,1.7-0.1c0.9-0.1,1.8,0,2.6,0c0.9,0.1,1.9,0.2,2.8,0.4c0.7,0.2,1.5,0.3,2.2,0.5
			c0.6,0.2,1.2,0.5,1.7,0.7c1.4,0.5,2.6,1.3,3.7,2.1c0.7,0.5,1.3,1.2,1.9,1.8c1,1,1.8,2.1,2.5,3.3c0.9,1.5,1.5,3.1,1.8,4.8
			c0.2,0.9,0.3,1.8,0.4,2.7c0.1,1.3,0,2.5,0.1,3.8c0,0.4,0,0.4-0.4,0.4C69.2,84.6,67.5,84.6,65.7,84.6z M53,79.1c1.3,0,2.7,0,4,0
			c0.1,0,0.3,0,0.4,0c0.1,0,0.1-0.1,0.1-0.2c-0.1-0.7-0.2-1.4-0.2-2.1c0-0.8-0.2-1.6-0.5-2.4c-0.4-1.1-1.1-1.9-2.2-2.2
			c-1-0.2-2-0.3-2.9,0c-1.3,0.3-2.1,1.1-2.6,2.3c-0.3,0.6-0.4,1.3-0.5,2c-0.1,0.7-0.2,1.4-0.2,2.1c0,0.4,0,0.4,0.4,0.4
			C50.2,79.1,51.6,79.1,53,79.1z"/>
		<path fill="#5789C7" d="M27.2,75.9c-0.4-0.2-0.8-0.4-1.1-0.6c-1.8-1.1-3.6-1.9-5.6-2.3c-0.4-0.1-0.9-0.1-1.3-0.1
			c-0.6,0-1.2,0-1.9,0c-1.2,0-1.9,0.6-2.2,1.6c-0.2,0.6-0.2,1.1-0.2,1.6c0,0.5,0.3,0.8,0.7,1.1c0.8,0.6,1.6,1.1,2.6,1.4
			c0.5,0.2,1,0.4,1.4,0.7c1.2,0.5,2.3,1,3.5,1.6c1.1,0.5,2.1,1.2,3,2c0.8,0.7,1.5,1.4,2.1,2.3c0.6,0.9,1,2,1.3,3.1
			c0.3,1.1,0.3,2.3,0.2,3.4c-0.1,1-0.3,2.1-0.8,3c-0.4,0.7-0.7,1.4-1.2,2c-0.4,0.4-0.7,0.9-1.1,1.3c-0.5,0.4-0.9,0.8-1.5,1.2
			c-0.3,0.2-0.7,0.5-1,0.7c-0.9,0.4-1.7,0.9-2.6,1.2c-0.8,0.3-1.6,0.5-2.5,0.7c-0.9,0.2-1.9,0.3-2.8,0.4c-1.1,0.1-2.2,0.1-3.3,0.1
			c-0.7,0-1.4-0.1-2.1-0.2c-0.4,0-0.7-0.1-1.1-0.1c-0.6-0.1-1.1-0.1-1.7-0.3c-1.4-0.3-2.8-0.6-4.1-1.1c-1.2-0.4-2.3-0.8-3.4-1.3
			C0.1,99.1,0,98.9,0,98.6c0-1.1-0.1-2.3,0-3.4c0.2-2.2,0-4.4,0.1-6.6c0-0.1,0-0.1,0-0.2c1,0.6,2,1.1,3,1.7c1.3,0.8,2.6,1.6,4,2.3
			c0.9,0.4,1.9,0.7,2.9,0.9c0.3,0.1,0.6,0,0.8,0c0.3,0,0.7,0.1,1,0c1.5-0.2,2.2-1,2.3-2.2c0.1-0.9-0.1-1.7-0.7-2.4
			c-0.6-0.7-1.2-1.2-2-1.6c-1.5-0.8-2.9-1.6-4.4-2.4c-1.3-0.7-2.6-1.5-3.7-2.4c-1.1-0.9-2-1.9-2.7-3.2c-0.4-0.7-0.6-1.5-0.7-2.4
			C0,76,0,75.3,0,74.7c0.1-2.2,0.7-4.2,2-6c0.9-1.3,2.1-2.2,3.5-2.9c1.3-0.7,2.7-1.2,4.1-1.5c0.7-0.2,1.4-0.2,2.1-0.3
			c1.3-0.2,2.7-0.1,4.1-0.1c0.9,0,1.8,0.2,2.8,0.3c0.7,0.1,1.3,0.3,2,0.4c1.2,0.2,2.3,0.6,3.4,0.9c1.1,0.3,2.1,0.8,3.2,1.3
			c0.2,0.1,0.3,0.2,0.3,0.4C27.3,70.1,27.3,72.9,27.2,75.9C27.3,75.8,27.2,75.9,27.2,75.9z"/>
	</g>
	<g>
		<path fill="#F27621" d="M214.7,118.3c-0.4,0.4-0.7,0.8-1,1.1c-0.4,0.5-0.8,0.9-1.2,1.4c-0.3,0.4-0.7,0.8-1,1.2
			c-0.2,0.2-0.8,0.2-1,0c-0.7-0.8-1.3-1.6-2-2.4c-0.3-0.4-0.7-0.8-1.1-1.3c0,0.3,0,0.5,0,0.7c0,2.2,0,4.4,0,6.6c0,0.1,0,0.3,0,0.4
			c0,0.2-0.1,0.3-0.3,0.3c-1,0-2.1,0-3.1,0c-0.2,0-0.3-0.1-0.3-0.2c0-0.1,0-0.2,0-0.4c0-4.2,0-8.4,0-12.6c0-0.7-0.1-0.6,0.6-0.6
			c0.6,0,1.3,0.1,1.9,0c0.6-0.1,0.9,0.3,1.2,0.6c0.4,0.5,0.8,1,1.2,1.4c0.4,0.4,0.7,0.9,1.1,1.3c0.3,0.4,0.7,0.8,1,1.2
			c0.2,0.2,0.3,0.2,0.5,0c0.2-0.3,0.4-0.5,0.6-0.8c0.6-0.7,1.3-1.5,1.9-2.2c0.4-0.5,0.8-0.9,1.2-1.4c0.1-0.2,0.3-0.2,0.5-0.2
			c0.8,0,1.7,0,2.5,0c0.3,0,0.3,0,0.3,0.4c0,2.1,0,4.1,0,6.2c0,2.3,0,4.5,0,6.8c0,0.5,0,0.5-0.5,0.4c-0.9,0-1.8,0-2.7,0
			c-0.5,0-0.5,0-0.5-0.5c0-2.3,0-4.5,0-6.8C214.7,118.8,214.7,118.6,214.7,118.3z"/>
		<path fill="#F27621" d="M88.9,119.4c0-2.1,0-4.1,0-6.2c0-0.1,0-0.2,0-0.3c0-0.4,0-0.4,0.4-0.4c0.1,0,0.1,0,0.2,0c3,0,6,0,9,0
			c0.1,0,0.2,0,0.4,0c0.2,0,0.2,0.1,0.2,0.2c0,0.4,0,0.9,0,1.3c0,0.3,0,0.6,0,0.9c0,0.4,0,0.4-0.4,0.4c-0.5,0-1.1,0-1.6,0
			c-1.3,0-2.7,0-4,0c-0.4,0-0.4,0-0.4,0.4c0,0.5,0,1.1,0,1.6c0,0.4,0,0.4,0.4,0.4c1.2,0,2.4,0,3.7,0c0.6,0,1.1,0,1.7,0
			c0.2,0,0.3,0.1,0.3,0.3c0,0.7,0,1.5,0,2.2c0,0.3,0,0.3-0.4,0.3c-1.7,0-3.3,0-5,0c-0.1,0-0.3,0-0.4,0c-0.2,0-0.3,0.1-0.3,0.3
			c0,0.8,0,1.5,0,2.3c0,0.3,0.1,0.3,0.4,0.3c0.9,0,1.9,0,2.8,0c1,0,2,0,3,0c0.4,0,0.4,0,0.4,0.4c0,0.7,0,1.4,0,2.1
			c0,0.3,0,0.3-0.4,0.3c-0.8,0-1.7,0-2.5,0c-2.2,0-4.5,0-6.7,0c-0.1,0-0.3,0-0.4,0c-0.2,0-0.3-0.1-0.3-0.3c0-0.6,0-1.1,0-1.7
			C88.9,122.7,88.9,121.1,88.9,119.4z"/>
		<path fill="#F27621" d="M79.5,137.4c0.2-0.2,0.4-0.3,0.6-0.4c0.6-0.4,1.4-0.7,2.1-0.6c0.6,0,1.2-0.1,1.8,0.2
			c0.7,0.3,1.2,0.7,1.7,1.3c0,0,0.1,0.1,0.1,0.1c0.4-0.3,0.7-0.6,1-0.9c0.3-0.2,0.7-0.5,1.1-0.6c0.3-0.1,0.6-0.1,0.9-0.2
			c0.3,0,0.6,0,0.8,0c1.6-0.1,2.9,1.1,3.3,2.5c0,0.1,0,0.3,0,0.4c0,2.1,0,4.1,0,6.2c0,0.5,0,0.4-0.5,0.4c-0.8,0-1.5,0-2.3,0
			c-0.4,0-0.4,0-0.4-0.4c0-1.3,0-2.6,0-3.9c0-0.5,0-0.9,0-1.4c0-0.6-0.3-1-0.7-1.4c-0.3-0.3-0.8-0.3-1.1-0.2
			c-0.7,0.2-1.3,0.7-1.7,1.4c-0.1,0.1-0.1,0.3-0.1,0.5c0,1.6,0,3.2,0,4.7c0,0.1,0,0.3,0,0.4c0,0.2-0.1,0.2-0.2,0.2
			c-0.3,0-0.6,0-0.9,0c-0.6,0-1.1,0-1.7,0c-0.4,0-0.4,0-0.4-0.4c0-0.6,0-1.3,0-1.9c0-1.2,0-2.3,0-3.5c0-1.1-0.9-1.8-2-1.5
			c-0.6,0.2-1,0.6-1.4,1.1c-0.1,0.1-0.1,0.3-0.1,0.5c0,1.7,0,3.4,0,5.1c0,0.7,0.1,0.6-0.6,0.6c-0.7,0-1.5,0-2.2,0
			c-0.4,0-0.4,0-0.4-0.4c0-1.5,0-3.1,0-4.6c0-1.3,0-2.6,0-4c0-0.5,0-0.5,0.5-0.5c0.8,0,1.6,0,2.4,0c0.3,0,0.3,0,0.4,0.4
			C79.5,137,79.5,137.2,79.5,137.4z"/>
		<path fill="#F27621" d="M178.8,138c0.5-0.5,1.1-1,1.8-1.3c0.4-0.2,0.9-0.3,1.3-0.3c0.6,0,1.1-0.1,1.7,0.1c1.2,0.4,2,1.1,2.3,2.6
			c0.1,0.5,0.1,1.1,0.1,1.6c0,1.5,0,2.9,0,4.4c0,0.1,0,0.2,0,0.2c0,0.8,0.1,0.7-0.7,0.7c-0.6,0-1.3,0-1.9,0c-0.1,0-0.2,0-0.3,0
			c-0.3,0-0.3-0.1-0.3-0.3c0-0.8,0-1.7,0-2.5c0-0.8,0-1.7,0-2.5c0-0.4-0.1-0.9-0.3-1.3c-0.2-0.6-1.1-0.9-1.6-0.7
			c-0.6,0.2-1.1,0.5-1.5,1.1c-0.1,0.2-0.2,0.4-0.2,0.7c0,1.6,0,3.2,0,4.9c0,0.1,0,0.3,0,0.4c0,0.2-0.1,0.3-0.3,0.3
			c-0.9,0-1.8,0-2.7,0c-0.2,0-0.3-0.1-0.3-0.2c0-0.1,0-0.3,0-0.4c0-1.6,0-3.2,0-4.7c0-0.3-0.1-0.7-0.2-1c-0.3-0.9-1.4-1.3-2.4-0.7
			c-0.2,0.1-0.3,0.2-0.4,0.3c-0.4,0.3-0.6,0.7-0.6,1.2c0.1,1.6,0,3.2,0,4.8c0,0.1,0,0.2,0,0.4c0,0.4,0,0.4-0.4,0.4c-0.7,0-1.3,0-2,0
			c-0.8,0-0.8,0-0.8-0.8c0-2.7,0-5.3,0-8c0-0.1,0-0.3,0-0.4c0-0.2,0.1-0.3,0.2-0.2c0,0,0.1,0,0.1,0c0.8,0,1.7,0,2.5,0
			c0.2,0,0.4,0.1,0.3,0.3c0,0.1,0,0.2,0,0.3c0,0.2,0.1,0.2,0.3,0.1c0.8-0.6,1.6-0.9,2.7-0.9c0.6,0,1.2,0,1.7,0.2
			C177.8,136.9,178.2,137.5,178.8,138z"/>
		<path fill="#F27621" d="M155.5,143.2c0,0.4,0,0.9,0,1.3c0,0.2-0.1,0.3-0.3,0.4c-1.1,0.6-2.2,1-3.5,1.1c-0.9,0.1-1.8,0.1-2.6,0.1
			c-1.4-0.1-2.8-0.4-4-1.3c-0.6-0.4-1.1-0.9-1.5-1.4c-0.6-0.8-1.1-1.7-1.3-2.6c-0.2-0.8-0.3-1.6-0.1-2.5c0.1-0.9,0.4-1.6,0.8-2.4
			c0.9-1.6,2.1-2.7,3.8-3.3c0.7-0.2,1.4-0.4,2.1-0.5c0.8-0.1,1.7-0.1,2.5-0.1c1.3,0.1,2.6,0.4,3.7,1c0.2,0.1,0.3,0.3,0.3,0.5
			c0,0.9,0,1.7,0,2.6c0,0.4-0.2,0.5-0.5,0.3c-0.8-0.5-1.7-0.9-2.7-1.1c-1.3-0.2-2.5-0.3-3.7,0.2c-1.3,0.5-2.1,1.5-2.5,2.9
			c-0.2,1,0,1.9,0.6,2.6c0.6,0.8,1.4,1.4,2.5,1.7c0.5,0.1,1,0.3,1.5,0.2c0.6,0,1.2-0.1,1.8-0.3c0.9-0.3,1.7-0.6,2.5-1
			c0.1-0.1,0.2-0.1,0.4-0.2c0.2-0.1,0.3,0,0.3,0.2c0,0.4,0,0.8,0,1.2C155.5,143,155.5,143.1,155.5,143.2z"/>
		<path fill="#F27621" d="M5.4,112.4c1.6-0.2,3,0.4,4.5,0.9c0.1,0.1,0.2,0.1,0.2,0.3c0,0.8,0,1.6,0,2.4c0,0.3-0.1,0.3-0.3,0.3
			c-0.1,0-0.2,0-0.3-0.1c-0.4-0.1-0.8-0.3-1.1-0.4c-0.7-0.3-1.4-0.4-2.2-0.6c-0.6-0.1-1.1,0-1.6,0.2c-0.2,0-0.4,0.2-0.5,0.3
			c-0.2,0.3-0.2,0.7,0.2,1c0.4,0.3,0.9,0.5,1.4,0.7c0.8,0.3,1.6,0.6,2.4,1c0.6,0.3,1.2,0.8,1.7,1.2c0.7,0.5,0.9,1.3,1,2.2
			c0.1,0.6,0,1.2-0.1,1.7c-0.2,0.8-0.6,1.4-1.3,1.9c-0.9,0.6-1.9,1-3,1c-0.4,0-0.7,0.1-1.1,0.1c-1.6-0.1-3.1-0.4-4.5-1.3
			c-0.1-0.1-0.2-0.2-0.2-0.3c0-0.9,0-1.9,0-2.8c0-0.3,0.1-0.3,0.4-0.2c0.6,0.4,1.2,0.8,1.8,1.1c0.9,0.4,1.8,0.7,2.8,0.6
			c0.5,0,1-0.1,1.3-0.5c0.4-0.4,0.4-0.9-0.1-1.2c-0.4-0.3-0.8-0.5-1.3-0.7c-0.9-0.4-1.8-0.7-2.6-1.1c-0.7-0.3-1.3-0.7-1.7-1.3
			c-0.5-0.5-0.8-1.2-0.8-1.9c0-0.4,0-0.8,0-1.2c0.1-0.9,0.5-1.7,1.2-2.3c1.1-0.9,2.3-1.2,3.7-1.2C5.1,112.4,5.3,112.4,5.4,112.4z"/>
		<path fill="#F27621" d="M112.7,117.4c0.5-0.2,1-0.5,1.6-0.6c0.7-0.1,1.3-0.1,1.9,0.1c1.7,0.5,2.7,1.7,3.1,3.5
			c0.2,1.1,0.1,2.2-0.2,3.3c-0.2,0.5-0.4,0.9-0.7,1.2c-0.6,0.7-1.3,1.2-2.1,1.3c-0.7,0.1-1.3,0.3-2,0.1c-0.5-0.1-1-0.2-1.5-0.3
			c0,0.5,0,1,0,1.6c0,0.9,0,1.8,0,2.7c0,0.4,0,0.4-0.3,0.4c-0.8,0-1.7,0-2.5,0c-0.2,0-0.3-0.1-0.3-0.3c0-0.1,0-0.2,0-0.4
			c0-4.2,0-8.4,0-12.6c0-0.7-0.1-0.6,0.7-0.7c0.7,0,1.4,0,2.1,0C112.6,116.9,112.6,116.9,112.7,117.4z M112.6,121.7
			c0,0.5,0,1.1,0,1.6c0,0.2,0,0.4,0.2,0.5c0.4,0.3,0.8,0.5,1.2,0.4c0.7-0.1,1.4-0.4,1.7-1.1c0.5-0.9,0.5-1.9,0.1-2.9
			c-0.3-0.7-0.9-1.2-1.6-1.2c-0.6,0-1.1,0.2-1.6,0.6c-0.1,0.1-0.1,0.2-0.1,0.4C112.6,120.7,112.6,121.2,112.6,121.7z"/>
		<path fill="#F27621" d="M237.8,117.1c0-0.4,0-0.9,0-1.4c0-0.9,0-1.9,0-2.8c0-0.4,0-0.4,0.3-0.4c0.8,0,1.7,0,2.5,0
			c0.2,0,0.3,0.1,0.3,0.3c0,0.1,0,0.2,0,0.3c0,4.2,0,8.4,0,12.6c0,0.7,0.1,0.6-0.6,0.6c-0.7,0-1.4,0-2.1,0c-0.4,0-0.4,0-0.5-0.4
			c-0.5,0.3-1,0.5-1.6,0.6c-0.9,0.1-1.6,0-2.4-0.3c-0.3-0.1-0.6-0.2-0.8-0.4c-0.8-0.7-1.5-1.5-1.7-2.6c-0.2-1.1-0.3-2.3,0.1-3.4
			c0.4-1.1,1.1-2,2.1-2.6c0.4-0.2,0.8-0.3,1.2-0.4c0.3-0.1,0.5-0.1,0.8-0.1C236.3,116.7,237,116.9,237.8,117.1z M237.8,121.5
			c0-0.6,0-1.1,0-1.7c0-0.1-0.1-0.3-0.1-0.3c-0.4-0.2-0.9-0.5-1.4-0.4c-0.7,0-1.3,0.3-1.6,1c-0.5,0.8-0.6,1.7-0.3,2.6
			c0.3,0.8,0.7,1.5,1.6,1.6c0.5,0.1,0.9-0.1,1.3-0.3c0.4-0.2,0.6-0.5,0.6-1C237.8,122.5,237.8,122,237.8,121.5z"/>
		<path fill="#F27621" d="M78,117.1c0-1.3,0-2.6,0-3.8c0-0.2,0-0.3,0-0.5c0-0.2,0.1-0.3,0.3-0.3c0.9,0,1.8,0,2.7,0
			c0.2,0,0.3,0.1,0.3,0.2c0,0.1,0,0.2,0,0.4c0,4.2,0,8.4,0,12.6c0,0.7,0.1,0.6-0.6,0.6c-0.7,0-1.5,0-2.2,0c-0.4,0-0.4,0-0.4-0.4
			c-0.5,0.3-1,0.5-1.6,0.6c-0.9,0.2-1.7,0-2.4-0.3c-0.2-0.1-0.4-0.2-0.6-0.3c-1-0.7-1.7-1.6-2-2.8c-0.3-1.2-0.2-2.3,0.2-3.5
			c0.2-0.7,0.6-1.2,1.2-1.7c0.5-0.5,1.1-0.8,1.7-1c0.7-0.2,1.4-0.3,2.1-0.1C77,116.9,77.5,117,78,117.1z M78,121.5
			c0-0.4,0-0.8,0-1.2c0-0.9-0.1-1-0.9-1.2c-0.1,0-0.2,0-0.2,0c-0.4-0.2-0.7,0-1,0.1c-0.4,0.1-0.7,0.4-0.9,0.7
			c-0.6,1.2-0.7,2.4,0,3.5c0.2,0.4,0.6,0.6,1.1,0.8c0.5,0.2,0.9,0,1.3-0.2c0.4-0.2,0.7-0.5,0.6-1.1C77.9,122.5,78,122,78,121.5z"/>
		<path fill="#F27621" d="M36.1,139.1c0,2.1,0,4.2,0,6.3c0,0.1,0,0.3,0,0.4c0,0.2-0.1,0.2-0.3,0.2c0,0-0.1,0-0.1,0
			c-0.8,0-1.7,0-2.5,0c-0.2,0-0.4,0-0.3-0.3c0-0.2-0.1-0.2-0.2-0.1c-0.8,0.5-1.7,0.6-2.7,0.5c-0.8-0.1-1.5-0.4-2.1-0.9
			c-0.8-0.7-1.4-1.6-1.6-2.7c-0.1-0.6-0.2-1.1-0.1-1.8c0.1-0.6,0.1-1.1,0.4-1.7c0.2-0.4,0.4-0.8,0.7-1.1c0.4-0.5,0.8-0.9,1.4-1.2
			c0.5-0.2,1.1-0.4,1.6-0.4c0.8,0,1.6,0,2.4,0.3c0,0,0.2-0.1,0.2-0.1c0-0.1,0-0.3,0-0.4c0-1.2,0-2.4,0-3.6c0-0.4,0-0.4,0.4-0.4
			c0.8,0,1.6,0,2.4,0c0.3,0,0.4,0,0.4,0.4c0,1,0,2.1,0,3.1C36.1,136.7,36.1,137.9,36.1,139.1z M32.9,141.2c0-0.4,0-0.8,0-1.2
			c0-1,0-1.1-1-1.3c-1-0.2-1.8,0.3-2.1,1.1c-0.4,0.9-0.4,1.8,0,2.8c0.5,1.3,1.7,1.7,3,0.8c0.2-0.1,0.2-0.3,0.2-0.5
			C32.9,142.3,32.9,141.8,32.9,141.2z"/>
		<path fill="#F27621" d="M181.8,125.9c-0.5,0.3-1,0.5-1.6,0.6c-1.2,0.2-2.2,0-3.1-0.7c-1-0.7-1.6-1.7-1.8-3c-0.1-0.5-0.1-1-0.1-1.5
			c0-1,0.2-1.9,0.8-2.7c0.7-0.9,1.6-1.6,2.8-1.8c1-0.2,1.9-0.1,2.8,0.2c0.3,0.1,0.3,0.1,0.3-0.2c0-1.2,0-2.3,0-3.5
			c0-0.1,0-0.3,0-0.4c0-0.3,0.1-0.3,0.3-0.3c0.8,0,1.7,0,2.5,0c0.2,0,0.3,0.1,0.3,0.3c0,0.1,0,0.2,0,0.4c0,4.2,0,8.3,0,12.5
			c0,0,0,0,0,0.1c0,0.7,0.1,0.6-0.6,0.6c-0.7,0-1.4,0-2.1,0C181.9,126.3,181.9,126.3,181.8,125.9z M181.9,121.5c0-0.5,0-1,0-1.4
			c0.1-0.5-0.2-0.7-0.6-0.9c-1-0.4-2.2,0-2.6,1c-0.1,0.4-0.2,0.8-0.2,1.1c-0.1,0.6,0,1.2,0.3,1.8c0.3,0.9,1.6,1.6,2.8,0.8
			c0.3-0.2,0.5-0.4,0.5-0.8C181.8,122.6,181.9,122,181.9,121.5z"/>
		<path fill="#F27621" d="M56.1,117.1c0-1.3,0-2.6,0-3.8c0-0.2,0-0.3,0-0.5c0-0.2,0.1-0.3,0.3-0.3c0.9,0,1.8,0,2.7,0
			c0.2,0,0.3,0.1,0.3,0.2c0,0.1,0,0.2,0,0.4c0,4.2,0,8.4,0,12.6c0,0.7,0.1,0.6-0.6,0.6c-0.7,0-1.5,0-2.2,0c-0.2,0-0.4,0-0.4-0.2
			c0,0-0.2-0.1-0.2,0c-0.5,0.3-1.1,0.4-1.7,0.5c-0.2,0-0.4,0-0.6,0c-0.5-0.1-1.1-0.2-1.6-0.4c-0.6-0.2-1.1-0.7-1.5-1.2
			c-0.5-0.6-0.8-1.3-1-2.1c-0.1-0.3,0-0.6-0.1-0.9c0-0.2-0.1-0.3-0.1-0.5c0.1-0.8,0.1-1.7,0.6-2.5c0.7-1.2,1.7-2,3.2-2.2
			C54.1,116.6,55.1,116.8,56.1,117.1z M56.1,121.5c0-0.6,0-1.2,0-1.8c0-0.2,0-0.4-0.2-0.5c-0.7-0.3-1.4-0.4-2-0.1
			c-0.2,0.1-0.4,0.2-0.5,0.4c-0.8,1.1-0.8,2.9,0,4c0.4,0.4,0.9,0.7,1.4,0.7c0.4,0,0.9-0.2,1.2-0.5c0.1-0.1,0.2-0.2,0.2-0.4
			C56.1,122.8,56.1,122.2,56.1,121.5z"/>
		<path fill="#F27621" d="M54.8,139c0-2.1,0-4.1,0-6.2c0-0.1,0-0.3,0-0.4c0-0.2,0.1-0.2,0.3-0.2c0.1,0,0.2,0,0.3,0
			c2.8,0,5.7,0,8.5,0c0.1,0,0.2,0,0.3,0c0.2,0,0.3,0.1,0.3,0.3c0,0.8,0,1.5,0,2.3c0,0.2-0.1,0.3-0.2,0.3c-0.1,0-0.3,0-0.4,0
			c-1.6,0-3.1,0-4.7,0c-0.1,0-0.3,0-0.4,0c-0.1,0-0.2,0.1-0.2,0.2c0,0.7,0,1.5,0,2.2c0,0.1,0.1,0.2,0.2,0.2c0.1,0,0.3,0,0.4,0
			c1.6,0,3.2,0,4.9,0c0.5,0,0.4,0,0.4,0.5c0,0.7,0,1.3,0,2c0,0.4,0,0.4-0.4,0.4c-1.5,0-3.1,0-4.6,0c-0.3,0-0.5,0-0.8,0
			c0,0.3-0.1,0.6-0.1,0.9c0,1.4,0,2.8,0,4.2c0,0.5,0,0.5-0.5,0.5c-0.9,0-1.8,0-2.7,0c-0.6,0-0.5,0.1-0.5-0.5
			C54.8,143.3,54.8,141.1,54.8,139z"/>
		<path fill="#F27621" d="M130.9,140.8c0.4-0.9,0.8-1.7,1.1-2.5c0.2-0.5,0.4-1,0.6-1.5c0.1-0.2,0.2-0.3,0.4-0.3c0.9,0,1.7,0,2.6,0
			c0.4,0,0.5,0.1,0.3,0.5c-0.2,0.6-0.5,1.1-0.7,1.7c-0.5,1-1,2.1-1.4,3.1c-0.6,1.4-1.2,2.8-1.9,4.2c-0.2,0.5-0.5,1.1-0.8,1.6
			c-0.3,0.7-0.6,1.3-0.9,2c-0.1,0.1-0.1,0.3-0.2,0.4c-0.1,0.2-0.2,0.2-0.4,0.2c-0.9,0-1.9,0-2.8,0c-0.2,0-0.3-0.1-0.3-0.3
			c0.1-0.3,0.2-0.5,0.3-0.8c0.5-1.1,1-2.2,1.5-3.3c0.2-0.4,0.4-0.8,0.6-1.3c0.1-0.2,0.1-0.4,0-0.7c-0.3-0.6-0.6-1.2-0.9-1.8
			c-0.7-1.4-1.4-2.9-2-4.3c-0.1-0.3-0.3-0.6-0.4-0.9c-0.1-0.3-0.1-0.3,0.2-0.3c1,0,1.9,0,2.9,0c0.2,0,0.3,0.1,0.3,0.2
			c0.4,0.9,0.7,1.9,1.1,2.8C130.6,139.9,130.8,140.3,130.9,140.8z"/>
		<path fill="#F27621" d="M129,121.5c0,0.9,0,1.6,0,2.3c0,0.4,0.2,0.5,0.5,0.3c0.2-0.1,0.4-0.3,0.6-0.4c0.2-0.1,0.3-0.1,0.4,0.2
			c0,0.5,0,0.9,0,1.4c0,0.2-0.1,0.4-0.3,0.5c-0.6,0.3-1.2,0.5-1.9,0.6c-0.5,0.1-0.9,0.1-1.4,0c-0.4-0.1-0.7-0.2-0.9-0.6
			c-0.1-0.2-0.2-0.2-0.4-0.1c-0.7,0.4-1.5,0.6-2.3,0.7c-0.9,0.1-1.7-0.2-2.4-0.9c-0.6-0.6-0.7-1.3-0.6-2.1c0.1-1,0.8-1.5,1.5-1.9
			c0.9-0.5,1.8-0.7,2.8-1.1c0.2-0.1,0.4-0.1,0.7-0.2c0.5-0.2,0.5-0.2,0.3-0.6c-0.2-0.4-0.4-0.5-0.8-0.6c-1-0.2-1.9,0.2-2.8,0.7
			c-0.3,0.2-0.6,0.4-0.9,0.6c-0.2,0.1-0.3,0.1-0.3-0.2c0-0.7,0-1.4,0-2.1c0-0.3,0.2-0.4,0.4-0.5c0.6-0.3,1.2-0.5,1.8-0.7
			c0.7-0.2,1.4-0.3,2.1-0.2c0.9,0.1,1.8,0.2,2.6,0.6c0.6,0.4,1,0.9,1.1,1.6C129.1,119.8,128.9,120.8,129,121.5z M125.8,122.1
			c-0.4,0.2-0.8,0.3-1.2,0.5c-0.1,0.1-0.3,0.1-0.4,0.2c-0.2,0.2-0.4,0.4-0.5,0.6c-0.3,0.6,0.1,1.1,0.7,1.1c0.5,0,0.9-0.2,1.2-0.5
			c0.1-0.1,0.2-0.2,0.2-0.3C125.8,123.1,125.8,122.6,125.8,122.1z"/>
		<path fill="#F27621" d="M69.3,121.5c0,0.7,0,1.4,0,2.1c0,0.1,0,0.2,0,0.4c0.1,0.3,0.3,0.4,0.5,0.3c0.2-0.1,0.4-0.2,0.6-0.3
			c0.3-0.2,0.4-0.2,0.4,0.2c0,0.3,0,0.5,0,0.8c0,0.9,0,0.9-0.8,1.3c-0.4,0.2-0.9,0.3-1.3,0.4c-0.1,0-0.2,0-0.3,0
			c-0.8,0.2-1.4,0-1.9-0.6c-0.1-0.1-0.2-0.2-0.4-0.1c-0.4,0.2-0.8,0.4-1.2,0.5c-0.7,0.2-1.5,0.3-2.2,0.1c-0.8-0.2-1.4-0.7-1.7-1.5
			c-0.1-0.3-0.1-0.6-0.1-0.9c0-0.4,0-0.8,0.2-1.2c0.3-0.6,0.7-0.9,1.3-1.2c0.9-0.5,1.9-0.8,2.9-1.1c0.3-0.1,0.5-0.2,0.8-0.2
			c0.2-0.1,0.3-0.2,0.2-0.4c-0.1-0.4-0.4-0.7-0.8-0.8c-0.4-0.1-0.9,0-1.3,0.1c-0.8,0.2-1.5,0.6-2.2,1.2c0,0-0.1,0.1-0.1,0.1
			c-0.2,0.1-0.3,0-0.3-0.2c0-0.7,0-1.5,0-2.2c0-0.1,0-0.2,0.2-0.3c0.6-0.4,1.3-0.6,1.9-0.8c0.8-0.2,1.5-0.3,2.3-0.2
			c0.9,0.1,1.8,0.2,2.5,0.7c0.7,0.5,1.1,1.2,1.1,2C69.4,120.1,69.3,120.8,69.3,121.5z M66.1,122c-0.6,0.3-1.2,0.6-1.7,0.9
			c-0.3,0.2-0.4,0.6-0.4,0.9c0,0.3,0.3,0.5,0.6,0.6c0.6,0.1,1-0.2,1.5-0.5c0,0,0.1-0.1,0.1-0.2C66.1,123.2,66.1,122.6,66.1,122z"/>
		<path fill="#F27621" d="M282.9,121.4c0,0.6,0,1.3,0,1.9c0,0.1,0,0.2,0,0.4c0,0.5,0.3,0.6,0.7,0.4c0.2-0.1,0.3-0.2,0.4-0.3
			c0.2-0.1,0.4,0,0.4,0.3c0,0.3,0,0.7,0,1c0.1,0.5-0.2,0.8-0.6,0.9c-0.5,0.2-0.9,0.3-1.4,0.4c-0.5,0.1-1,0.2-1.5,0
			c-0.3-0.1-0.5-0.2-0.7-0.4c-0.4-0.4-0.4-0.4-0.9-0.1c-0.6,0.4-1.3,0.5-2,0.6c-1.2,0.1-2.1-0.3-2.8-1.4c-0.1-0.1-0.1-0.2-0.1-0.3
			c-0.2-0.9-0.2-1.8,0.5-2.6c0.2-0.3,0.6-0.5,0.9-0.6c0.9-0.5,1.9-0.7,2.8-1.1c0.3-0.1,0.6-0.2,0.8-0.2c0.2,0,0.2-0.1,0.2-0.3
			c0-0.4-0.5-0.8-0.9-0.9c-0.9-0.2-1.7,0.1-2.4,0.5c-0.4,0.2-0.8,0.5-1.2,0.8c-0.1,0.1-0.2,0.1-0.3,0.1c0,0-0.1-0.2-0.1-0.2
			c0-0.7,0-1.4,0-2.1c0-0.2,0-0.3,0.2-0.4c0.9-0.5,1.8-0.9,2.9-0.9c0.4,0,0.8-0.1,1.2-0.1c0.7,0,1.4,0.1,2.1,0.4
			c0.6,0.2,1.1,0.6,1.4,1.1c0.2,0.3,0.2,0.7,0.3,1.1C282.9,120,282.9,120.7,282.9,121.4z M279.7,122c-0.5,0.2-0.9,0.4-1.3,0.6
			c-0.3,0.2-0.6,0.3-0.7,0.7c-0.2,0.5,0.1,1,0.6,1.1c0.4,0,0.7-0.2,1.1-0.3c0.2-0.1,0.3-0.2,0.3-0.4
			C279.7,123.1,279.7,122.6,279.7,122z"/>
		<path fill="#F27621" d="M167.8,121.4c0,0.7,0,1.3,0,2c0,0.1,0,0.2,0,0.3c0,0.5,0.3,0.7,0.7,0.4c0.1-0.1,0.3-0.2,0.4-0.2
			c0.2-0.1,0.4,0,0.4,0.2c0,0.5,0,0.9,0,1.4c0,0.2-0.1,0.2-0.2,0.3c-0.5,0.4-1.2,0.5-1.8,0.7c-0.4,0.1-0.9,0.2-1.4,0.1
			c-0.4-0.1-0.7-0.2-1-0.5c-0.1-0.2-0.3-0.2-0.5-0.1c-0.6,0.4-1.4,0.6-2.1,0.7c-1.2,0.1-2.6-0.4-3-1.8c-0.3-0.9-0.1-1.8,0.5-2.5
			c0.2-0.3,0.6-0.5,0.9-0.6c0.9-0.5,1.9-0.7,2.8-1.1c0.3-0.1,0.6-0.2,0.8-0.2c0.2,0,0.2-0.2,0.2-0.3c-0.1-0.4-0.4-0.7-0.8-0.9
			c-0.5-0.1-0.9-0.1-1.4,0.1c-0.8,0.2-1.6,0.6-2.2,1.2c0,0-0.1,0.1-0.1,0.1c-0.2,0.1-0.3,0-0.3-0.2c0-0.7,0-1.5,0-2.2
			c0-0.2,0.1-0.3,0.2-0.3c0.9-0.5,1.8-0.8,2.9-0.9c0.4,0,0.9-0.1,1.3-0.1c0.8,0.1,1.7,0.2,2.4,0.6c0.8,0.4,1.2,1.1,1.3,2
			C167.8,119.9,167.8,120.6,167.8,121.4z M164.6,122c-0.6,0.3-1.2,0.6-1.7,0.9c-0.4,0.3-0.7,0.8-0.3,1.2c0.1,0.2,0.3,0.3,0.5,0.3
			c0.4,0.1,0.7-0.1,1.1-0.3c0.3-0.2,0.5-0.3,0.4-0.7C164.5,123,164.6,122.6,164.6,122z"/>
		<path fill="#F27621" d="M74,141.1c0,0.7,0,1.3,0,2c0,0.1,0,0.3,0,0.4c0.1,0.3,0.2,0.4,0.5,0.2c0.2-0.1,0.4-0.2,0.6-0.3
			c0.3-0.1,0.4-0.1,0.4,0.2c0,0.3,0,0.6,0,0.8c0,0.8,0,0.8-0.7,1.1c-0.9,0.4-1.7,0.5-2.7,0.5c-0.4,0-0.8-0.2-1-0.6
			c-0.1-0.3-0.3-0.2-0.4-0.1c-0.5,0.3-1.1,0.5-1.7,0.6c-1,0.2-2,0.1-2.9-0.6c-0.4-0.4-0.8-0.9-0.7-1.5c0-0.4,0-0.8,0.1-1.2
			c0.1-0.7,0.6-1,1.1-1.4c0.7-0.5,1.6-0.8,2.5-1.1c0.4-0.1,0.9-0.2,1.3-0.4c0.4-0.1,0.4-0.2,0.2-0.5c-0.2-0.5-0.6-0.7-1.1-0.8
			c-0.9,0-1.6,0.2-2.4,0.7c-0.3,0.2-0.6,0.4-0.9,0.6c-0.1,0-0.2,0.1-0.3,0.1c-0.1,0-0.1-0.2-0.1-0.2c0-0.7,0-1.3,0-2
			c0-0.3,0.1-0.5,0.4-0.6c0.6-0.3,1.2-0.5,1.9-0.7c0.9-0.2,1.9-0.2,2.9-0.1c0.7,0,1.5,0.3,2,0.8c0.6,0.5,0.8,1.1,0.8,1.8
			C74,139.7,74,140.4,74,141.1z M70.8,141.7c-0.2,0.1-0.3,0.1-0.4,0.1c-0.5,0.2-1.1,0.4-1.4,0.9c-0.3,0.4-0.3,0.7-0.1,1
			c0.2,0.3,0.6,0.4,1,0.3c0.3-0.1,0.6-0.2,0.8-0.4c0.1-0.1,0.2-0.2,0.2-0.3C70.8,142.8,70.8,142.2,70.8,141.7z"/>
		<path fill="#F27621" d="M119.1,141.1c0,0.7,0,1.3,0,2c0,0.1,0,0.2,0,0.4c0.1,0.4,0.2,0.5,0.5,0.3c0.2-0.1,0.5-0.2,0.7-0.3
			c0.1,0,0.2,0,0.2,0.2c0,0.5,0,1,0,1.5c0,0.1-0.1,0.2-0.2,0.3c-0.5,0.2-1,0.5-1.5,0.6c-0.4,0.1-0.9,0.1-1.4,0.1
			c-0.6,0-1-0.1-1.3-0.7c-0.1-0.2-0.2-0.1-0.3,0c-0.5,0.3-1.1,0.5-1.7,0.6c-1,0.2-2,0.1-2.9-0.6c-0.4-0.4-0.7-0.9-0.7-1.5
			c0-0.4,0-0.8,0-1.1c0.1-0.7,0.7-1.1,1.2-1.5c0.9-0.6,1.9-0.8,2.8-1.2c0.3-0.1,0.6-0.2,0.8-0.2c0.4-0.1,0.5-0.2,0.3-0.6
			c-0.2-0.5-0.6-0.7-1.1-0.7c-0.9-0.1-1.6,0.2-2.4,0.7c-0.3,0.2-0.6,0.4-0.9,0.6c-0.1,0-0.2,0.1-0.3,0.1c-0.1,0-0.1-0.1-0.1-0.2
			c0-0.7,0-1.4,0-2.1c0-0.3,0.1-0.4,0.3-0.5c0.6-0.3,1.3-0.6,2-0.7c0.9-0.2,1.9-0.2,2.8-0.1c0.7,0,1.5,0.3,2,0.8
			c0.6,0.4,0.8,1.1,0.8,1.8C119.2,139.7,119.1,140.4,119.1,141.1z M115.9,142.7L115.9,142.7c0-0.2,0-0.5,0-0.7c0-0.2,0-0.3-0.2-0.2
			c-0.4,0.2-0.9,0.4-1.3,0.6c-0.2,0.1-0.3,0.3-0.5,0.5c-0.1,0.2-0.3,0.5-0.1,0.8c0.2,0.3,0.4,0.5,0.7,0.5c0.5,0,0.8-0.3,1.2-0.5
			c0.3-0.2,0.1-0.5,0.1-0.7C116,142.8,115.9,142.7,115.9,142.7z"/>
		<path fill="#F27621" d="M256.6,141.1c0,0.6,0,1.3,0,1.9c0,0.1,0,0.2,0,0.3c0,0.6,0.2,0.7,0.7,0.5c0.2-0.1,0.3-0.2,0.5-0.3
			c0.2-0.1,0.3,0,0.3,0.2c0,0.5,0,0.9,0,1.4c0,0.2-0.1,0.3-0.2,0.4c-1,0.5-2,0.8-3.1,0.7c-0.4,0-0.9-0.1-1.1-0.6
			c-0.1-0.2-0.2-0.1-0.3-0.1c-0.5,0.3-1.1,0.5-1.7,0.6c-1.1,0.2-2.2,0.1-3-0.7c-0.4-0.3-0.7-0.8-0.6-1.3c0-0.4,0-0.8,0.1-1.2
			c0.1-0.7,0.6-1.1,1.2-1.5c0.9-0.6,1.9-0.8,2.8-1.2c0.3-0.1,0.6-0.2,0.9-0.2c0.4-0.1,0.4-0.2,0.3-0.6c-0.2-0.6-0.6-0.7-1.1-0.7
			c-1.1,0-2,0.4-2.8,1c-0.2,0.1-0.3,0.3-0.5,0.4c-0.2,0.1-0.3,0-0.3-0.2c0-0.7,0-1.4,0-2.1c0-0.3,0.2-0.4,0.4-0.5
			c0.6-0.3,1.3-0.6,2-0.7c0.9-0.2,1.9-0.2,2.8-0.1c0.7,0,1.4,0.3,2,0.7c0.6,0.4,0.8,1.1,0.8,1.8
			C256.6,139.7,256.6,140.4,256.6,141.1z M253.4,142.6C253.4,142.6,253.4,142.6,253.4,142.6c0-0.2,0-0.5,0-0.7c0-0.1,0-0.2-0.2-0.2
			c-0.6,0.3-1.3,0.4-1.7,1c-0.3,0.4-0.3,0.7-0.1,1c0.2,0.3,0.6,0.4,1,0.3c0.2-0.1,0.3-0.1,0.5-0.2c0.4-0.2,0.6-0.4,0.5-0.9
			C253.4,142.8,253.4,142.7,253.4,142.6z"/>
		<path fill="#F27621" d="M232,141c0,0.7,0,1.4,0,2.1c0,0.1,0,0.2,0,0.4c0.1,0.5,0.3,0.5,0.6,0.3c0.2-0.1,0.4-0.2,0.6-0.3
			c0.3-0.1,0.4-0.1,0.4,0.2c0,0.4,0,0.9,0,1.3c0,0.2-0.1,0.3-0.3,0.5c-0.9,0.5-1.9,0.8-3,0.7c-0.5,0-0.9-0.1-1.2-0.6
			c-0.1-0.2-0.2-0.1-0.3-0.1c-0.2,0.1-0.4,0.3-0.7,0.3c-1.1,0.4-2.2,0.6-3.3,0.1c-0.6-0.3-1-0.7-1.3-1.3c0-0.1-0.1-0.1-0.1-0.2
			c0-0.5,0-1.1,0.1-1.6c0.1-0.7,0.6-1.1,1.2-1.4c1-0.6,2.2-1,3.3-1.3c0,0,0.1,0,0.1,0c0.2-0.1,0.6,0,0.6-0.4c0-0.3-0.3-0.8-0.6-0.9
			c-0.4-0.2-0.9-0.2-1.3-0.1c-0.8,0.2-1.6,0.5-2.2,1c-0.2,0.2-0.5,0.4-0.6,0.3c-0.3-0.1-0.1-0.4-0.1-0.7c0-0.4,0-0.9,0-1.3
			c-0.1-0.5,0.2-0.7,0.6-0.9c1.1-0.5,2.2-0.8,3.4-0.7c0.8,0,1.7,0.1,2.5,0.3c1.1,0.4,1.7,1.3,1.7,2.3C232,139.7,232,140.3,232,141z
			 M228.8,142.6L228.8,142.6c0-0.2,0-0.4,0-0.6c0-0.2,0-0.3-0.2-0.2c-0.4,0.2-0.9,0.4-1.3,0.6c-0.2,0.1-0.4,0.4-0.5,0.6
			c-0.2,0.2-0.1,0.5,0,0.8c0.2,0.3,0.4,0.5,0.7,0.4c0.4-0.1,0.8-0.2,1.1-0.5c0.2-0.2,0.1-0.5,0.1-0.8
			C228.8,142.7,228.8,142.7,228.8,142.6z"/>
		<path fill="#F27621" d="M152.8,121.8c0.1,0.7,0,1.4-0.4,2.1c-0.4,0.8-1,1.4-1.8,1.8c-0.7,0.4-1.5,0.7-2.3,0.7
			c-0.3,0-0.6,0.1-0.9,0.1c-0.8-0.1-1.5-0.1-2.3-0.5c-0.3-0.2-0.7-0.3-1-0.5c-0.9-0.8-1.7-1.7-1.8-3c-0.1-0.8-0.1-1.6,0.1-2.4
			c0.2-1,0.8-1.8,1.6-2.4c0.8-0.5,1.6-0.8,2.6-1c1.6-0.3,3.1,0.1,4.4,1c1.1,0.8,1.8,1.9,1.7,3.3
			C152.8,121.3,152.8,121.4,152.8,121.8z M147.6,118.8c-0.5-0.1-0.9,0.2-1.3,0.6c-0.3,0.4-0.4,0.8-0.5,1.3c-0.2,0.9-0.1,1.8,0.3,2.7
			c0.3,0.6,0.8,0.9,1.4,1c0.7,0.1,1.2-0.2,1.6-0.8c0.4-0.7,0.5-1.5,0.5-2.3c0-0.5-0.2-0.9-0.3-1.3
			C149,119.2,148.3,118.7,147.6,118.8z"/>
		<path fill="#F27621" d="M11.8,121.5c-0.1-0.7,0.1-1.5,0.4-2.2c0.4-0.8,1-1.3,1.7-1.7c0.7-0.4,1.4-0.6,2.2-0.8
			c1.4-0.2,2.7,0,3.9,0.7c1,0.5,1.7,1.2,2.1,2.3c0.1,0.3,0.1,0.6,0.2,0.8c0,0.2,0.1,0.5,0.1,0.7c0,0.1,0,0.2,0,0.4
			c-0.1,0.6-0.2,1.2-0.3,1.8c-0.1,0.6-0.5,1.1-1,1.5c-0.6,0.6-1.3,1-2.1,1.3c-0.4,0.1-0.7,0.2-1.1,0.2c-0.2,0-0.5,0.1-0.7,0.1
			c-1.3,0-2.6-0.3-3.7-1.1c-1.1-0.8-1.7-1.9-1.7-3.4C11.8,121.9,11.8,121.8,11.8,121.5z M19,121.6c0-0.6-0.1-1.2-0.4-1.8
			c-0.3-0.9-1.2-1.1-2-0.9c-0.5,0.1-0.8,0.4-1,0.8c-0.3,0.5-0.4,1.1-0.5,1.7c0,0.4,0.1,0.8,0.1,1.2c0.1,0.9,0.5,1.4,1.3,1.7
			c0.6,0.3,1.4,0,1.8-0.6C18.8,123.1,18.9,122.3,19,121.6z"/>
		<path fill="#F27621" d="M167.6,141.4c0.1,0.7-0.1,1.5-0.5,2.2c-0.6,1.2-1.7,1.9-2.9,2.3c-0.8,0.3-1.7,0.3-2.6,0.2
			c-1-0.1-2-0.4-2.8-1.1c-0.8-0.6-1.4-1.4-1.6-2.4c-0.2-0.9-0.2-1.9,0-2.8c0.4-1.5,1.4-2.3,2.7-2.9c0.9-0.4,1.8-0.4,2.7-0.5
			c0.9,0,1.8,0.2,2.6,0.7c0.8,0.4,1.5,1,2,1.8c0.2,0.5,0.4,1,0.4,1.6C167.6,140.7,167.6,141,167.6,141.4z M160.5,141.2
			C160.5,141.2,160.5,141.3,160.5,141.2c0,0.2,0,0.4,0,0.5c0.1,0.7,0.2,1.4,0.8,1.9c0.9,0.7,2.1,0.3,2.4-0.4c0.2-0.5,0.4-1,0.5-1.5
			c0.1-0.5,0-1-0.1-1.5c0-0.3-0.2-0.7-0.3-1c-0.3-0.6-1.3-1-1.9-0.8c-0.7,0.3-1.1,0.8-1.3,1.5C160.5,140.4,160.5,140.8,160.5,141.2z
			"/>
		<path fill="#F27621" d="M202.5,137.5c0.5-0.5,1.1-0.8,1.7-1c1.3-0.4,3,0.1,3.9,1.2c0.3,0.5,0.6,1,0.6,1.6c0,2.1,0,4.2,0,6.3
			c0,0.4,0,0.4-0.4,0.4c-0.8,0-1.6,0-2.4,0c-0.4,0-0.4,0-0.4-0.4c0-1.8,0-3.6,0-5.4c0-0.2,0-0.5-0.1-0.7c-0.3-0.8-1.2-1-1.9-0.5
			c-0.3,0.2-0.5,0.5-0.8,0.8c-0.2,0.2-0.2,0.5-0.2,0.8c0,1.6,0,3.2,0,4.9c0,0.1,0,0.3,0,0.4c0,0.2-0.1,0.3-0.3,0.3
			c-0.9,0-1.8,0-2.7,0c-0.2,0-0.3,0-0.3-0.2c0-0.1,0-0.2,0-0.4c0-2.8,0-5.5,0-8.3c0-0.1,0-0.2,0-0.4c0-0.2,0.1-0.3,0.2-0.2
			c0.2,0,0.5,0,0.7,0c0.6,0,1.2,0,1.8,0c0.4,0,0.4,0,0.4,0.4C202.5,137.1,202.5,137.2,202.5,137.5z"/>
		<path fill="#F27621" d="M194.1,145.1c-0.3,0.2-0.6,0.4-0.9,0.6c-1,0.6-2.1,0.6-3.2,0.3c-1-0.3-1.7-1-2-2c-0.1-0.4-0.2-0.8-0.2-1.1
			c0-1.9,0-3.9,0-5.8c0-0.4,0-0.4,0.4-0.4c0.8,0,1.6,0,2.4,0c0.3,0,0.4,0,0.4,0.4c0,1.7,0,3.4,0,5.1c0,0.3,0.1,0.6,0.1,0.9
			c0.2,0.9,1.1,1.3,1.9,0.8c0.7-0.4,1-1,1-1.8c0-1.6,0-3.1,0-4.7c0-0.1,0-0.3,0-0.4c0-0.1,0.1-0.2,0.2-0.2c0.9,0,1.9,0,2.8,0
			c0.2,0,0.2,0.1,0.2,0.2c0,0.1,0,0.2,0,0.4c0,2.8,0,5.5,0,8.3c0,0.1,0,0.2,0,0.4c0,0.2-0.1,0.3-0.2,0.3c-0.9,0-1.8,0-2.7,0
			c-0.2,0-0.2-0.1-0.2-0.3C194.1,145.5,194.1,145.3,194.1,145.1z"/>
		<path fill="#F27621" d="M266.7,117.8c0.2-0.1,0.4-0.2,0.5-0.3c0.9-0.6,1.8-0.9,2.9-0.7c0.3,0.1,0.7,0.1,1,0.3
			c1.1,0.6,1.8,1.5,1.8,2.8c0,1.9,0,3.9,0,5.8c0,0.1,0,0.3,0,0.4c0,0.2-0.1,0.2-0.3,0.2c-0.4,0-0.7,0-1.1,0c-0.5,0-1,0-1.5,0
			c-0.3,0-0.3-0.1-0.3-0.3c0-0.7,0-1.5,0-2.2c0-1.1,0-2.3,0-3.4c0-0.8-0.3-1.2-1.1-1.4c-0.1,0-0.1,0-0.2,0c-0.8,0.2-1.3,0.7-1.7,1.4
			c-0.1,0.2,0,0.3,0,0.5c0,1.6,0,3.1,0,4.7c0,0.1,0,0.3,0,0.4c0,0.2-0.1,0.3-0.3,0.3c-0.9,0-1.8,0-2.7,0c-0.2,0-0.3-0.1-0.2-0.2
			c0-0.1,0-0.2,0-0.4c0-2.7,0-5.4,0-8.2c0-0.1,0-0.2,0-0.4c0-0.2,0.1-0.2,0.3-0.2c0.4,0,0.7,0,1.1,0c0.5,0,1,0,1.5,0
			c0.3,0,0.4-0.1,0.4,0.4C266.6,117.4,266.7,117.6,266.7,117.8z"/>
		<path fill="#F27621" d="M134.6,117.8c0.2-0.2,0.4-0.3,0.6-0.4c0.1-0.1,0.2-0.2,0.4-0.3c0.8-0.3,1.6-0.4,2.4-0.3
			c1,0.1,1.7,0.8,2.3,1.5c0.3,0.4,0.4,0.9,0.4,1.4c0,2.1,0,4.1,0,6.2c0,0.4,0,0.4-0.4,0.4c-0.8,0-1.6,0-2.4,0c-0.4,0-0.4,0-0.4-0.4
			c0-1.2,0-2.3,0-3.5c0-0.7,0-1.3,0-2c0-0.7-0.3-1.1-1-1.3c-0.4-0.1-0.8,0-1.1,0.3c-0.2,0.1-0.4,0.3-0.5,0.5c-0.2,0.3-0.4,0.6-0.4,1
			c0,1.6,0,3.2,0,4.8c0,0.1,0,0.3,0,0.4c0,0.2-0.1,0.3-0.2,0.2c-0.9,0-1.8,0-2.7,0c-0.2,0-0.2-0.1-0.2-0.3c0-0.1,0-0.2,0-0.3
			c0-2.7,0-5.5,0-8.2c0-0.1,0-0.2,0-0.3c0-0.2,0.1-0.3,0.3-0.3c0.9,0,1.7,0,2.6,0c0.2,0,0.3,0.1,0.3,0.3
			C134.5,117.4,134.6,117.6,134.6,117.8z"/>
		<path fill="#F27621" d="M45.2,122.3c-0.9,0-1.9,0-2.8,0c-0.4,0-0.4,0.1-0.3,0.4c0.3,1,1.3,1.7,2.2,1.7c1,0,1.9-0.1,2.7-0.6
			c0.2-0.1,0.4-0.3,0.6-0.4c0.1-0.1,0.3-0.2,0.5-0.2c0.1,0,0.2,0,0.2,0.2c0,0.6,0,1.1,0,1.7c0,0.2-0.2,0.4-0.4,0.5
			c-0.9,0.5-1.8,0.9-2.9,0.9c-0.1,0-0.3,0-0.4,0c-0.2,0-0.4,0.1-0.6,0.1c-0.6-0.1-1.1-0.1-1.7-0.2c-1.4-0.3-2.3-1.1-3-2.3
			c-0.3-0.5-0.5-1.1-0.5-1.7c0-0.1,0-0.3-0.1-0.4c0-0.1-0.1-0.2-0.1-0.3c0.1-0.5,0.1-1.1,0.3-1.6c0.5-1.4,1.4-2.4,2.8-2.9
			c0.7-0.3,1.4-0.4,2.2-0.3c1.3,0.1,2.5,0.5,3.4,1.6c1,1.1,1.2,2.4,1.2,3.7c0,0.3-0.2,0.3-0.4,0.3C47,122.3,46.1,122.3,45.2,122.3z
			 M41.9,120.4c1.1,0,2.1,0,3.2,0c0.3,0,0.4-0.1,0.3-0.4c-0.1-0.3-0.3-0.6-0.6-0.8c-0.4-0.3-0.8-0.4-1.3-0.3c-0.5,0-1,0.3-1.2,0.7
			C42.2,119.8,42.1,120.1,41.9,120.4z"/>
		<path fill="#F27621" d="M193.1,122.3c-0.9,0-1.9,0-2.8,0c-0.4,0-0.4,0-0.3,0.4c0.3,1.1,1.3,1.7,2.4,1.7c0.4,0,0.8,0,1.2-0.1
			c0.7-0.1,1.3-0.6,2-0.9c0.1-0.1,0.2-0.2,0.3-0.2c0.2,0,0.3,0,0.3,0.2c0,0.6,0,1.1,0,1.7c0,0.1-0.1,0.2-0.2,0.3
			c-0.9,0.7-1.9,1-3,1.1c-0.3,0-0.6,0.1-0.9,0.1c-0.7,0-1.4-0.1-2.1-0.3c-1.4-0.4-2.4-1.2-3-2.4c-0.3-0.5-0.4-1.1-0.4-1.7
			c0-0.7-0.1-1.4,0.2-2.1c0.7-1.8,1.9-2.9,3.8-3.2c1.2-0.2,2.4,0,3.4,0.6c1.1,0.6,1.8,1.5,2.1,2.8c0.2,0.6,0.1,1.2,0.1,1.9
			c0,0.2-0.1,0.3-0.3,0.3c-0.7,0-1.4,0-2.1,0C193.6,122.3,193.4,122.3,193.1,122.3z M191.7,120.4c0.5,0,1,0,1.5,0
			c0.2,0,0.3,0,0.2-0.3c-0.3-0.8-0.9-1.3-1.7-1.3c-0.8,0-1.4,0.4-1.6,1.2c-0.1,0.3,0,0.3,0.2,0.3
			C190.8,120.4,191.3,120.4,191.7,120.4z"/>
		<path fill="#F27621" d="M226.8,122.3c-1,0-1.9,0-2.9,0c-0.3,0-0.3,0-0.2,0.4c0.3,1.2,1.3,1.8,2.4,1.8c0.4,0,0.8,0,1.2-0.1
			c0.7-0.1,1.2-0.5,1.8-0.8c0.1-0.1,0.2-0.2,0.4-0.3c0.3-0.1,0.4,0,0.5,0.3c0,0.4,0,0.9,0,1.3c0,0.3-0.1,0.5-0.3,0.6
			c-0.8,0.5-1.7,0.9-2.6,0.9c-0.3,0-0.5,0.1-0.8,0.1c-0.3,0-0.5,0-0.8,0c-0.5-0.1-0.9-0.2-1.4-0.2c-0.9-0.1-1.6-0.6-2.2-1.1
			c-0.6-0.5-1-1.1-1.2-1.8c-0.1-0.2-0.2-0.5-0.2-0.7c-0.1-1.4-0.1-2.7,0.7-3.9c0.8-1.1,1.8-1.9,3.2-2c0.4,0,0.8-0.1,1.2-0.1
			c0.9,0,1.7,0.2,2.5,0.7c1,0.7,1.7,1.6,2,2.8c0.1,0.6,0.1,1.2,0.1,1.8c0,0.2-0.1,0.3-0.3,0.3c-0.8,0-1.7,0-2.5,0
			C227.1,122.3,226.9,122.3,226.8,122.3z M227.1,120.4c-0.2-0.7-0.4-1.2-1.1-1.5c-0.3-0.1-0.5-0.1-0.8-0.1c-0.7,0-1.3,0.5-1.5,1.2
			c0,0.2,0,0.3,0.3,0.3C225,120.4,226.1,120.4,227.1,120.4z"/>
		<path fill="#F27621" d="M44.2,141.8c-1,0-1.9,0-2.9,0c-0.3,0-0.2,0.1-0.2,0.3c0.2,0.8,0.6,1.4,1.4,1.7c0.8,0.3,1.6,0.3,2.5,0.1
			c0.7-0.2,1.2-0.6,1.8-0.9c0.1-0.1,0.2-0.1,0.3-0.2c0.1,0,0.3,0,0.3,0.2c0,0.6,0,1.1,0,1.7c0,0.1-0.1,0.2-0.1,0.2
			c-0.8,0.6-1.6,1-2.7,1.1c-0.5,0.1-1.1,0.1-1.6,0.1c-0.9,0-1.8-0.1-2.6-0.5c-1.4-0.7-2.4-1.7-2.6-3.4c0-0.4-0.1-0.8-0.1-1.2
			c0-1.3,0.4-2.4,1.3-3.3c0.9-0.9,2-1.4,3.3-1.4c0.8,0,1.5,0,2.2,0.3c1.2,0.5,2.1,1.3,2.6,2.5c0.3,0.7,0.4,1.5,0.4,2.3
			c0,0.3-0.1,0.3-0.4,0.3C46.2,141.8,45.2,141.8,44.2,141.8z M42.8,140.1C42.8,140.1,42.8,140.1,42.8,140.1c0.5,0,0.9,0,1.4,0
			c0.3,0,0.4-0.1,0.3-0.4c-0.2-0.7-0.9-1.3-1.7-1.3c-0.8,0-1.5,0.6-1.7,1.4c0,0.2,0,0.3,0.2,0.3C41.8,140.1,42.3,140.1,42.8,140.1z"
			/>
		<path fill="#F27621" d="M107.6,118.6c0,0.3,0,0.6,0,0.9c0,0.2-0.1,0.3-0.3,0.2c-0.5-0.2-0.9-0.4-1.4-0.6c-0.5-0.2-1.1-0.3-1.7-0.3
			c-0.2,0-0.3,0.1-0.5,0.1c-0.3,0.1-0.3,0.4,0,0.6c0.3,0.2,0.7,0.4,1,0.5c0.7,0.3,1.4,0.6,2.1,1c1,0.7,1.4,1.8,1.2,3.1
			c-0.3,1.3-1,1.9-2.2,2.1c-0.6,0.1-1.2,0.3-1.7,0.2c-1-0.1-2-0.2-2.9-0.6c-0.3-0.1-0.4-0.3-0.4-0.6c0-0.5,0-1.1,0-1.6
			c0-0.3,0.1-0.4,0.4-0.3c0.3,0.1,0.5,0.2,0.8,0.3c0.4,0.2,0.9,0.3,1.3,0.4c0.4,0.1,0.8,0.2,1.1,0c0,0,0.1,0,0.1,0
			c0.2-0.1,0.5-0.2,0.5-0.4c0.1-0.2-0.2-0.3-0.4-0.4c-0.3-0.2-0.5-0.3-0.8-0.4c-0.9-0.3-1.7-0.7-2.5-1.3c-0.3-0.2-0.5-0.5-0.6-0.8
			c-0.4-1.3-0.2-2.8,1.4-3.5c1.1-0.5,2.2-0.7,3.3-0.5c0.6,0.1,1.1,0.2,1.7,0.4c0.4,0.1,0.4,0.2,0.4,0.6
			C107.6,118.1,107.6,118.3,107.6,118.6C107.6,118.6,107.6,118.6,107.6,118.6z"/>
		<path fill="#F27621" d="M216.4,141.1c0-0.7,0-1.4,0-2.1c0-0.2-0.1-0.3-0.3-0.3c-0.2,0-0.3,0-0.5,0c-0.2,0-0.5,0.1-0.5-0.1
			c-0.1-0.3-0.1-0.5,0.1-0.8c0.7-0.7,1.3-1.5,2-2.2c0.4-0.5,0.9-1,1.3-1.5c0.2-0.3,0.4-0.5,0.8-0.4c0.2,0,0.2,0.1,0.2,0.3
			c0,0.5,0,1.1,0,1.6c0,0.3,0,0.6,0,0.9c0.3,0,0.6,0.1,0.9,0.1c0.7,0,1.3,0,2,0c0.3,0,0.3,0.1,0.3,0.3c0,0.5,0,1,0,1.5
			c0,0.4,0,0.4-0.4,0.4c-0.8,0-1.6,0-2.4,0c-0.7,0-0.6-0.1-0.6,0.6c0,1,0,2,0,3c0,0.4,0.1,0.6,0.3,0.9c0.1,0.2,0.4,0.4,0.6,0.4
			c0.6,0,1.2,0,1.7-0.3c0,0,0.1,0,0.2-0.1c0.4-0.2,0.5-0.1,0.5,0.3c0,0.5,0,1.1,0,1.6c0,0.3-0.1,0.4-0.4,0.5c-1,0.4-2,0.5-3,0.4
			c-0.9-0.1-1.8-0.3-2.4-1.1c-0.2-0.2-0.4-0.5-0.5-0.8c-0.2-0.5-0.3-0.9-0.3-1.4C216.4,142.2,216.4,141.7,216.4,141.1z"/>
		<path fill="#F27621" d="M256.5,118.6c0,0.3,0,0.6,0,0.9c0,0.2-0.1,0.3-0.3,0.3c-0.1,0-0.2-0.1-0.3-0.1c-0.6-0.3-1.2-0.4-1.9-0.5
			c-0.6,0-1.2,0.2-1.7,0.5c-0.5,0.3-0.7,0.8-0.8,1.4c-0.2,1.5,0.5,2.7,2,3c0.5,0.1,1,0,1.5-0.1c0.4-0.1,0.9-0.3,1.3-0.4
			c0.3-0.1,0.4-0.1,0.4,0.2c0,0.6,0,1.2,0,1.8c0,0.3-0.1,0.4-0.3,0.5c-0.6,0.2-1.2,0.4-1.9,0.4c-0.3,0-0.6,0.1-0.9,0.1
			c-0.7,0-1.5-0.1-2.2-0.3c-1.6-0.5-2.7-1.4-3.2-3c-0.3-0.8-0.3-1.7-0.1-2.6c0.1-0.4,0.2-0.8,0.3-1.1c0.7-1.5,1.9-2.4,3.5-2.7
			c0.7-0.1,1.4-0.2,2.2-0.1c0.7,0.2,1.5,0.3,2.2,0.5c0.2,0.1,0.2,0.1,0.2,0.3C256.4,117.9,256.5,118.2,256.5,118.6z"/>
		<path fill="#F27621" d="M32,118.6c0,0.3,0,0.6,0,0.9c0,0.2-0.1,0.3-0.3,0.3c-0.1,0-0.3-0.1-0.4-0.2c-0.6-0.3-1.2-0.5-1.9-0.4
			c-1.3,0.2-2,0.5-2.4,1.9c-0.2,0.9,0.1,2.1,1.1,2.6c0.4,0.2,0.9,0.3,1.3,0.4c0.3,0,0.7-0.1,1-0.2c0.5-0.1,1-0.3,1.4-0.5
			c0.3-0.1,0.3-0.1,0.3,0.2c0,0.7,0,1.3,0,2c0,0.2-0.1,0.2-0.3,0.3c-0.7,0.2-1.4,0.4-2.1,0.5c-0.3,0-0.7,0.1-1,0.1
			c-0.8-0.1-1.7-0.1-2.4-0.5c-1-0.4-1.8-1-2.3-2c-0.4-0.8-0.6-1.6-0.6-2.5c0-1,0.2-2,0.9-2.8c0.6-0.7,1.3-1.3,2.2-1.6
			c0.9-0.3,1.8-0.5,2.7-0.4c0.9,0.1,1.8,0.2,2.6,0.6c0.2,0.1,0.2,0.1,0.2,0.3C32,117.9,32,118.2,32,118.6z"/>
		<path fill="#F27621" d="M100.5,139c0-2.1,0-4.2,0-6.3c0-0.1,0-0.3,0-0.4c0-0.2,0.1-0.2,0.2-0.2c0.3,0,0.6,0,0.9,0
			c0.6,0,1.1,0,1.7,0c0.2,0,0.3,0.1,0.3,0.3c0,0.1,0,0.2,0,0.4c0,4.2,0,8.4,0,12.6c0,0.7,0.1,0.6-0.6,0.6c-0.7,0-1.5,0-2.2,0
			c-0.4,0-0.4,0-0.4-0.4c0-1,0-1.9,0-2.9C100.5,141.5,100.5,140.3,100.5,139z"/>
		<path fill="#F27621" d="M237.7,138.3c0.4-0.4,0.7-0.9,1.1-1.3c0.8-0.8,2.1-0.9,3-0.3c0.1,0.1,0.2,0.1,0.3,0.2
			c0.3,0.2,0.4,0.4,0.3,0.8c-0.2,0.7-0.5,1.4-0.7,2.2c-0.1,0.2-0.2,0.2-0.3,0.1c-0.3-0.1-0.6-0.3-0.9-0.4c-0.7-0.4-1.6-0.1-1.9,0.6
			c-0.3,0.5-0.6,1.1-0.8,1.6c-0.1,0.1-0.1,0.3-0.1,0.5c0,1.1,0,2.2,0,3.3c0,0.4,0,0.4-0.4,0.4c-0.8,0-1.5,0-2.3,0
			c-0.6,0-0.5,0-0.5-0.5c0-1.4,0-2.8,0-4.1c0-1.5,0-2.9,0-4.4c0-0.5,0-0.4,0.5-0.4c0.8,0,1.6,0,2.4,0c0.2,0,0.3,0.1,0.3,0.3
			C237.7,137.3,237.7,137.8,237.7,138.3z"/>
		<path fill="#F27621" d="M157.7,119.4c0,2.1,0,4.1,0,6.2c0,0.1,0,0.3,0,0.4c0,0.2-0.1,0.2-0.3,0.2c-0.4,0-0.9,0-1.3,0
			c-0.5,0-0.9,0-1.4,0c-0.2,0-0.3-0.1-0.3-0.3c0-0.1,0-0.2,0-0.4c0-4.2,0-8.3,0-12.5c0-0.7-0.1-0.6,0.6-0.6c0.7,0,1.5,0,2.2,0
			c0.3,0,0.4,0,0.4,0.4c0,1.2,0,2.4,0,3.7C157.7,117.5,157.7,118.5,157.7,119.4z"/>
		<path fill="#F27621" d="M246.5,141.3c0,1.4,0,2.8,0,4.2c0,0.5,0,0.5-0.5,0.5c-0.8,0-1.5,0-2.3,0c-0.4,0-0.4,0-0.4-0.4
			c0-1.6,0-3.2,0-4.8c0-1.3,0-2.6,0-3.8c0-0.5,0-0.4,0.5-0.4c0.8,0,1.6,0,2.4,0c0.4,0,0.4,0,0.4,0.4
			C246.5,138.3,246.5,139.8,246.5,141.3z"/>
		<path fill="#F27621" d="M214,141.3c0,1.4,0,2.8,0,4.2c0,0.5,0,0.5-0.5,0.5c-0.8,0-1.5,0-2.3,0c-0.4,0-0.4,0-0.4-0.4
			c0-1.6,0-3.2,0-4.8c0-1.3,0-2.6,0-3.8c0-0.5,0-0.4,0.5-0.4c0.8,0,1.6,0,2.4,0c0.4,0,0.4,0,0.4,0.4C214,138.3,214,139.8,214,141.3z
			"/>
		<path fill="#F27621" d="M109.1,141.3c0,1.4,0,2.8,0,4.3c0,0.5,0,0.5-0.5,0.5c-0.8,0-1.5,0-2.3,0c-0.5,0-0.5,0-0.5-0.5
			c0-2.1,0-4.2,0-6.3c0-0.8,0-1.6,0-2.4c0-0.2,0.1-0.3,0.3-0.3c0.8,0,1.7,0,2.5,0c0.3,0,0.3,0,0.3,0.4
			C109.1,138.3,109.1,139.8,109.1,141.3z"/>
		<path fill="#F27621" d="M95.2,141.2c0-1.4,0-2.8,0-4.3c0-0.5,0-0.4,0.5-0.4c0.8,0,1.6,0,2.4,0c0.2,0,0.3,0.1,0.3,0.3
			c0,0.3,0,0.6,0,0.8c0,2.6,0,5.1,0,7.7c0,0.1,0,0.3,0,0.4c0,0.2-0.1,0.2-0.3,0.2c-0.3,0-0.7,0-1,0c-0.5,0-1,0-1.5,0
			c-0.4,0-0.4,0-0.4-0.4c0-1.1,0-2.3,0-3.4C95.2,141.9,95.2,141.5,95.2,141.2z"/>
		<path fill="#F27621" d="M33.8,121.6c0-1.4,0-2.8,0-4.2c0-0.4,0-0.4,0.4-0.4c0.8,0,1.5,0,2.3,0c0.5,0,0.5,0,0.5,0.4
			c0,1.7,0,3.4,0,5c0,1.1,0,2.3,0,3.4c0,0.5,0,0.4-0.5,0.4c-0.8,0-1.5,0-2.3,0c-0.4,0-0.4,0-0.4-0.4C33.8,124.4,33.8,123,33.8,121.6
			z"/>
		<path fill="#F27621" d="M246.3,121.6c0,1.4,0,2.8,0,4.3c0,0.4,0,0.4-0.4,0.4c-0.8,0-1.6,0-2.4,0c-0.4,0-0.4,0-0.4-0.4
			c0-1,0-2.1,0-3.1c0-1.8,0-3.6,0-5.3c0-0.5,0-0.5,0.5-0.5c0.7,0,1.5,0,2.2,0c0.6,0,0.6-0.1,0.6,0.6
			C246.3,118.9,246.3,120.2,246.3,121.6z"/>
		<path fill="#F27621" d="M258.1,121.6c0-1.4,0-2.8,0-4.3c0-0.4,0-0.4,0.4-0.4c0.8,0,1.5,0,2.3,0c0.5,0,0.5,0,0.5,0.4
			c0,1.3,0,2.6,0,4c0,1.5,0,3,0,4.5c0,0.5,0,0.5-0.5,0.5c-0.8,0-1.5,0-2.3,0c-0.5,0-0.5,0-0.5-0.5
			C258.1,124.4,258.1,123,258.1,121.6z"/>
		<path fill="#F27621" d="M136.6,116c-0.8,0.1-1.5-0.3-2.2-0.5c-0.2-0.1-0.4-0.1-0.7-0.2c-0.4-0.1-0.6-0.1-0.8,0.3
			c-0.1,0.2-0.3,0.3-0.5,0.3c-0.3,0-0.7,0-1,0c-0.1,0-0.2,0-0.2-0.2c0-0.7,0.1-1.4,0.7-1.9c0.4-0.4,0.8-0.8,1.4-0.8
			c0.7-0.1,1.4,0.1,2.1,0.4c0.3,0.2,0.7,0.3,1.1,0.5c0.5,0.2,0.8,0.1,1-0.4c0.2-0.4,0.4-0.5,0.7-0.5c0.1,0,0.2,0,0.3,0
			c0.7,0,0.7-0.1,0.6,0.7c-0.1,0.8-0.3,1.5-0.9,2C137.6,115.9,137.1,116,136.6,116z"/>
		<path fill="#F27621" d="M107.5,132c1,0,1.7,0.8,1.7,1.8c0,1.1-0.8,1.7-1.8,1.7c-0.9,0-1.8-0.8-1.7-1.8
			C105.7,132.8,106.3,132,107.5,132z"/>
		<path fill="#F27621" d="M212.4,132c1,0,1.7,0.8,1.7,1.8c0,1.1-0.8,1.7-1.8,1.7c-0.9,0-1.8-0.8-1.7-1.8
			C210.6,132.8,211.2,132,212.4,132z"/>
		<path fill="#F27621" d="M246.6,133.7c0,1.2-0.8,1.8-1.7,1.8c-1.1,0-1.7-0.7-1.8-1.7c0-0.5,0.2-1,0.5-1.3c0.4-0.4,0.8-0.5,1.3-0.5
			C245.9,132,246.6,132.8,246.6,133.7z"/>
		<path fill="#F27621" d="M259.8,115.9c-1,0-1.8-0.7-1.8-1.7c0-0.9,0.9-1.9,1.8-1.8c1,0.1,1.7,0.8,1.8,1.7
			C261.6,115.2,260.7,116,259.8,115.9z"/>
		<path fill="#F27621" d="M35.3,115.9c-1.1,0-1.6-0.6-1.7-1.9c0-0.9,0.8-1.7,1.7-1.6c0.9,0,1.8,0.6,1.7,1.8
			C37.1,115.2,36.4,115.9,35.3,115.9z"/>
		<path fill="#F27621" d="M98.5,133.7c0.1,0.9-0.6,1.8-1.7,1.8c-0.9,0-1.8-0.6-1.7-1.8c0.1-1,0.7-1.7,1.7-1.7
			C97.8,132,98.5,132.7,98.5,133.7z"/>
		<path fill="#F27621" d="M242.9,114.1c-0.2-1.1,0.8-1.7,1.7-1.7c0.4,0,0.9,0.1,1.2,0.5c0.3,0.4,0.5,0.8,0.5,1.3
			c0,1-0.7,1.7-1.8,1.7C243.5,115.9,242.9,115.2,242.9,114.1z"/>
	</g>
</g>
</svg>
