<?xml version="1.0" encoding="utf-8"?>
<!-- Generator: Adobe Illustrator 19.2.1, SVG Export Plug-In . SVG Version: 6.00 Build 0)  -->
<svg version="1.1" id="Capa_1" xmlns="http://www.w3.org/2000/svg" xmlns:xlink="http://www.w3.org/1999/xlink" x="0px" y="0px"
	 viewBox="0 0 56 56" style="enable-background:new 0 0 56 56;" xml:space="preserve">
<style type="text/css">
	.st0{fill:#5789c7;}
</style>
<g>
	<g>
		<path class="st0" d="M28,55.7c-0.1,0-0.2,0-0.3-0.1C19.3,53.1,3.7,44,3.7,33.8V8.4c0-0.5,0.3-1,0.8-1.1l23.1-6.9
			c0.2-0.1,0.4-0.1,0.7,0l23.1,6.9c0.5,0.1,0.8,0.6,0.8,1.1v25.4c0,10.2-15.6,19.3-23.9,21.9C28.2,55.7,28.1,55.7,28,55.7z M6,9.2
			v24.6c0,8.1,12.9,16.6,22,19.6c9.1-2.9,22-11.5,22-19.6V9.2L28,2.6L6,9.2z"/>
	</g>
	<g>
		<g>
			<g>
				<g>
					<g>
						<g>
							<path class="st0" d="M28,39.6c-7,0-12.7-5.7-12.7-12.7S21,14.1,28,14.1s12.7,5.7,12.7,12.7S35,39.6,28,39.6z M28,16.4
								c-5.7,0-10.4,4.7-10.4,10.4S22.3,37.2,28,37.2s10.4-4.7,10.4-10.4S33.7,16.4,28,16.4z"/>
						</g>
					</g>
					<g>
						<path class="st0" d="M28,30.3c-0.6,0-1.2-0.5-1.2-1.2v-9.2c0-0.6,0.5-1.2,1.2-1.2c0.6,0,1.2,0.5,1.2,1.2v9.2
							C29.2,29.8,28.6,30.3,28,30.3z"/>
					</g>
					<g>
						<path class="st0" d="M28,34.9c-0.3,0-0.6-0.1-0.8-0.3c-0.2-0.2-0.3-0.5-0.3-0.8s0.1-0.6,0.3-0.8c0.5-0.4,1.2-0.4,1.6,0
							c0.2,0.2,0.3,0.5,0.3,0.8s-0.1,0.6-0.3,0.8C28.6,34.8,28.3,34.9,28,34.9z"/>
					</g>
				</g>
			</g>
		</g>
	</g>
</g>
</svg>
