<?xml version="1.0" encoding="utf-8"?>
<!-- Generator: Adobe Illustrator 19.2.1, SVG Export Plug-In . SVG Version: 6.00 Build 0)  -->
<svg version="1.1" id="Capa_1" xmlns="http://www.w3.org/2000/svg" xmlns:xlink="http://www.w3.org/1999/xlink" x="0px" y="0px"
	 viewBox="0 0 56 56" style="enable-background:new 0 0 56 56;" xml:space="preserve">
<style type="text/css">
	.st0{fill:#5789c7;}
</style>
<g>
	<g>
		<path class="st0" d="M43,28c-0.6,0-1.2-0.5-1.2-1.2V16.4c0-7.6-6.2-13.9-13.9-13.9S14.1,8.8,14.1,16.4v10.4c0,0.6-0.5,1.2-1.2,1.2
			c-0.7,0-1.2-0.5-1.2-1.2V16.4C11.8,7.5,19,0.3,28,0.3s16.2,7.2,16.2,16.2v10.4C44.1,27.5,43.6,28,43,28z"/>
	</g>
	<g>
		<path class="st0" d="M38.4,28c-0.6,0-1.2-0.5-1.2-1.2V16.4c0-5.1-4.2-9.2-9.2-9.2s-9.2,4.2-9.2,9.2v10.4c0,0.6-0.5,1.2-1.2,1.2
			c-0.6,0-1.2-0.5-1.2-1.2V16.4c0-6.3,5.2-11.6,11.6-11.6S39.5,10,39.5,16.4v10.4C39.5,27.5,38.9,28,38.4,28z"/>
	</g>
	<g>
		<path class="st0" d="M40.6,55.7H15.3c-3.2,0-5.7-2.6-5.7-5.7V29.2c0-1.9,1.6-3.5,3.5-3.5h30c1.9,0,3.5,1.6,3.5,3.5V50
			C46.5,53.2,43.8,55.7,40.6,55.7z M12.9,28c-0.6,0-1.2,0.5-1.2,1.2V50c0,1.9,1.6,3.5,3.5,3.5h25.5c1.9,0,3.5-1.6,3.5-3.5V29.2
			c0-0.6-0.5-1.2-1.2-1.2H12.9z"/>
	</g>
	<g>
		<path class="st0" d="M31.4,46.5h-6.9c-0.4,0-0.7-0.2-0.9-0.5c-0.2-0.3-0.3-0.7-0.2-1.1l1.5-4.4c-1-0.9-1.5-2.1-1.5-3.4
			c0-2.6,2.1-4.7,4.7-4.7s4.7,2.1,4.7,4.7c0,1.3-0.6,2.6-1.5,3.4l1.5,4.4c0.1,0.4,0.1,0.7-0.2,1.1C32.1,46.3,31.8,46.5,31.4,46.5z
			 M26.1,44.2h3.8l-1.2-3.6c-0.2-0.5,0-1.1,0.5-1.4c0.7-0.4,1.2-1.2,1.2-2c0-1.3-1-2.3-2.3-2.3c-1.3,0-2.3,1-2.3,2.3
			c0,0.8,0.4,1.6,1.2,2c0.5,0.3,0.7,0.9,0.5,1.4L26.1,44.2z"/>
	</g>
</g>
</svg>
